<svg xmlns="http://www.w3.org/2000/svg" viewBox="0 0 436 436"><g xmlns="http://www.w3.org/2000/svg" fill="none" stroke-width="2"><path stroke="#00c69c" d="M218 27.21q-2.45 2.66-5.73 4.15a.88.68-15.6 0 0-.52.7v.65M184.72 44.43l-11.26 4.32M176.21 63l-7.67 2.75M179.78 73.59q-2.14 2.69-5.4 3a1.51 1.43 19.3 0 0-.87.39q-5.72 5.45-12.58 9.74" vector-effect="non-scaling-stroke"/><path stroke="#65ddff" d="M160.93 86.72 158.46 88" vector-effect="non-scaling-stroke"/><path stroke="#00c69c" d="M158.46 88c-16.09 5.05-36.05 15.66-46.64 30.07q-4.62 6.3-11.9 19.08" vector-effect="non-scaling-stroke"/><path stroke="#65ddff" d="M99.92 137.15q-1.3 1.08-1.75 2.72" vector-effect="non-scaling-stroke"/><path stroke="#00c69c" d="M98.17 139.87q-1.35-.1-2.23.81-10.06 10.35-24.08 21.97" vector-effect="non-scaling-stroke"/><path stroke="#65ddff" d="m193.79 81-2.25 1M191.54 82c-1.09-1.33-12.42.96-14.75 1.21a.45.42-11 0 0-.39.54l2.14 7.5M178.54 91.25l-.08.5" vector-effect="non-scaling-stroke"/><path stroke="#00c69c" d="m178.46 91.75-4.96 3.79" vector-effect="non-scaling-stroke"/><path stroke="#65ddff" d="M173.5 95.54q-2.68-4.31-3.93-9.27a.5.5 76.5 0 0-.6-.37q-3.89.95-8.04.82M173.5 95.54v.17M79.29 174.75q1.43-2.28 1.86-4.92c.21-1.31 1.62-2.28 2.2-3.42q6.95-13.53 14.82-26.54" vector-effect="non-scaling-stroke"/><path stroke="#ff7878" d="M99.92 137.15q24.59-21.04 49.52-41.59c2.24-1.85 6.34-4.61 9.02-7.56" vector-effect="non-scaling-stroke"/><path stroke="#00c69c" d="m78.71 176-2.33 2.23q-.51.49-.82.59-1.76.56-2.01 2.45a1.31.76-25.7 0 1-.5.73c-3.27 2.5-5.45 5.87-8.83 8.17q-1.94 1.32-3.63 3" vector-effect="non-scaling-stroke"/><path stroke="#65ddff" d="m284.75 93.04.04.46" vector-effect="non-scaling-stroke"/><path stroke="#ff7878" d="M284.79 93.5q-.34.55-.61.68c-19.71 9.82-38.91 20.53-58.87 29.89q-17.68 8.29-35.09 17.13-.93.47-2.44 2.13a1.24.94-63.3 0 1-.84.41q-.59 0-1.15-.24" vector-effect="non-scaling-stroke"/><path stroke="#65ddff" d="m185.79 143.5-.33-.5" vector-effect="non-scaling-stroke"/><path stroke="#00c69c" d="M185.46 143q.06-4.19-1.01-5.69c-3.74-5.25-6.93-1.37-7.22 2.81q-.23 3.31.56 6.63" vector-effect="non-scaling-stroke"/><path stroke="#65ddff" d="m177.79 146.75-.08.5" vector-effect="non-scaling-stroke"/><path stroke="#ff7878" d="m177.71 147.25-3.3 2.02q-.67.41-.93.43-2.12.2-2.72 2.28a.6.53 18.5 0 1-.76.32q-2.62-.96-4.17 1.3a.92.84-67.9 0 1-.84.4q-2.16-.29-2.37 1.84a.8.41-14.8 0 1-.55.49q-1.28.45-2.58.24a1.72.74 19.1 0 0-1.07.08q-1.64.93-2.33 2.68a1.42.51-75.4 0 1-.52.76q-1.18.66-2.57.37a1.28.3-30.4 0 0-.9.28q-13.08 6.65-25.82 13.92c-1.04.59-1.75 2.01-3.53 1.8" vector-effect="non-scaling-stroke"/><path stroke="#00c69c" d="M122.75 176.46q.99-1.21.82-2.47-1.08-7.94-.36-14.99a.93.88-69.1 0 0-.34-.81q-2.82-2.23-6.27-1.39c-4.06.98-3.93 5.9-5.35 8.76-1.51 3.04-3.19 6.42-2.83 9.92a1.85 1.65 58.3 0 1-.17.96q-2.34 4.61-3 9.77" vector-effect="non-scaling-stroke"/><path stroke="#65ddff" d="m105.25 186.21-.29.29" vector-effect="non-scaling-stroke"/><path stroke="#ff7878" d="M104.96 186.5q-8.34 5.26-17.02 9.95c-2.28 1.23-4.43 3.79-7.39 4.66-4.43 1.29-8.37 4.5-12.51 6.64" vector-effect="non-scaling-stroke"/><path stroke="#00c69c" d="M68.04 207.75c-.49-2.89 1.29-4.64 1.86-6.74q1.21-4.46 3.41-11.26.28-.87.38-.99l.4-.5q.44-.56.48-.74.71-3.53 2.62-6.55a1.95 1.6-33.6 0 0 .3-.97v-.75a1.33.71-35.1 0 1 .4-.79q.94-1.02.82-2.46" vector-effect="non-scaling-stroke"/><path stroke="#65ddff" d="m78.71 176 .58-1.25" vector-effect="non-scaling-stroke"/><path stroke="#ff7878" d="M79.29 174.75q1.22-.24 1.74-1.34.16-.32.64-.75 1.2-1.07 2.78-1.46a1.38.69-70.2 0 0 .72-.69q.97-1.75 2.51-3.08c9.28-8.03 18.23-16.53 27.61-24.39q38.05-31.88 57.21-47.03a1.32 1.21 20.8 0 1 .65-.26l.35-.04" vector-effect="non-scaling-stroke"/><path stroke="#00c69c" d="M173.5 95.71c4.11 4.93 8.54 8.29 14.93 7.92q.55-.04.06-.34-6.39-4-9.28-10.92a.68.57-2.8 0 0-.48-.36q-.24-.05-.27-.26" vector-effect="non-scaling-stroke"/><path stroke="#ff7878" d="M178.54 91.25c1.44-2.13 3.5-1.33 4.53-3.8a1.68 1.31-9.7 0 1 .62-.68l7.85-4.77" vector-effect="non-scaling-stroke"/><path stroke="#00c69c" d="M296.48 89.24q-6.06 1.34-11.73 3.8M284.75 93.04q-15.63-9.18-33.25-13.48a1.47.34 17.7 0 0-1.01-.08q-2.51.87-4.57-.63a1.77.83 47.8 0 0-.91-.38q-2.62-.08-5.1-.79c-1.65-.48-2.84.4-4.63-.16-4.04-1.27-7.66-.77-11.82-1.12q-1.78-.14-4.2.17-16.12 2.07-25.47 4.43M193.79 81l-.24-.22a.25.25-39.2 0 1 .04-.39q8.45-5.26 15.96-11.79" vector-effect="non-scaling-stroke"/><path stroke="#65ddff" d="m68.04 207.75-.33.75" vector-effect="non-scaling-stroke"/><path stroke="#00c69c" d="m67.71 208.5-.2.39a1.05.69 2.8 0 1-.73.43q-4.28.67-6.9 4.06a1.26.82 11.1 0 1-.89.36h-.74q-.29 0-.86.32l-4.35 2.44M185.29 157.25c-3.36.44-5.17 2.75-8.25 3" vector-effect="non-scaling-stroke"/><path stroke="#65ddff" d="m177.04 160.25-.23-.66q-.26-.75-.25-.9c.24-3.59 2.3-8.18 1.15-11.44" vector-effect="non-scaling-stroke"/><path stroke="#00c69c" d="M123.96 191c-.15-1-.87-.92-1.48-.39q-3.15 2.76-7.62 3.71" vector-effect="non-scaling-stroke"/><path stroke="#65ddff" d="m114.86 194.32.03-3.85a.58.32-90 0 0-.32-.58c-.34-.01-1.11 5.91-1.49 6.94" vector-effect="non-scaling-stroke"/><path stroke="#00c69c" d="M113.08 196.83q-2.51.01-3.77 1.31a1.66 1.22-66.4 0 1-.81.47c-4.12.82-5.02 3.25-8.29 5.39" vector-effect="non-scaling-stroke"/><path stroke="#65ddff" d="m100.21 204-.25-.75M99.96 203.25q1.59-4.18 2.81-8.47c.74-2.6 2.73-4.76 2.19-8.28" vector-effect="non-scaling-stroke"/><path stroke="#ff7878" d="M294.79 100q-1.01.96-1.73 1.31-27.46 13.33-54.52 27.44" vector-effect="non-scaling-stroke"/><path stroke="#65ddff" d="m238.54 128.75-2.89-2.97a.69.55-38.6 0 0-.82 0q-3.11 2.2-2.79 6.22M232.04 132l-.04.71" vector-effect="non-scaling-stroke"/><path stroke="#ff7878" d="M232 132.71c-3.3 1.15-5.79 2.96-9.21 4.43q-1.65.71-3.53 2.11-3.6 2.71-11.54 5.77-1.88.72-4.39 2.49c-3.12 2.19-6.78 2.85-9.83 4.75q-3.88 2.43-7.96 4.49" vector-effect="non-scaling-stroke"/><path stroke="#65ddff" d="m185.54 156.75.25-13.25" vector-effect="non-scaling-stroke"/><path stroke="#00c69c" d="M303.79 94.25c-.74 2.63-5.52 4.17-8.29 5.79" vector-effect="non-scaling-stroke"/><path stroke="#65ddff" d="m295.5 100.04-.71-.04M294.79 100q-4.32-4.27-10-6.5" vector-effect="non-scaling-stroke"/><path stroke="#ff7878" d="M99.96 203.25c-4.14 3.31-8.35 4.73-12.6 7.36-7.83 4.86-15.54 8.97-23.07 13.89" vector-effect="non-scaling-stroke"/><path stroke="#65ddff" d="M64.29 224.5c.63-5.51 2.6-10.16 3.42-16" vector-effect="non-scaling-stroke"/><path stroke="#00c69c" d="M185.46 143c-1.19.7-6.72 4.52-7.67 3.75" vector-effect="non-scaling-stroke"/><path stroke="#65ddff" d="m177.04 160.25-.6.93" vector-effect="non-scaling-stroke"/><path stroke="#ff7878" d="m176.44 161.18-52.15 28.32" vector-effect="non-scaling-stroke"/><path stroke="#65ddff" d="m124.29 189.5-.49-4.26a1.37.5 88.9 0 0-.37-.95q-1.7-1.21-.21-2.84a1.54 1.01 73.7 0 0 .3-.99q-.06-1.94-1.56-3.21M121.96 177.25l.79-.79" vector-effect="non-scaling-stroke"/><path stroke="#00c69c" d="M121.96 177.25c-2.59 2.77-6.65 3.17-9.76 5.76q-.38.31-.89.41c-1.59.32-5.16 3.06-6.06 2.79M64.22 224.66q-3.1 2-6.41 3.37c-3.66 1.5-6.16 3.87-9.63 5.63-1.37.69-5.19 4.86-6.22 3.59M194.75 183.79q-2.75 3.28-6.75 4.75M188 188.54l-4.58-8.85a.16.13-26.6 0 0-.2-.05l-.12.08a.57.4-19.6 0 0-.28.39q-.29 8.26-3.31 15.71M179.51 195.82c-2.7 2-5.99 5.87-8.76 6.89" vector-effect="non-scaling-stroke"/><path stroke="#00c69c" d="M170.75 202.71c3.41-13.8 4.37-27.46 5.69-41.53" vector-effect="non-scaling-stroke"/><path stroke="#65ddff" d="m236.29 152-.29.71" vector-effect="non-scaling-stroke"/><path stroke="#ff7878" d="M236 152.71c-5.33 3.08-11.29 8.11-14.77 10.68-6.49 4.79-12.57 10.08-19.24 14.69q-3.5 2.43-6.76 4.98" vector-effect="non-scaling-stroke"/><path stroke="#00c69c" d="M195.23 183.06q-4.89-6.94-10.63-12.71a1.25 1.23-68.4 0 1-.36-.85q-.08-6.16 1.05-12.25" vector-effect="non-scaling-stroke"/><path stroke="#65ddff" d="m185.29 157.25.25-.5M170.75 202.71l-.5.75" vector-effect="non-scaling-stroke"/><path stroke="#ff7878" d="M170.25 203.46q-4.03 2.51-7.28 6.04-1.94 2.11-3.63 3.09-4.37 2.54-7.67 6.33a.51.15 4 0 1-.38.08h-.25" vector-effect="non-scaling-stroke"/><path stroke="#00c69c" d="M151.04 219c-2.35-3.58-2.93-8.65-4.23-12.84a.79.49 72.3 0 1 .23-.9l5.22-1.76q.48-.16-.03-.25-2.98-.54-6 .05a1.12 1.01 56.4 0 1-.86-.22c-1.86-1.46-14.64 3.13-18.19 4.48a.42.41 74.7 0 1-.55-.32c-1.03-5.49-1.32-10.78-2.67-16.24" vector-effect="non-scaling-stroke"/><path stroke="#65ddff" d="m123.96 191 .33-1.5M151.04 219l-.08.5" vector-effect="non-scaling-stroke"/><path stroke="#00c69c" d="M150.96 219.5c-1.94.19-5.21 3.91-6.26 5.51M133 234.29q-2.16 2.77-5.04 4.7a1.84 1.44-88.3 0 0-.61.73c-1.1 2.31-3.31 2-4.21 4.3a1.31.83-80.6 0 1-.65.73q-2.39.76-3.4 3.09a1.35.5-15 0 1-.81.57q-2.39.92-2.78 3.63M114.46 244.75q.69-3.16-.96-.04M106.96 260l-4.95 4.11a1.44.98-57.5 0 1-.79.34l-.47.01" vector-effect="non-scaling-stroke"/><path stroke="#00c69c" d="M100.75 264.46q-1.25-4.64-1.29-9.55-.01-1.42-.55-.09l-6.97 16.91q-.11.28-.04 1.04l.1.94" vector-effect="non-scaling-stroke"/><path stroke="#65ddff" d="m92 273.71-.68.43" vector-effect="non-scaling-stroke"/><path stroke="#00c69c" d="M91.32 274.14q-1.48-12.88 1.16-25.39 1.27-6.01 1.25-12.21 0-.72-.43-.23-1.49 1.68-3.57 2.68-2.06.98-.77-1.01 2.51-3.87 4.84-7.85c2.79-4.75 2.92-7.49 3.44-12.88q.28-2.93 2.97-13.25M114.86 194.32q-.25 5.07 1.08 10.08c.41 1.57 2.15 9.5-.91 8.94a1.6.89 22.6 0 0-1.06.12l-4.64 3.13q-1.45.97-1.01-.76l4.76-19" vector-effect="non-scaling-stroke"/><path stroke="#ff7878" d="M91.32 274.14C78.53 288.78 64.6 302.58 52 317.29" vector-effect="non-scaling-stroke"/><path stroke="#65ddff" d="m52 317.29-.46-.54" vector-effect="non-scaling-stroke"/><path stroke="#00c69c" d="M51.54 316.75q.85-9.54 1.35-19.1c.08-1.62-.46-3.12.57-5.02q.17-.33.16-.88l-.08-4.75q0-.19.39-.99.63-1.25-.47-2.47a.53.53-45.4 0 1 0-.71c3.64-4.17-1.23-7.75 2.15-10.49a1.27 1.03-21.4 0 0 .47-.83l.39-5.69a1.49.54 86.6 0 1 .26-.87q1.63-1.97.75-4.44a1 .59-43.4 0 1 .23-.81q.95-1.25.38-2.77a1.18 1.18 46.4 0 1 .02-.91q1.01-2.37 1.67-5.76 2.96-15.26 4.44-25.6" vector-effect="non-scaling-stroke"/><path stroke="#65ddff" d="m64.22 224.66.07-.16" vector-effect="non-scaling-stroke"/><path stroke="#00c69c" d="M238.25 129.71q-2.9 1.76-6.21 2.29" vector-effect="non-scaling-stroke"/><path stroke="#ff7878" d="M304.29 107.75q-30.57 18.94-60.25 39.25" vector-effect="non-scaling-stroke"/><path stroke="#00c69c" d="M244.04 147q-1.88-8.98-5.79-17.29" vector-effect="non-scaling-stroke"/><path stroke="#65ddff" d="m238.25 129.71.29-.96" vector-effect="non-scaling-stroke"/><path stroke="#00c69c" d="M244.04 147.5q-3.55 1.39-6.25 4.07a1.4.84-57.8 0 1-.85.43h-.65M236.29 152q.94-1.53-.31-2.53a1.73 1.04 22.2 0 1-.56-.75q-2.43-7.84-3.42-16.01M313.51 103.28q-5.02.75-8.51 4.43" vector-effect="non-scaling-stroke"/><path stroke="#65ddff" d="m305 107.71-.71.04" vector-effect="non-scaling-stroke"/><path stroke="#00c69c" d="M304.29 107.75q-4.04-4.25-8.79-7.71M51.54 316.75q-3.27 5.74-8.08 10.25" vector-effect="non-scaling-stroke"/><path stroke="#65ddff" d="m238.79 162-.08.25" vector-effect="non-scaling-stroke"/><path stroke="#ff7878" d="M238.71 162.25q-19.66 13.66-38.21 28.79" vector-effect="non-scaling-stroke"/><path stroke="#65ddff" d="m200.5 191.04-.31-.06a.81.48 73.2 0 1-.46-.42c-.74-1.42-5.02-6.06-4.98-6.77M194.75 183.79l.48-.73M188 188.54l5.71 8.71M189 199.54l-4.96.7a1.22.85 5.5 0 0-.81.46c-.56.97 1.91 1.77 2.77 2.01M193.25 247.79l1.6 7.25" vector-effect="non-scaling-stroke"/><path stroke="#00c69c" d="M194.85 255.04q.57 3.11 2.84 5.34a1.39.87 29 0 1 .43.78q.22 2.71 2.88 2.33a.69.66 79 0 1 .74.52l.43 1.8a.59.45 76.3 0 0 .58.47q1.64-.4 2.17 1.03a.93.65-8.4 0 0 .86.43c2.94-.13 6.14.71 8.78-.51 10.03-4.6 12.97-15.65 12.57-25.85a.57.33-89.3 0 1 .37-.62q2.12.39 2.93 2.28.23.54.58.87l5.74 5.38" vector-effect="non-scaling-stroke"/><path stroke="#65ddff" d="m236.75 249.29 8.55 5.97a1.08 1.07-75 0 1 .46.8q.05.61-.12 1.08" vector-effect="non-scaling-stroke"/><path stroke="#00c69c" d="m245.64 257.14 1.18 22.04q.01.31.34.91l.25.45a1.38.84-60.1 0 1 .02.95c-.63 2.09-1.62 9.15.43 11.07" vector-effect="non-scaling-stroke"/><path stroke="#65ddff" d="M247.86 292.56q-1.36 6.08-.82 12.44" vector-effect="non-scaling-stroke"/><path stroke="#00c69c" d="M247.04 305q.52 3.04.03 6.25M232 317.29l-3.75-1.33" vector-effect="non-scaling-stroke"/><path stroke="#65ddff" d="m228.25 315.96-5.43-.36a1.08.74-63.5 0 0-.79.44q-.98 1.28-2.54.46a1.6.76 38.7 0 0-.97-.23q-1.57.28-2.87 1.1a1.27.25-34.7 0 1-.91.4l-1.99-.3a.79.75-73.8 0 0-.82.48q-.56 1.33-2 .62a.65.47 19.9 0 0-.87.25q-.05.29-.24.5a1.09.41-49.7 0 1-.81.45q-2.99-.77-5.62.84a1.25.63 29 0 1-.96-.04q-.96-.38-1.44.41a1.55.78-69.7 0 1-.73.68q-1.01.32-2.01-.12" vector-effect="non-scaling-stroke"/><path stroke="#00c69c" d="M197.25 321.54q-3.28-.05-5.4 2.04a1.34 1.04-62.4 0 1-.85.39c-1.75.01-2.5-.77-4.21-.36-1.62.38-2.63 1.31-4.24.95a1.84 1.45 35.8 0 0-.96.04q-8.83 3.11-17.84.86" vector-effect="non-scaling-stroke"/><path stroke="#65ddff" d="M163.75 325.46q-6.07-1.55-11.75-4.17" vector-effect="non-scaling-stroke"/><path stroke="#00c69c" d="M152 321.29q-15.46-6.37-27.55-17.7" vector-effect="non-scaling-stroke"/><path stroke="#65ddff" d="m124.45 303.59-5.41-6.09" vector-effect="non-scaling-stroke"/><path stroke="#00c69c" d="M119.04 297.5c-2.08-3.05-4.92-5.78-6.65-8.75-2.86-4.89-2.4-11.91-3.51-17.59" vector-effect="non-scaling-stroke"/><path stroke="#65ddff" d="M108.88 271.16 106.96 260" vector-effect="non-scaling-stroke"/><path stroke="#00c69c" d="m106.96 260-3.09-10.04a.79.77-3.6 0 1 .89-.98q1.45.22 2.76 1.04 1.53.95 2.85-.9l3.13-4.41M113.5 244.71l.96.04M114.46 244.75q-.22 3.76 1.04 7.29" vector-effect="non-scaling-stroke"/><path stroke="#65ddff" d="M115.5 252.04c.22 1.81.94 3.18 1.02 4.99q.12 2.42.8 4.82" vector-effect="non-scaling-stroke"/><path stroke="#00c69c" d="M117.32 261.85c1.87 5.43 12.59 16.79 16.62 6.11q4.05-10.71 1.77-22.21" vector-effect="non-scaling-stroke"/><path stroke="#65ddff" d="M135.71 245.75q-2.54-5.44-2.71-11.46" vector-effect="non-scaling-stroke"/><path stroke="#00c69c" d="M133 234.29q1.98-1.22 2.01-3.51a1.2 1.04 72.6 0 1 .36-.83q.93-.81 1.85-1.65c1.34-1.23 3.37-1.67 4.34-4.16a.46.39 22.4 0 1 .58-.19l2.56 1.06" vector-effect="non-scaling-stroke"/><path stroke="#65ddff" d="M144.7 225.01q-.84 3.56.88 6.53a1.45 1.35-57 0 1 .16.92q-.41 2.55 1.34 3.73" vector-effect="non-scaling-stroke"/><path stroke="#00c69c" d="M147.08 236.19q1 1.4.27 2.91a1.34 1.06-46 0 0-.09.91q3.86 11.6 6.36 23.57.99 4.78 5.39 6.64a.72.71-57.4 0 0 .8-.18q2.1-2.29 3.47-5.99c4.78-12.93 9.37-23.42 11.51-35.65q1.07-6.08 2.2-12.16.53-2.86.54-3.47l.03-3.82" vector-effect="non-scaling-stroke"/><path stroke="#65ddff" d="M177.56 208.95q1.78-6.1 1.95-13.13" vector-effect="non-scaling-stroke"/><path stroke="#00c69c" d="M177.56 208.95q-3.82 4.01-8.52 6.8" vector-effect="non-scaling-stroke"/><path stroke="#65ddff" d="M169.04 215.75c.25-3.71 2.2-8.92 1.21-12.29" vector-effect="non-scaling-stroke"/><path stroke="#00c69c" d="m246.71 156.25-7.92 5.75" vector-effect="non-scaling-stroke"/><path stroke="#65ddff" d="M238.79 162q.02-1.07-.86-1.75a2.52 2.48-76.1 0 1-.94-1.58l-.99-5.96M169.04 215.75l-.83 1.75" vector-effect="non-scaling-stroke"/><path stroke="#ff7878" d="M168.21 217.5h-.45a1.32.87-56.8 0 0-.8.35q-4.98 4.47-10.35 8.42c-1.27.93-1.71 2.3-3.11 3.27" vector-effect="non-scaling-stroke"/><path stroke="#65ddff" d="m153.5 229.54-.21-.04M153.29 229.5l-2.33-10" vector-effect="non-scaling-stroke"/><path stroke="#00c69c" d="M108.88 271.16c-3.06 2.5-7.25 5.9-8.34 9.09" vector-effect="non-scaling-stroke"/><path stroke="#65ddff" d="m100.54 280.25-.29-.29M100.25 279.96l-.04-13.96" vector-effect="non-scaling-stroke"/><path stroke="#ff7878" d="m100.25 279.96-.37.04a1.21.91 13.1 0 0-.63.28c-7.9 7.91-15.64 15.62-23.13 24.14q-9.18 10.43-18.36 20.85-1.3 1.46-2.07 2a1.3.55-25.8 0 0-.56.64q-.42 1.64-1.85 2.36a1.95.91-69.9 0 0-.71.71L51.29 333" vector-effect="non-scaling-stroke"/><path stroke="#65ddff" d="M51.29 333q-.69-2.45.31-4.8a1.18.57-58.9 0 0 .08-.88l-.87-1.63a1.28.51-65.1 0 1 .05-.91q1.19-3.65 1.14-7.49M100.75 264.46l-.54 1.54" vector-effect="non-scaling-stroke"/><path stroke="#ff7878" d="M100.21 266c-2.05 1.73-6.11 7.08-8.21 7.71" vector-effect="non-scaling-stroke"/><path stroke="#00c69c" d="M135.71 245.75q-3.16 1.01-4.42 4" vector-effect="non-scaling-stroke"/><path stroke="#65ddff" d="M131.29 249.75q-1.51.31-1.67 2.04" vector-effect="non-scaling-stroke"/><path stroke="#00c69c" d="M129.62 251.79q-3.37 1.19-5.2 3.98-.28.43-.72.65-3.11 1.59-4.72 4.76-.25.5-1.66.67M51.01 333.72q-3.57 3.18-5.96 7.12a1.46.94-73.6 0 1-.71.61q-.4.11-.8.05" vector-effect="non-scaling-stroke"/><path stroke="#65ddff" d="m310.29 113.75-.04.46" vector-effect="non-scaling-stroke"/><path stroke="#ff7878" d="M310.25 114.21q-28.26 18.02-56.04 36.77-.75.5-1.4 1.13a1.66.97-59.7 0 1-.8.45q-1.95.3-3.01 1.93-.26.39-.74.67l-1.51.88" vector-effect="non-scaling-stroke"/><path stroke="#65ddff" d="M246.75 156.04q-2.44-3.9-2.71-8.54M244.04 147.5v-.5" vector-effect="non-scaling-stroke"/><path stroke="#00c69c" d="M318 108.46q-2.96 3.87-7.71 5.29" vector-effect="non-scaling-stroke"/><path stroke="#65ddff" d="m310.29 113.75-5.29-6.04M200.46 191.5l.04-.46M252.29 211l-.4.67" vector-effect="non-scaling-stroke"/><path stroke="#00c69c" d="M251.89 211.67q-4.7 1.27-8.24 5.08" vector-effect="non-scaling-stroke"/><path stroke="#65ddff" d="m243.65 216.75-.36-.25" vector-effect="non-scaling-stroke"/><path stroke="#00c69c" d="M243.29 216.5q-4.42-.94-8.13-3.45a1.21.43-19.5 0 0-.92 0q-2.03.53-3.43-1.15a1.12.33 1.1 0 0-.8-.25l-3.52-.31a1.66.67 48.2 0 1-.85-.42c-1.55-1.24-3.47-.9-4.84-1.23q-3.27-.8-6.54-1.59a.33.32 28.4 0 0-.32.09l-.13.13a.45.4-49 0 0 0 .64q1.43 1.06 1.56 2.85a1.11.34 25.5 0 0 .7.64q2.9 1.58 3.7 4.78a1.64.8 88.5 0 0 .43.83l5.09 4.4a1.53 1-17.6 0 0 .97.27q2.3-.13 3.78 1.52" vector-effect="non-scaling-stroke"/><path stroke="#65ddff" d="M230.04 224.25v.5" vector-effect="non-scaling-stroke"/><path stroke="#00c69c" d="M230.04 224.75q-.74 1.2-2.04 1.27-.52.02-.92.25l-7.75 4.46M219.33 230.73q-4.55 1.72-7.88 5.82M211.45 236.55q-9.37 5.09-18.2 11.24M193.25 247.79c-1.47-5.58-1-10.75-1.54-16.74-.2-2.23 3.23-7.69-2.46-6.6q-3.82.73-7.83.44a.63.61-2.2 0 1-.58-.52c-.8-6.36 8.99-4.84 12.63-5.26q7.85-.91 15.74.04a.27.17 5.3 0 0 .29-.15l.01-.25a1.1 1.09-66.9 0 0-.33-.83q-3.75-3.57-6.41-7.98c-1.25-2.06-2.68-3.08-4.35-4.67a1.71 1.54-15.4 0 0-.86-.43L186 202.71M186 202.71l3-3.17M189 199.54l4.44-.75a.63.56-6.5 0 0 .53-.6q-.02-.49-.26-.94M193.71 197.25c1.74-2.98 2.4-5.26 6.75-5.75M200.46 191.5q1.76 4.13 5.15 6.98c2.99 2.51 4.89 2.11 8.67 2.22q2.82.09 15.37 3.02.44.1.83.46 1.93 1.77 4.39 1.46a1.48 1.25-29.2 0 1 .92.18c1.41.88 2.79 2.28 4.37 2.41 3.19.27 1.61-2.99 1.48-4.36-1.06-11.22-1.58-23.14-3.85-34.13a1.76.99-50.5 0 1 .18-1q.55-1.13.05-2.25a1.25.75 55.4 0 1-.06-.94q.8-1.55.75-3.3M163.75 325.46l-2.75 4" vector-effect="non-scaling-stroke"/><path stroke="#65ddff" d="m161 329.46-.96.04M160.04 329.5q-5.69-2.44-11.79-3.54" vector-effect="non-scaling-stroke"/><path stroke="#00c69c" d="M147.08 236.19q1.94-4.41 6.21-6.69M153.5 229.54l5.89 19.9q.48 1.6 1.07.02 4.2-11.31 6.42-23.18c.52-2.78 2.36-5.16 1.33-8.78M124.45 303.59l-6.7 5.87" vector-effect="non-scaling-stroke"/><path stroke="#65ddff" d="M117.75 309.46h-.25M117.5 309.46l-6-6.75" vector-effect="non-scaling-stroke"/><path stroke="#00c69c" d="M255 249q-1.88-.29-2.38 1.5a1.39 1.14 86.7 0 1-.54.74q-3.82 2.31-6.44 5.9M255.71 289.75q-4.33.24-7.85 2.81" vector-effect="non-scaling-stroke"/><path stroke="#65ddff" d="m180.79 333-4.29.79" vector-effect="non-scaling-stroke"/><path stroke="#00c69c" d="m176.5 333.79-1.69.1q-.53.03-.95-.15-6.23-2.77-12.86-4.28M152 321.29q-1.28 2.8-3.75 4.67" vector-effect="non-scaling-stroke"/><path stroke="#65ddff" d="m148.25 325.96-.25.08" vector-effect="non-scaling-stroke"/><path stroke="#00c69c" d="M148 326.04q-16.75-5.35-30.25-16.58M186.25 354.86l-2.29-13.11" vector-effect="non-scaling-stroke"/><path stroke="#65ddff" d="m183.96 341.75.08-.25" vector-effect="non-scaling-stroke"/><path stroke="#00c69c" d="M228.25 315.96q-1.1 1.27-2.81 1.66a1.78 1.53 11.4 0 0-.84.47c-2.3 2.45-5.5 2.08-7.26 4.33a1.39.84-63.3 0 1-.86.54q-1.63.09-2.51 1.51a1.15.59 11 0 1-.98.28q-1.72-.16-2.01 1.49a1.14.83-16.7 0 1-.51.67l-4.43 2.64a1.37.79 29.3 0 1-1.04.01q-1.73-.58-2.01.9a1.27.17-80.2 0 1-.31 1q-1.19 1.17-2.93.74a1.36.47-35.6 0 0-.91.27c-2.71 1.49-2.98 4.15-6.32 4.24a1.41 1.2 18.7 0 0-.86.34q-3.27 3.19-7.62 4.45" vector-effect="non-scaling-stroke"/><path stroke="#65ddff" d="M184.04 341.5q-.9-2.18-1.36-4.49c-.31-1.53.7-3.41-1.89-4.01" vector-effect="non-scaling-stroke"/><path stroke="#00c69c" d="M180.79 333q.45-3.34 3.78-3.01a1.15 1.09 26 0 0 .89-.28l4.11-3.63a1.3 1.09 24.6 0 1 .95-.26c2.14.27 5.29-2.85 6.73-4.28M129.62 251.79q-1.85 3.26.9 2.54a.75.69-6.5 0 0 .55-.64l.22-3.94" vector-effect="non-scaling-stroke"/><path stroke="#65ddff" d="M214.75 242.29c-4.45 1.18-10.68 3.74-12.91 8" vector-effect="non-scaling-stroke"/><path stroke="#00c69c" d="m255.54 325-.05.71a.98.96-12.8 0 1-.52.8l-3.2 1.74a2.12.92-71.1 0 0-.73.8l-2.49 4.26a.78.6 19.9 0 1-.8.26q-.65-.17-.96-.06M253.71 238c-3.18.47-6.31 3.44-8.92 5.25M244.79 243.25q-1.69-2.45-.62-5.35a.73.64-64.5 0 0-.24-.84q-4.77-2.99-10.18-4.58-1.22-.36-.35.59L243.54 244M243.54 244q-.98 1.08-1.45 2.45a.93.88-85.9 0 1-.64.59q-2.56.61-4.7 2.25M194.85 255.04l6.99-4.75M201.84 250.29q.42 3.87 2.57 6.34a.37.36-50.8 0 0 .59-.07q4.39-7.46 9.75-14.27M214.75 242.29l7.05-5.9M221.8 236.39q3.14 4.84 1.56-.14M223.36 236.25l13.64-8.54" vector-effect="non-scaling-stroke"/><path stroke="#65ddff" d="m237 227.71.46.04" vector-effect="non-scaling-stroke"/><path stroke="#00c69c" d="m237.46 227.75 1.36 1.77q.39.5.69.65c.8.39 3.99 3.69 4.13 3.5a1.05.56 61.2 0 0-.01-.86q-.6-1.59-.07-3.3.15-.47.04-.99l-.89-4.27" vector-effect="non-scaling-stroke"/><path stroke="#65ddff" d="m242.71 224.25.54-.79" vector-effect="non-scaling-stroke"/><path stroke="#00c69c" d="m119.04 297.5-6.5 4.16q-.43.28-.8.31l-.45.03M111.29 302c-6.44-5.53-11.22-13-10.75-21.75M256.46 301.25q-.2 0-.39-.08a1.05.63 34.1 0 0-.72-.04l-4.92 2.28q-.44.2-.78.67-.89 1.28-2.61.92" vector-effect="non-scaling-stroke"/><path stroke="#ff7878" d="M339 160.96q-44.06 23.8-86.71 50.04" vector-effect="non-scaling-stroke"/><path stroke="#00c69c" d="M252.29 211q-.81-7.85-1.02-15.75-.03-1.05-1.16-2.91a1.44 1.31 35.5 0 1-.2-.92q.99-6.68-.67-10.44-1.2-2.75-.62-4.73.17-.58.13-1l-.51-6q-.01-.09-.41-.82-.48-.87-1.28-1.48a1.03.49-69.9 0 1-.09-.96l.82-2.73a1.41.77 49.2 0 0-.21-.97q-1.63-2.87-.36-6.04" vector-effect="non-scaling-stroke"/><path stroke="#65ddff" d="m246.71 156.25.04-.21M111.29 302l.21.71" vector-effect="non-scaling-stroke"/><path stroke="#ff7878" d="M111.5 302.71q-28.56 21.43-55.75 44.59c-1.55 1.32-2.61 3.38-5.29 4.2" vector-effect="non-scaling-stroke"/><path stroke="#00c69c" d="M50.46 351.5c-.23-.16 1.16-5.28 1.15-6q-.01-5.88-.6-11.78" vector-effect="non-scaling-stroke"/><path stroke="#65ddff" d="M51.01 333.72q.2-.27.28-.72" vector-effect="non-scaling-stroke"/><path stroke="#00c69c" d="m50.54 352-8.33 7.5M345.96 157.25l-6.5 3.75" vector-effect="non-scaling-stroke"/><path stroke="#65ddff" d="m339.46 161-.46-.04" vector-effect="non-scaling-stroke"/><path stroke="#00c69c" d="M339 160.96c-4.17-5.8-9.04-11.29-11.99-17.82q-7.57-16.73-11.26-23.39-1.25-2.27-5.5-5.54" vector-effect="non-scaling-stroke"/><path stroke="#ff7878" d="M342 167.96q-35.27 19.16-79.31 44.48-3.57 2.05-5.23 3.31" vector-effect="non-scaling-stroke"/><path stroke="#65ddff" d="m257.46 215.75-.71.04M256.75 215.79q-3.05-1.55-4.86-4.12" vector-effect="non-scaling-stroke"/><path stroke="#00c69c" d="m256.75 215.79-4.82 3.19q-.39.26-.9.32c-1.54.17-2.26 1.53-3.13 2.04q-2.21 1.3-4.65 2.12" vector-effect="non-scaling-stroke"/><path stroke="#65ddff" d="m243.25 223.46.4-6.71" vector-effect="non-scaling-stroke"/><path stroke="#ff7878" d="M242.71 224.25q-1.38.13-2.01 1.3-.16.3-.67.61l-2.57 1.59" vector-effect="non-scaling-stroke"/><path stroke="#65ddff" d="M237 227.71q-2.02-.42-3.42-1.84a1.77 1.36-8.8 0 0-.82-.45l-2.72-.67" vector-effect="non-scaling-stroke"/><path stroke="#ff7878" d="m243.29 216.5-4.34 2.08a1.46.74-15.3 0 0-.72.65q-.58 1.52-2.22 1.27a1.37.59-42.7 0 0-.89.31l-5.08 3.44" vector-effect="non-scaling-stroke"/><path stroke="#65ddff" d="M221.8 236.39q-5.11-.93-10.35.16M223.36 236.25q-.91-3.58-4.03-5.52" vector-effect="non-scaling-stroke"/><path stroke="#ff7878" d="M176.5 333.79q-.33 1.42-1.04 1.67-6.93 2.52-12.09 7.7a1.19 1.15 21.4 0 1-.84.35l-1.99-.01" vector-effect="non-scaling-stroke"/><path stroke="#00c69c" d="M160.54 343.5q.59-4.8-3.27-5.1-1.84-.15-3.13 1.17-6.24 6.33-9.6 13.93" vector-effect="non-scaling-stroke"/><path stroke="#65ddff" d="m144.54 353.5-.83 1.25" vector-effect="non-scaling-stroke"/><path stroke="#ff7878" d="M143.71 354.75q-6.54 4.48-13.13 8.89c-3.03 2.02-6.35 4.92-9.79 7.11" vector-effect="non-scaling-stroke"/><path stroke="#00c69c" d="m120.79 370.75-.75-1.25" vector-effect="non-scaling-stroke"/><path stroke="#65ddff" d="m120.04 369.5.13-1.58" vector-effect="non-scaling-stroke"/><path stroke="#ff7878" d="M160.04 329.5c-2.59 2.96-6.12 5.4-8.54 7.86q-15.32 15.59-31.33 30.56" vector-effect="non-scaling-stroke"/><path stroke="#65ddff" d="M120.17 367.92q-2.22-4.22-3.37-8.55M116.8 359.37l-.05-1.08" vector-effect="non-scaling-stroke"/><path stroke="#ff7878" d="M148 326.04c-9.44 10.23-18.31 17.51-29.63 29.42-.82.86-.92 1.86-1.62 2.83" vector-effect="non-scaling-stroke"/><path stroke="#00c69c" d="M116.75 358.29q-5.78-14-11.96-27.84-1.07-2.41-3.11-3.4a1.15.92-39.1 0 0-.89.01l-10.69 4.48" vector-effect="non-scaling-stroke"/><path stroke="#ff7878" d="M117.5 309.46q-14.4 10.17-27.4 22.08" vector-effect="non-scaling-stroke"/><path stroke="#65ddff" d="M90.1 331.54q-20.72 15.19-30.29 24.77-6.7 6.72-10.27 9.44" vector-effect="non-scaling-stroke"/><path stroke="#65ddff" d="M49.54 365.75q1.19-6.83 1-13.75M50.54 352l-.08-.5M347.04 184l-.04.71" vector-effect="non-scaling-stroke"/><path stroke="#ff7878" d="m347 184.71-3.84 1.4a.8.78 89.4 0 0-.48.5c-.2.65-.07.58-.64.96q-37.79 25.08-74.59 51.62-2.45 1.77-4.66 3.95a.92.44-49 0 1-.79.34q-1.61-.72-1.75 1.03a1.16.63-28.3 0 1-.46.7L255 249" vector-effect="non-scaling-stroke"/><path stroke="#65ddff" d="m255 249-1.29-11M253.71 238l.33-1" vector-effect="non-scaling-stroke"/><path stroke="#ff7878" d="m359 237-10.29 4.48a1.72 1.62-84.4 0 0-.71.62c-.89 1.39-2.64 1.22-3.68 1.68q-38.59 17.28-75.66 37.63c-.97.53-1.45 1.57-2.96 1.37a1.09.95 23.4 0 0-.88.28q-2.27 2.32-5.37 3.14a1.28 1.25-82.8 0 0-.77.61q-.69 1.28-2.18 1.15" vector-effect="non-scaling-stroke"/><path stroke="#00c69c" d="M256.5 287.96c.4-2.24-.83-3.65-.94-5.53-.18-2.86.7-5.29.63-7.85q-.28-10.18-.96-20.39c-.1-1.61-.89-3.11-.23-5.19" vector-effect="non-scaling-stroke"/><path stroke="#65ddff" d="m244.79 243.25-1.25.75" vector-effect="non-scaling-stroke"/><path stroke="#ff7878" d="M359.25 275.71q-1.2.08-1.84.43-23.7 12.84-45.83 28.15" vector-effect="non-scaling-stroke"/><path stroke="#65ddff" d="M311.58 304.29q-1.48 1.89-3.56 3.04" vector-effect="non-scaling-stroke"/><path stroke="#ff7878" d="M308.02 307.33q-19.49 14.07-38 29.57c-1.66 1.39-3.69 2.65-5.5 3.91-1.6 1.12-3.37 1.48-4.55 3.74q-.16.31-.68.64l-4.04 2.6" vector-effect="non-scaling-stroke"/><path stroke="#65ddff" d="M255.25 347.79q-.97-4.52 0-9.04.48-2.24.5-13.71" vector-effect="non-scaling-stroke"/><path stroke="#ff7878" d="m255.75 325.04 3.46-1.29a1.6.49-14.1 0 0 .8-.48c4.71-6.09 11.22-9.84 16.18-14.01q26.83-22.57 55.8-42.35.36-.25.92-.32c1.77-.21 2.2-1.67 3.16-2.43q4.64-3.61 9.55-6.85c1.45-.96-.43-.48-.51-.43-3.14 2-7.46 3.41-9.81 4.5q-17.46 8.08-34.92 16.15c-8.06 3.73-16.25 8.22-24.39 12.34a1.21.11-27.4 0 1-1 .41q-2.08-.43-2.7 1.5a.84.67 8.7 0 1-.8.46q-1.52-.07-2.24 1.26a1.27 1.17-81.6 0 1-.76.61q-2.31.57-4.3 1.83c-2.49 1.57-5.13 1.97-7.4 4.06" vector-effect="non-scaling-stroke"/><path stroke="#65ddff" d="M256.79 300q-1.02-1.74-.51-3.59.13-.46.07-.97l-.64-5.69M255.71 289.75l.79-1.79" vector-effect="non-scaling-stroke"/><path stroke="#ff7878" d="M183.96 341.75q-4.99 3.44-10.25 6.54c-1.3.76-2.76.5-3.72 1.99a1.52.98-73.3 0 1-.67.57q-.88.28-1.83.13a.78.44-70.7 0 0-.59.52q-1.37 3.24-5.45 2.81" vector-effect="non-scaling-stroke"/><path stroke="#65ddff" d="M161.45 354.31q.24-5.13-.99-10.56M160.46 343.75l.08-.25" vector-effect="non-scaling-stroke"/><path stroke="#00c69c" d="M181.44 364.5q-7.75 5.59-13.32 13.98-2.24 3.39-3.83-.35c-2.65-6.2-1.88-16.46-2.83-23.38" vector-effect="non-scaling-stroke"/><path stroke="#65ddff" d="m161.46 354.75-.01-.44M255.75 325.04l-.21-.04" vector-effect="non-scaling-stroke"/><path stroke="#00c69c" d="M255.54 325c.19-3.61.94-8.24.32-11.75-.27-1.51.38-3.55.42-4.56q.16-3.73.18-7.44" vector-effect="non-scaling-stroke"/><path stroke="#65ddff" d="m256.46 301.25.33-1.25" vector-effect="non-scaling-stroke"/><path stroke="#ff7878" d="M344.25 173.96q-2.28 1.98-7.52 5.29-16.43 10.38-38.33 25.59c-8.02 5.57-22.54 15.27-33.45 23.46-1.05.79-1.45 2.17-3.15 2.43q-.39.06-.89.42l-4.8 3.49q-.27.19-.69.7l-1.38 1.66" vector-effect="non-scaling-stroke"/><path stroke="#00c69c" d="M254.04 237c-1.13-2.5-.09-4.51-1.09-6.79a1.79 1.19 48.1 0 1-.13-.89q.73-3.78.18-7.57a.8.69 4.5 0 1 1-.73l14.04 3.6q.55.15.08-.33-4.84-4.87-10.66-8.54M349.04 163.75q-2.92 2.85-6.83 4.25" vector-effect="non-scaling-stroke"/><path stroke="#65ddff" d="m342.21 168-.21-.04M342 167.96l-2.54-6.96" vector-effect="non-scaling-stroke"/><path stroke="#00c69c" d="M160.46 343.75q-2.46 1.43-3.83 3.97a.86.85-75.9 0 1-.73.44c-3.65.03-7.56 3.41-10.37 5.56a.76.47-42.7 0 1-.72.14q-.18-.12-.27-.36M161.46 354.75q-1.67.2-2.11 1.78a1.53.99 89.6 0 1-.49.77q-1.39 1-3.19 1.33M147 364.54l-10.23 7.22" vector-effect="non-scaling-stroke"/><path stroke="#65ddff" d="M136.77 371.76c1.1-6.14 5.01-11.03 6.94-17.01M136.77 371.76l-1.31 1.49" vector-effect="non-scaling-stroke"/><path stroke="#ff7878" d="M135.46 373.25q-3.08.73-4.95 3.39a1.01.72-65.7 0 1-.76.44q-2.57-.19-3.12 2.25a.97.52-.7 0 1-.83.46q-1.6.12-2.51 1.21" vector-effect="non-scaling-stroke"/><path stroke="#65ddff" d="M123.29 381q-1.16-2.74-1.28-5.75-.01-.23-.32-.89l-1.23-2.61M120.46 371.75l.33-1" vector-effect="non-scaling-stroke"/><path stroke="#00c69c" d="M120.04 369.5q-1.51.48-1.86 1.82a1.73.83-29.2 0 1-.52.74l-1.87 1.66q-.84.74.18.24l4.49-2.21" vector-effect="non-scaling-stroke"/><path stroke="#65ddff" d="M123.29 381q.03.49-.18 1.02" vector-effect="non-scaling-stroke"/><path stroke="#00c69c" d="M123.11 382.02q-2.97 2.63-6.66 4.51a.47.45-23.2 0 1-.65-.24l-.26-.79M116.8 359.37l-6.42 4.08M41.64 372.4l7.9-6.65M354.54 179.5q-3.4 2.84-7.5 4.5" vector-effect="non-scaling-stroke"/><path stroke="#65ddff" d="m347.04 184-2.58-10" vector-effect="non-scaling-stroke"/><path stroke="#00c69c" d="M362.75 235.92q-2.17.2-3.75 1.08M359 237q.25-2.33-1.47-3.93a.83.5 40.7 0 1-.28-.85q1.12-1.75-.71-2.73a1.4.46 76.8 0 1-.53-.87q-1.18-3.6.05-6.97c1.28-3.47-.64-4.91-1.14-7.84-.6-3.41-2.37-5.78-2.27-9.01a1.37.96 32.2 0 0-.36-.86q-.72-.81-.53-1.95.15-.9.11-1.02-2.71-7.72-4.34-15.73a.68.51 15.8 0 0-.28-.37l-.25-.16M351.71 169.75l-7.25 4.25" vector-effect="non-scaling-stroke"/><path stroke="#65ddff" d="m344.46 174-.21-.04" vector-effect="non-scaling-stroke"/><path stroke="#00c69c" d="m344.25 173.96-2.04-5.96M371.5 269.46q-6.3 2.6-12 6.33" vector-effect="non-scaling-stroke"/><path stroke="#65ddff" d="m359.5 275.79-.25-.08M359.25 275.71l.18-.27a1.09.86-32.6 0 0 .2-.58c-.16-12.59-1.24-25.29-.63-37.86M255.23 349.53l.02-1.74M355.25 305.71l-.29.79" vector-effect="non-scaling-stroke"/><path stroke="#ff7878" d="M354.96 306.5q-18.61 17.88-36.03 36.92c-6.29 6.87-13.71 14.53-19.85 22.66q-.42.56-1.08.71" vector-effect="non-scaling-stroke"/><path stroke="#65ddff" d="m298 366.79-.71-.79" vector-effect="non-scaling-stroke"/><path stroke="#00c69c" d="m297.29 366 .99-31.76a3.94 3.86 64.7 0 1 .79-2.27c6.33-8.39 12.38-17.61 12.51-27.68M297.29 366q-2.3 4.95-6.49 8.55M245.29 352.5c3.19 1.15 6.27-1.57 9.11-3.84q.81-.65.83.87" vector-effect="non-scaling-stroke"/><path stroke="#00c69c" d="m255.23 349.53-2.96 17.27q-.17 1.01.65.39 7.29-5.55 13.8-11.96 22.58-22.25 41.3-47.9M123.11 382.02l2.57 11.81q.51 2.33 1.52.14 4.56-9.9 8.26-20.72M381.25 283.71q-2.83 2.52-6.5 3.33M369.75 282.04q.79-1.72-.5-2.51-.54-.33-.47.27l.26 2.2M366.59 296.55q-5.84 3.11-9.66 8.63-.67.97-1.68.53" vector-effect="non-scaling-stroke"/><path stroke="#00c69c" d="M355.25 305.71q1.11-5.27 1.62-6.46 1.34-3.18 1.64-7.99l.99-15.47M363.35 315.22q-1.7.68-2.45 2.29a1.71 1.27-85 0 1-.62.7c-2.04 1.15-3.37 1.82-4.8 3.93q-1.53 2.25-3.94 3.61" vector-effect="non-scaling-stroke"/><path stroke="#65ddff" d="M351.54 325.75q1.44-8.21 3.4-16.31.19-.8.02-2.94M351.54 325.75l-1.17 2.63" vector-effect="non-scaling-stroke"/><path stroke="#ff7878" d="M350.37 328.38q-9.72 6.33-16.78 15.26" vector-effect="non-scaling-stroke"/><path stroke="#65ddff" d="m333.59 343.64-4.17 3.81" vector-effect="non-scaling-stroke"/><path stroke="#ff7878" d="M329.42 347.45q-16.49 16.5-32.13 33.8" vector-effect="non-scaling-stroke"/><path stroke="#65ddff" d="M297.29 381.25q-.17-7.25.71-14.46" vector-effect="non-scaling-stroke"/><path stroke="#00c69c" d="M390.75 291.04q-2.49 2.97-6 4.5M329 361.96l.61-3.16q.11-.55-.32-.2-1.66 1.32-1.25 3.65M289.86 389.16l7.1-6.66M296.96 382.5c.87 1.97-.74 10.4-.99 13.01q-.09.87.57.29 2.13-1.9 3.75-4.22c9.04-12.87 17.49-26.11 27.65-38.14q1.62-1.92 1.48-5.99M333.59 343.64q4.09 3.21 4.46 8.61.8 11.65 2.04 23.27c.05.52.68 1.34.93.29q5.54-23.42 9.35-47.43" vector-effect="non-scaling-stroke"/><path stroke="#65ddff" d="m296.96 382.5.33-1.25" vector-effect="non-scaling-stroke"/><path stroke="#00c69c" d="M204.74 226.89c3.99-1.04-1.79-2.65-.73-.32a.65.59-18.3 0 0 .73.32M200.13 239.6l4.79-6.42q.43-.57-.22-.27l-4.83 2.25a1.02.59 83.2 0 0-.36.84l-.02 3.5q-.01.97.64.1" vector-effect="non-scaling-stroke"/><path stroke="#65ddff" d="M205.5 281.71q-.43-1.34-1.69-1.23a.66.6-.7 0 0-.61.57q-.04.62.55.99M203.75 282.04l1.73 5.48" vector-effect="non-scaling-stroke"/><path stroke="#00c69c" d="M205.48 287.52c.88 3.74 5.58 6.05 7.18 1.45a1.3.76-58.9 0 0 .01-.9q-.55-1.08.39-1.75a.94.87 69 0 0 .35-.87l-.41-3.24" vector-effect="non-scaling-stroke"/><path stroke="#65ddff" d="M213 282.21q.38-.98.14-1.99a.77.61 70.2 0 1 .26-.77q.79-.46 1.85-.24M215.25 279.21l.29.79" vector-effect="non-scaling-stroke"/><path stroke="#00c69c" d="M215.54 280c-.36 2.49 3.55 5.47 5.19 7.11a.96.36 48 0 0 .78.4q1.31-.52 2.48.25a.75.53-58.1 0 0 .86-.36q2.22-3.67 3-7.88.18-.99.94-.31l2.77 2.49q1.89 1.7 1.25-1.21-.9-4.06-5.06-4.3a1.24 1.2 23.6 0 0-.96.36q-2.39 2.4-3.33 5.7a1.15 1.1 30.7 0 1-1.88.44l-4.08-3.98" vector-effect="non-scaling-stroke"/><path stroke="#65ddff" d="m217.5 278.71-.96-.96M216.54 277.75l-2.47-1.68a.8.73-44.5 0 0-.85.03q-2.02 1.38-3.51 3.36c-1.06 1.41-.46 5.7-4.21 2.25" vector-effect="non-scaling-stroke"/><path stroke="#82e1ed" d="m216.54 277.75-1.29 1.46" vector-effect="non-scaling-stroke"/><path stroke="#00c69c" d="m213 282.21-7.52 5.31" vector-effect="non-scaling-stroke"/><path stroke="#82e1ed" d="m203.75 282.04 1.75-.33" vector-effect="non-scaling-stroke"/><path stroke="#00c69c" d="m215.54 280 1.96-1.29M132.19 282.31c3.97 2.97 6.73 1.78 9.42-1.53q2.18-2.68-2.44-3.74a1.83 1.6-44.7 0 0-.96.06c-1.56.55-10.99 1.5-6.02 5.21M115.49 281.96l-1.73-.46a.45.4-83.9 0 0-.5.46c0 1.93 2.2 9.33 5.27 6.19a1.34.5 85 0 0 .25-.9l.17-5.25q.03-.9.68-.16l4.2 4.81q1.52 1.74 2.28-.48c1.22-3.62-8.75-13.34-10.11-4.48a.41.35 12.9 0 1-.51.27" vector-effect="non-scaling-stroke"/><path stroke="#65ddff" d="m167.5 304.17 4.79 5.06q1.46 1.55 2.01-.69.64-2.59-2.3-4.33" vector-effect="non-scaling-stroke"/><path stroke="#00c69c" d="M172 304.21c-2.96-4.86-9.75-3.6-13.36-.32-1.22 1.12-.09 2.35 1.45 1.61q3.62-1.72 7.41-1.33" vector-effect="non-scaling-stroke"/><path stroke="#00c69c" d="M172 304.21q-2.09 1.56-4.5-.04M129.44 221.16a.96.92-30.5 0 0 1.56.37q1.67-1.59 3.1-3.5c1.62-2.17 2.05-5.09 3.51-7.59q.79-1.34-.64-.69l-9.09 4.08a.74.67 70.3 0 0-.35.85l1.91 6.48M140.91 218.76c-1.99 1.39-1.11 2.4.43 3.42q.56.37.46-.19l-.53-2.91a.35.22 73.2 0 0-.36-.32M119.76 223.76q.12-1.12-.84-1.69a1.22.48 85.1 0 1-.41-.82q-.14-.7.16-1.32a.74.74-55.1 0 0-.15-.85c-.35-.34-5.89 2.9-6.17 3.05-4.81 2.61-7.45 4.96-7.9 10.34q-.31 3.68-.67 5.02c-.67 2.48-2.13 7.29-1.1 7.65a.47.38-79.3 0 0 .52-.44c.27-2.97 3.57-5.8 4.94-8.38 1.73-3.25 4.25-5.07 6.7-7.55a1.66 1.43 15 0 1 .85-.41c1.77-.29 4.72-1.34 4-3.64q-.02-.07.07-.96M218.34 252.9c3.71 1.56 3.28-5.78 3.18-7.69q-.03-.72-.47-.15l-5.32 6.91q-.32.41.26.48c1 .1 1.34.02 2.35.45" vector-effect="non-scaling-stroke"/><path stroke="#65ddff" d="M123.73 246.61c-2.17-.6-.39 6.71.4.7a.67.56-79.5 0 0-.4-.7" vector-effect="non-scaling-stroke"/><path stroke="#00c69c" d="M129.36 259.12c-2.35.14-2.98 3.47-.76 4.69a.64.39-58 0 0 .65-.33q1.09-1.67.71-3.71a.78.53 81.4 0 0-.6-.65" vector-effect="non-scaling-stroke"/></g><g fill="#ff7878"><path d="m284.75 93.04.04.46q-.34.55-.61.68c-19.71 9.82-38.91 20.53-58.87 29.89q-17.68 8.29-35.09 17.13-.93.47-2.44 2.13a1.24.94-63.3 0 1-.84.41q-.59 0-1.15-.24l-.33-.5q.06-4.19-1.01-5.69c-3.74-5.25-6.93-1.37-7.22 2.81q-.23 3.31.56 6.63l-.08.5-3.3 2.02q-.67.41-.93.43-2.12.2-2.72 2.28a.6.53 18.5 0 1-.76.32q-2.62-.96-4.17 1.3a.92.84-67.9 0 1-.84.4q-2.16-.29-2.37 1.84a.8.41-14.8 0 1-.55.49q-1.28.45-2.58.24a1.72.74 19.1 0 0-1.07.08q-1.64.93-2.33 2.68a1.42.51-75.4 0 1-.52.76q-1.18.66-2.57.37a1.28.3-30.4 0 0-.9.28q-13.08 6.65-25.82 13.92c-1.04.59-1.75 2.01-3.53 1.8q.99-1.21.82-2.47-1.08-7.94-.36-14.99a.93.88-69.1 0 0-.34-.81q-2.82-2.23-6.27-1.39c-4.06.98-3.93 5.9-5.35 8.76-1.51 3.04-3.19 6.42-2.83 9.92a1.85 1.65 58.3 0 1-.17.96q-2.34 4.61-3 9.77l-.29.29q-8.34 5.26-17.02 9.95c-2.28 1.23-4.43 3.79-7.39 4.66-4.43 1.29-8.37 4.5-12.51 6.64-.49-2.89 1.29-4.64 1.86-6.74q1.21-4.46 3.41-11.26.28-.87.38-.99l.4-.5q.44-.56.48-.74.71-3.53 2.62-6.55a1.95 1.6-33.6 0 0 .3-.97v-.75a1.33.71-35.1 0 1 .4-.79q.94-1.02.82-2.46l.58-1.25q1.22-.24 1.74-1.34.16-.32.64-.75 1.2-1.07 2.78-1.46a1.38.69-70.2 0 0 .72-.69q.97-1.75 2.51-3.08c9.28-8.03 18.23-16.53 27.61-24.39q38.05-31.88 57.21-47.03a1.32 1.21 20.8 0 1 .65-.26l.35-.04c4.11 4.93 8.54 8.29 14.93 7.92q.55-.04.06-.34-6.39-4-9.28-10.92a.68.57-2.8 0 0-.48-.36q-.24-.05-.27-.26l.08-.5c1.44-2.13 3.5-1.33 4.53-3.8a1.68 1.31-9.7 0 1 .62-.68l7.85-4.77 2.25-1q9.35-2.36 25.47-4.43 2.42-.31 4.2-.17c4.16.35 7.78-.15 11.82 1.12 1.79.56 2.98-.32 4.63.16q2.48.71 5.1.79a1.77.83 47.8 0 1 .91.38q2.06 1.5 4.57.63a1.47.34 17.7 0 1 1.01.08q17.62 4.3 33.25 13.48ZM158.46 88c-2.68 2.95-6.78 5.71-9.02 7.56q-24.93 20.55-49.52 41.59 7.28-12.78 11.9-19.08c10.59-14.41 30.55-25.02 46.64-30.07ZM294.79 100l.71.04q4.75 3.46 8.79 7.71-30.57 18.94-60.25 39.25-1.88-8.98-5.79-17.29l.29-.96q27.06-14.11 54.52-27.44.72-.35 1.73-1.31ZM310.25 114.21q4.25 3.27 5.5 5.54 3.69 6.66 11.26 23.39c2.95 6.53 7.82 12.02 11.99 17.82q-44.06 23.8-86.71 50.04-.81-7.85-1.02-15.75-.03-1.05-1.16-2.91a1.44 1.31 35.5 0 1-.2-.92q.99-6.68-.67-10.44-1.2-2.75-.62-4.73.17-.58.13-1l-.51-6q-.01-.09-.41-.82-.48-.87-1.28-1.48a1.03.49-69.9 0 1-.09-.96l.82-2.73a1.41.77 49.2 0 0-.21-.97q-1.63-2.87-.36-6.04l.04-.21 1.51-.88q.48-.28.74-.67 1.06-1.63 3.01-1.93a1.66.97-59.7 0 0 .8-.45q.65-.63 1.4-1.13 27.78-18.75 56.04-36.77ZM232 132.71q.99 8.17 3.42 16.01a1.73 1.04 22.2 0 0 .56.75q1.25 1 .31 2.53l-.29.71c-5.33 3.08-11.29 8.11-14.77 10.68-6.49 4.79-12.57 10.08-19.24 14.69q-3.5 2.43-6.76 4.98-4.89-6.94-10.63-12.71a1.25 1.23-68.4 0 1-.36-.85q-.08-6.16 1.05-12.25l.25-.5q4.08-2.06 7.96-4.49c3.05-1.9 6.71-2.56 9.83-4.75q2.51-1.77 4.39-2.49 7.94-3.06 11.54-5.77 1.88-1.4 3.53-2.11c3.42-1.47 5.91-3.28 9.21-4.43ZM176.44 161.18c-1.32 14.07-2.28 27.73-5.69 41.53l-.5.75q-4.03 2.51-7.28 6.04-1.94 2.11-3.63 3.09-4.37 2.54-7.67 6.33a.51.15 4 0 1-.38.08h-.25c-2.35-3.58-2.93-8.65-4.23-12.84a.79.49 72.3 0 1 .23-.9l5.22-1.76q.48-.16-.03-.25-2.98-.54-6 .05a1.12 1.01 56.4 0 1-.86-.22c-1.86-1.46-14.64 3.13-18.19 4.48a.42.41 74.7 0 1-.55-.32c-1.03-5.49-1.32-10.78-2.67-16.24l.33-1.5 52.15-28.32ZM238.71 162.25q.05 1.75-.75 3.3a1.25.75 55.4 0 0 .06.94q.5 1.12-.05 2.25a1.76.99-50.5 0 0-.18 1c2.27 10.99 2.79 22.91 3.85 34.13.13 1.37 1.71 4.63-1.48 4.36-1.58-.13-2.96-1.53-4.37-2.41a1.48 1.25-29.2 0 0-.92-.18q-2.46.31-4.39-1.46-.39-.36-.83-.46-12.55-2.93-15.37-3.02c-3.78-.11-5.68.29-8.67-2.22q-3.39-2.85-5.15-6.98l.04-.46q18.55-15.13 38.21-28.79ZM342 167.96l.21.04 2.04 5.96q-2.28 1.98-7.52 5.29-16.43 10.38-38.33 25.59c-8.02 5.57-22.54 15.27-33.45 23.46-1.05.79-1.45 2.17-3.15 2.43q-.39.06-.89.42l-4.8 3.49q-.27.19-.69.7l-1.38 1.66c-1.13-2.5-.09-4.51-1.09-6.79a1.79 1.19 48.1 0 1-.13-.89q.73-3.78.18-7.57a.8.69 4.5 0 1 1-.73l14.04 3.6q.55.15.08-.33-4.84-4.87-10.66-8.54 1.66-1.26 5.23-3.31 44.04-25.32 79.31-44.48ZM347 184.71l.25.16a.68.51 15.8 0 1 .28.37q1.63 8.01 4.34 15.73.04.12-.11 1.02-.19 1.14.53 1.95a1.37.96 32.2 0 1 .36.86c-.1 3.23 1.67 5.6 2.27 9.01.5 2.93 2.42 4.37 1.14 7.84q-1.23 3.37-.05 6.97a1.4.46 76.8 0 0 .53.87q1.83.98.71 2.73a.83.5 40.7 0 0 .28.85q1.72 1.6 1.47 3.93l-10.29 4.48a1.72 1.62-84.4 0 0-.71.62c-.89 1.39-2.64 1.22-3.68 1.68q-38.59 17.28-75.66 37.63c-.97.53-1.45 1.57-2.96 1.37a1.09.95 23.4 0 0-.88.28q-2.27 2.32-5.37 3.14a1.28 1.25-82.8 0 0-.77.61q-.69 1.28-2.18 1.15c.4-2.24-.83-3.65-.94-5.53-.18-2.86.7-5.29.63-7.85q-.28-10.18-.96-20.39c-.1-1.61-.89-3.11-.23-5.19l4.79-3.79a1.16.63-28.3 0 0 .46-.7q.14-1.75 1.75-1.03a.92.44-49 0 0 .79-.34q2.21-2.18 4.66-3.95 36.8-26.54 74.59-51.62c.57-.38.44-.31.64-.96a.8.78 89.4 0 1 .48-.5l3.84-1.4ZM99.96 203.25l.25.75q-2.69 10.32-2.97 13.25c-.52 5.39-.65 8.13-3.44 12.88q-2.33 3.98-4.84 7.85-1.29 1.99.77 1.01 2.08-1 3.57-2.68.43-.49.43.23.02 6.2-1.25 12.21-2.64 12.51-1.16 25.39C78.53 288.78 64.6 302.58 52 317.29l-.46-.54q.85-9.54 1.35-19.1c.08-1.62-.46-3.12.57-5.02q.17-.33.16-.88l-.08-4.75q0-.19.39-.99.63-1.25-.47-2.47a.53.53-45.4 0 1 0-.71c3.64-4.17-1.23-7.75 2.15-10.49a1.27 1.03-21.4 0 0 .47-.83l.39-5.69a1.49.54 86.6 0 1 .26-.87q1.63-1.97.75-4.44a1 .59-43.4 0 1 .23-.81q.95-1.25.38-2.77a1.18 1.18 46.4 0 1 .02-.91q1.01-2.37 1.67-5.76 2.96-15.26 4.44-25.6l.07-.16c7.53-4.92 15.24-9.03 23.07-13.89 4.25-2.63 8.46-4.05 12.6-7.36ZM243.29 216.5l-4.34 2.08a1.46.74-15.3 0 0-.72.65q-.58 1.52-2.22 1.27a1.37.59-42.7 0 0-.89.31l-5.08 3.44q-1.48-1.65-3.78-1.52a1.53 1-17.6 0 1-.97-.27l-5.09-4.4a1.64.8 88.5 0 1-.43-.83q-.8-3.2-3.7-4.78a1.11.34 25.5 0 1-.7-.64q-.13-1.79-1.56-2.85a.45.4-49 0 1 0-.64l.13-.13a.33.32 28.4 0 1 .32-.09q3.27.79 6.54 1.59c1.37.33 3.29-.01 4.84 1.23a1.66.67 48.2 0 0 .85.42l3.52.31a1.12.33 1.1 0 1 .8.25q1.4 1.68 3.43 1.15a1.21.43-19.5 0 1 .92 0q3.71 2.51 8.13 3.45Z"/><path d="m129.44 221.16-1.91-6.48a.74.67 70.3 0 1 .35-.85l9.09-4.08q1.43-.65.64.69c-1.46 2.5-1.89 5.42-3.51 7.59q-1.43 1.91-3.1 3.5a.96.92-30.5 0 1-1.56-.37ZM168.21 217.5c1.03 3.62-.81 6-1.33 8.78q-2.22 11.87-6.42 23.18-.59 1.58-1.07-.02l-5.89-19.9c1.4-.97 1.84-2.34 3.11-3.27q5.37-3.95 10.35-8.42a1.32.87-56.8 0 1 .8-.35h.45ZM242.71 224.25l.89 4.27q.11.52-.04.99-.53 1.71.07 3.3a1.05.56 61.2 0 1 .01.86c-.14.19-3.33-3.11-4.13-3.5q-.3-.15-.69-.65l-1.36-1.77 2.57-1.59q.51-.31.67-.61.63-1.17 2.01-1.3ZM244.79 243.25l-1.25.75-10.14-10.93q-.87-.95.35-.59 5.41 1.59 10.18 4.58a.73.64-64.5 0 1 .24.84q-1.07 2.9.62 5.35ZM100.75 264.46l-.54 1.54c-2.05 1.73-6.11 7.08-8.21 7.71l-.1-.94q-.07-.76.04-1.04l6.97-16.91q.54-1.33.55.09.04 4.91 1.29 9.55ZM255.75 325.04l-.21-.04c.19-3.61.94-8.24.32-11.75-.27-1.51.38-3.55.42-4.56q.16-3.73.18-7.44l.33-1.25c2.27-2.09 4.91-2.49 7.4-4.06q1.99-1.26 4.3-1.83a1.27 1.17-81.6 0 0 .76-.61q.72-1.33 2.24-1.26a.84.67 8.7 0 0 .8-.46q.62-1.93 2.7-1.5a1.21.11-27.4 0 0 1-.41c8.14-4.12 16.33-8.61 24.39-12.34q17.46-8.07 34.92-16.15c2.35-1.09 6.67-2.5 9.81-4.5.08-.05 1.96-.53.51.43q-4.91 3.24-9.55 6.85c-.96.76-1.39 2.22-3.16 2.43q-.56.07-.92.32-28.97 19.78-55.8 42.35c-4.96 4.17-11.47 7.92-16.18 14.01a1.6.49-14.1 0 1-.8.48l-3.46 1.29ZM359.25 275.71l.25.08-.99 15.47q-.3 4.81-1.64 7.99-.51 1.19-1.62 6.46l-.29.79q-18.61 17.88-36.03 36.92c-6.29 6.87-13.71 14.53-19.85 22.66q-.42.56-1.08.71l-.71-.79.99-31.76a3.94 3.86 64.7 0 1 .79-2.27c6.33-8.39 12.38-17.61 12.51-27.68q22.13-15.31 45.83-28.15.64-.35 1.84-.43ZM100.25 279.96l.29.29c-.47 8.75 4.31 16.22 10.75 21.75l.21.71q-28.56 21.43-55.75 44.59c-1.55 1.32-2.61 3.38-5.29 4.2-.23-.16 1.16-5.28 1.15-6q-.01-5.88-.6-11.78.2-.27.28-.72l1.28-2.02a1.95.91-69.9 0 1 .71-.71q1.43-.72 1.85-2.36a1.3.55-25.8 0 1 .56-.64q.77-.54 2.07-2 9.18-10.42 18.36-20.85c7.49-8.52 15.23-16.23 23.13-24.14a1.21.91 13.1 0 1 .63-.28l.37-.04ZM308.02 307.33q-18.72 25.65-41.3 47.9-6.51 6.41-13.8 11.96-.82.62-.65-.39l2.96-17.27.02-1.74 4.04-2.6q.52-.33.68-.64c1.18-2.26 2.95-2.62 4.55-3.74 1.81-1.26 3.84-2.52 5.5-3.91q18.51-15.5 38-29.57ZM117.5 309.46h.25q13.5 11.23 30.25 16.58c-9.44 10.23-18.31 17.51-29.63 29.42-.82.86-.92 1.86-1.62 2.83q-5.78-14-11.96-27.84-1.07-2.41-3.11-3.4a1.15.92-39.1 0 0-.89.01l-10.69 4.48q13-11.91 27.4-22.08ZM350.37 328.38q-3.81 24.01-9.35 47.43c-.25 1.05-.88.23-.93-.29q-1.24-11.62-2.04-23.27-.37-5.4-4.46-8.61 7.06-8.93 16.78-15.26ZM160.04 329.5l.96-.04q6.63 1.51 12.86 4.28.42.18.95.15l1.69-.1q-.33 1.42-1.04 1.67-6.93 2.52-12.09 7.7a1.19 1.15 21.4 0 1-.84.35l-1.99-.01q.59-4.8-3.27-5.1-1.84-.15-3.13 1.17-6.24 6.33-9.6 13.93l-.83 1.25q-6.54 4.48-13.13 8.89c-3.03 2.02-6.35 4.92-9.79 7.11l-.75-1.25.13-1.58q16.01-14.97 31.33-30.56c2.42-2.46 5.95-4.9 8.54-7.86ZM183.96 341.75l2.29 13.11q-1.16.63-.86 1.5a1.21.73 58.9 0 1 0 .88l-3.95 7.26q-7.75 5.59-13.32 13.98-2.24 3.39-3.83-.35c-2.65-6.2-1.88-16.46-2.83-23.38l-.01-.44q4.08.43 5.45-2.81a.78.44-70.7 0 1 .59-.52q.95.15 1.83-.13a1.52.98-73.3 0 0 .67-.57c.96-1.49 2.42-1.23 3.72-1.99q5.26-3.1 10.25-6.54ZM329.42 347.45q.14 4.07-1.48 5.99c-10.16 12.03-18.61 25.27-27.65 38.14q-1.62 2.32-3.75 4.22-.66.58-.57-.29c.25-2.61 1.86-11.04.99-13.01l.33-1.25q15.64-17.3 32.13-33.8ZM135.46 373.25q-3.7 10.82-8.26 20.72-1.01 2.19-1.52-.14l-2.57-11.81q.21-.53.18-1.02.91-1.09 2.51-1.21a.97.52-.7 0 0 .83-.46q.55-2.44 3.12-2.25a1.01.72-65.7 0 0 .76-.44q1.87-2.66 4.95-3.39Z"/></g><g fill="#00c69c"><path d="M218 27.21q-2.45 2.66-5.73 4.15a.88.68-15.6 0 0-.52.7v.65q-15.9.76-27.03 11.72l-11.26 4.32q9.5-19.82 31.79-22.75 6.9-.91 12.75 1.21ZM176.21 63l-.78 9.52a1.16 1.07-88.9 0 0 1.12 1.26l3.23-.19q-2.14 2.69-5.4 3a1.51 1.43 19.3 0 0-.87.39q-5.72 5.45-12.58 9.74L158.46 88c-16.09 5.05-36.05 15.66-46.64 30.07q-4.62 6.3-11.9 19.08-1.3 1.08-1.75 2.72-1.35-.1-2.23.81-10.06 10.35-24.08 21.97-.42-4.3 1.62-7.92 17.58-31.23 42.54-56.97 1.31-1.35 2.98-2.23 14.57-7.65 30.01-14.11c4.54-1.9 9.97-2.44 14.92-4.35 1.33-.51 2.53-.36 3.88-.62a.52.5 79.4 0 0 .4-.61q-.92-5.08.33-10.09l7.67-2.75ZM296.48 89.24q-6.06 1.34-11.73 3.8-15.63-9.18-33.25-13.48a1.47.34 17.7 0 0-1.01-.08q-2.51.87-4.57-.63a1.77.83 47.8 0 0-.91-.38q-2.62-.08-5.1-.79c-1.65-.48-2.84.4-4.63-.16-4.04-1.27-7.66-.77-11.82-1.12q-1.78-.14-4.2.17-16.12 2.07-25.47 4.43l-.24-.22a.25.25-39.2 0 1 .04-.39q8.45-5.26 15.96-11.79 16.15-4.36 31.98.34c2.46.73 4.4.49 6.91.58 2.43.08 4.38 1.56 6.87 1.78 14.68 1.31 26.94 8.94 41.17 17.94ZM178.46 91.75q.03.21.27.26a.68.57-2.8 0 1 .48.36q2.89 6.92 9.28 10.92.49.3-.06.34c-6.39.37-10.82-2.99-14.93-7.92v-.17l4.96-3.79ZM303.79 94.25q5.7 3.85 9.72 9.03-5.02.75-8.51 4.43l-.71.04q-4.04-4.25-8.79-7.71c2.77-1.62 7.55-3.16 8.29-5.79ZM318 108.46q7.47 9.37 12.94 20.02c2.13 4.13 3.71 9.47 5.88 14.13 2.25 4.82 6.39 9.44 9.14 14.64l-6.5 3.75-.46-.04c-4.17-5.8-9.04-11.29-11.99-17.82q-7.57-16.73-11.26-23.39-1.25-2.27-5.5-5.54l.04-.46q4.75-1.42 7.71-5.29ZM238.25 129.71q3.91 8.31 5.79 17.29v.5q-3.55 1.39-6.25 4.07a1.4.84-57.8 0 1-.85.43h-.65q.94-1.53-.31-2.53a1.73 1.04 22.2 0 1-.56-.75q-2.43-7.84-3.42-16.01l.04-.71q3.31-.53 6.21-2.29ZM185.46 143c-1.19.7-6.72 4.52-7.67 3.75q-.79-3.32-.56-6.63c.29-4.18 3.48-8.06 7.22-2.81q1.07 1.5 1.01 5.69ZM246.71 156.25q-1.27 3.17.36 6.04a1.41.77 49.2 0 1 .21.97l-.82 2.73a1.03.49-69.9 0 0 .09.96q.8.61 1.28 1.48.4.73.41.82l.51 6q.04.42-.13 1-.58 1.98.62 4.73 1.66 3.76.67 10.44a1.44 1.31 35.5 0 0 .2.92q1.13 1.86 1.16 2.91.21 7.9 1.02 15.75l-.4.67q-4.7 1.27-8.24 5.08l-.36-.25q-4.42-.94-8.13-3.45a1.21.43-19.5 0 0-.92 0q-2.03.53-3.43-1.15a1.12.33 1.1 0 0-.8-.25l-3.52-.31a1.66.67 48.2 0 1-.85-.42c-1.55-1.24-3.47-.9-4.84-1.23q-3.27-.8-6.54-1.59a.33.32 28.4 0 0-.32.09l-.13.13a.45.4-49 0 0 0 .64q1.43 1.06 1.56 2.85a1.11.34 25.5 0 0 .7.64q2.9 1.58 3.7 4.78a1.64.8 88.5 0 0 .43.83l5.09 4.4a1.53 1-17.6 0 0 .97.27q2.3-.13 3.78 1.52v.5q-.74 1.2-2.04 1.27-.52.02-.92.25l-7.75 4.46q-4.55 1.72-7.88 5.82-9.37 5.09-18.2 11.24c-1.47-5.58-1-10.75-1.54-16.74-.2-2.23 3.23-7.69-2.46-6.6q-3.82.73-7.83.44a.63.61-2.2 0 1-.58-.52c-.8-6.36 8.99-4.84 12.63-5.26q7.85-.91 15.74.04a.27.17 5.3 0 0 .29-.15l.01-.25a1.1 1.09-66.9 0 0-.33-.83q-3.75-3.57-6.41-7.98c-1.25-2.06-2.68-3.08-4.35-4.67a1.71 1.54-15.4 0 0-.86-.43L186 202.71l3-3.17 4.44-.75a.63.56-6.5 0 0 .53-.6q-.02-.49-.26-.94c1.74-2.98 2.4-5.26 6.75-5.75q1.76 4.13 5.15 6.98c2.99 2.51 4.89 2.11 8.67 2.22q2.82.09 15.37 3.02.44.1.83.46 1.93 1.77 4.39 1.46a1.48 1.25-29.2 0 1 .92.18c1.41.88 2.79 2.28 4.37 2.41 3.19.27 1.61-2.99 1.48-4.36-1.06-11.22-1.58-23.14-3.85-34.13a1.76.99-50.5 0 1 .18-1q.55-1.13.05-2.25a1.25.75 55.4 0 1-.06-.94q.8-1.55.75-3.3l.08-.25 7.92-5.75Zm-41.97 70.64c3.99-1.04-1.79-2.65-.73-.32a.65.59-18.3 0 0 .73.32Zm-4.61 12.71 4.79-6.42q.43-.57-.22-.27l-4.83 2.25a1.02.59 83.2 0 0-.36.84l-.02 3.5q-.01.97.64.1ZM122.75 176.46l-.79.79c-2.59 2.77-6.65 3.17-9.76 5.76q-.38.31-.89.41c-1.59.32-5.16 3.06-6.06 2.79q.66-5.16 3-9.77a1.85 1.65 58.3 0 0 .17-.96c-.36-3.5 1.32-6.88 2.83-9.92 1.42-2.86 1.29-7.78 5.35-8.76q3.45-.84 6.27 1.39a.93.88-69.1 0 1 .34.81q-.72 7.05.36 14.99.17 1.26-.82 2.47ZM185.29 157.25q-1.13 6.09-1.05 12.25a1.25 1.23-68.4 0 0 .36.85q5.74 5.77 10.63 12.71l-.48.73q-2.75 3.28-6.75 4.75l-4.58-8.85a.16.13-26.6 0 0-.2-.05l-.12.08a.57.4-19.6 0 0-.28.39q-.29 8.26-3.31 15.71c-2.7 2-5.99 5.87-8.76 6.89 3.41-13.8 4.37-27.46 5.69-41.53l.6-.93c3.08-.25 4.89-2.56 8.25-3ZM349.04 163.75q2 2.69 2.67 6l-7.25 4.25-.21-.04-2.04-5.96q3.91-1.4 6.83-4.25ZM78.71 176q.12 1.44-.82 2.46a1.33.71-35.1 0 0-.4.79v.75a1.95 1.6-33.6 0 1-.3.97q-1.91 3.02-2.62 6.55-.04.18-.48.74l-.4.5q-.1.12-.38.99-2.2 6.8-3.41 11.26c-.57 2.1-2.35 3.85-1.86 6.74l-.33.75-.2.39a1.05.69 2.8 0 1-.73.43q-4.28.67-6.9 4.06a1.26.82 11.1 0 1-.89.36h-.74q-.29 0-.86.32l-4.35 2.44q-.41-2.71 1.24-4.79a1.69 1.36-29.7 0 0 .35-.89c.47-7.9 3.71-11.36 5.96-17.65q1.69-1.68 3.63-3c3.38-2.3 5.56-5.67 8.83-8.17a1.31.76-25.7 0 0 .5-.73q.25-1.89 2.01-2.45.31-.1.82-.59l2.33-2.23ZM354.54 179.5q4.3 14.15 6.94 28.71.32 1.78-.25 3.51a1.22 1.19-48.9 0 0 .05.91c1.1 2.4-.19 4.16.11 6.15q.3 2.04 1.32 3.86a1.35 1.03 43.3 0 1 .15.92q-.56 2.06.54 3.76a.77.48 55.7 0 1 .04.88l-.69.53a1.05.43 82.8 0 0-.22.82l.22 6.37q-2.17.2-3.75 1.08.25-2.33-1.47-3.93a.83.5 40.7 0 1-.28-.85q1.12-1.75-.71-2.73a1.4.46 76.8 0 1-.53-.87q-1.18-3.6.05-6.97c1.28-3.47-.64-4.91-1.14-7.84-.6-3.41-2.37-5.78-2.27-9.01a1.37.96 32.2 0 0-.36-.86q-.72-.81-.53-1.95.15-.9.11-1.02-2.71-7.72-4.34-15.73a.68.51 15.8 0 0-.28-.37l-.25-.16.04-.71q4.1-1.66 7.5-4.5ZM123.96 191c1.35 5.46 1.64 10.75 2.67 16.24a.42.41 74.7 0 0 .55.32c3.55-1.35 16.33-5.94 18.19-4.48a1.12 1.01 56.4 0 0 .86.22q3.02-.59 6-.05.51.09.03.25l-5.22 1.76a.79.49 72.3 0 0-.23.9c1.3 4.19 1.88 9.26 4.23 12.84l-.08.5c-1.94.19-5.21 3.91-6.26 5.51l-2.56-1.06a.46.39 22.4 0 0-.58.19c-.97 2.49-3 2.93-4.34 4.16q-.92.84-1.85 1.65a1.2 1.04 72.6 0 0-.36.83q-.03 2.29-2.01 3.51-2.16 2.77-5.04 4.7a1.84 1.44-88.3 0 0-.61.73c-1.1 2.31-3.31 2-4.21 4.3a1.31.83-80.6 0 1-.65.73q-2.39.76-3.4 3.09a1.35.5-15 0 1-.81.57q-2.39.92-2.78 3.63-1.26-3.53-1.04-7.29.69-3.16-.96-.04l-3.13 4.41q-1.32 1.85-2.85.9-1.31-.82-2.76-1.04a.79.77-3.6 0 0-.89.98l3.09 10.04-4.95 4.11a1.44.98-57.5 0 1-.79.34l-.47.01q-1.25-4.64-1.29-9.55-.01-1.42-.55-.09l-6.97 16.91q-.11.28-.04 1.04l.1.94-.68.43q-1.48-12.88 1.16-25.39 1.27-6.01 1.25-12.21 0-.72-.43-.23-1.49 1.68-3.57 2.68-2.06.98-.77-1.01 2.51-3.87 4.84-7.85c2.79-4.75 2.92-7.49 3.44-12.88q.28-2.93 2.97-13.25c3.27-2.14 4.17-4.57 8.29-5.39a1.66 1.22-66.4 0 0 .81-.47q1.26-1.3 3.77-1.31l-4.76 19q-.44 1.73 1.01.76l4.64-3.13a1.6.89 22.6 0 1 1.06-.12c3.06.56 1.32-7.37.91-8.94q-1.33-5.01-1.08-10.08 4.47-.95 7.62-3.71c.61-.53 1.33-.61 1.48.39Zm5.48 30.16a.96.92-30.5 0 0 1.56.37q1.67-1.59 3.1-3.5c1.62-2.17 2.05-5.09 3.51-7.59q.79-1.34-.64-.69l-9.09 4.08a.74.67 70.3 0 0-.35.85l1.91 6.48Zm11.47-2.4c-1.99 1.39-1.11 2.4.43 3.42q.56.37.46-.19l-.53-2.91a.35.22 73.2 0 0-.36-.32Zm-21.15 5q.12-1.12-.84-1.69a1.22.48 85.1 0 1-.41-.82q-.14-.7.16-1.32a.74.74-55.1 0 0-.15-.85c-.35-.34-5.89 2.9-6.17 3.05-4.81 2.61-7.45 4.96-7.9 10.34q-.31 3.68-.67 5.02c-.67 2.48-2.13 7.29-1.1 7.65a.47.38-79.3 0 0 .52-.44c.27-2.97 3.57-5.8 4.94-8.38 1.73-3.25 4.25-5.07 6.7-7.55a1.66 1.43 15 0 1 .85-.41c1.77-.29 4.72-1.34 4-3.64q-.02-.07.07-.96ZM177.56 208.95l-.03 3.82q-.01.61-.54 3.47-1.13 6.08-2.2 12.16c-2.14 12.23-6.73 22.72-11.51 35.65q-1.37 3.7-3.47 5.99a.72.71-57.4 0 1-.8.18q-4.4-1.86-5.39-6.64-2.5-11.97-6.36-23.57a1.34 1.06-46 0 1 .09-.91q.73-1.51-.27-2.91 1.94-4.41 6.21-6.69l.21.04 5.89 19.9q.48 1.6 1.07.02 4.2-11.31 6.42-23.18c.52-2.78 2.36-5.16 1.33-8.78l.83-1.75q4.7-2.79 8.52-6.8ZM256.75 215.79l.71-.04q5.82 3.67 10.66 8.54.47.48-.08.33l-14.04-3.6a.8.69 4.5 0 0-1 .73q.55 3.79-.18 7.57a1.79 1.19 48.1 0 0 .13.89c1 2.28-.04 4.29 1.09 6.79l-.33 1c-3.18.47-6.31 3.44-8.92 5.25q-1.69-2.45-.62-5.35a.73.64-64.5 0 0-.24-.84q-4.77-2.99-10.18-4.58-1.22-.36-.35.59L243.54 244q-.98 1.08-1.45 2.45a.93.88-85.9 0 1-.64.59q-2.56.61-4.7 2.25l-5.74-5.38q-.35-.33-.58-.87-.81-1.89-2.93-2.28a.57.33-89.3 0 0-.37.62c.4 10.2-2.54 21.25-12.57 25.85-2.64 1.22-5.84.38-8.78.51a.93.65-8.4 0 1-.86-.43q-.53-1.43-2.17-1.03a.59.45 76.3 0 1-.58-.47l-.43-1.8a.69.66 79 0 0-.74-.52q-2.66.38-2.88-2.33a1.39.87 29 0 0-.43-.78q-2.27-2.23-2.84-5.34l6.99-4.75q.42 3.87 2.57 6.34a.37.36-50.8 0 0 .59-.07q4.39-7.46 9.75-14.27l7.05-5.9q3.14 4.84 1.56-.14l13.64-8.54.46.04 1.36 1.77q.39.5.69.65c.8.39 3.99 3.69 4.13 3.5a1.05.56 61.2 0 0-.01-.86q-.6-1.59-.07-3.3.15-.47.04-.99l-.89-4.27.54-.79q2.44-.82 4.65-2.12c.87-.51 1.59-1.87 3.13-2.04q.51-.06.9-.32l4.82-3.19Zm-38.41 37.11c3.71 1.56 3.28-5.78 3.18-7.69q-.03-.72-.47-.15l-5.32 6.91q-.32.41.26.48c1 .1 1.34.02 2.35.45ZM64.22 224.66q-1.48 10.34-4.44 25.6-.66 3.39-1.67 5.76a1.18 1.18 46.4 0 0-.02.91q.57 1.52-.38 2.77a1 .59-43.4 0 0-.23.81q.88 2.47-.75 4.44a1.49.54 86.6 0 0-.26.87l-.39 5.69a1.27 1.03-21.4 0 1-.47.83c-3.38 2.74 1.49 6.32-2.15 10.49a.53.53-45.4 0 0 0 .71q1.1 1.22.47 2.47-.39.8-.39.99l.08 4.75q.01.55-.16.88c-1.03 1.9-.49 3.4-.57 5.02q-.5 9.56-1.35 19.1-3.27 5.74-8.08 10.25-.45-18.26 1.15-33.32c.57-5.42.3-10.29 2.18-14.25a1.38 1.24 51.9 0 0 .06-.92c-.79-2.75.29-5.48.4-7.68q.42-8.97 2.53-17.7c.27-1.1-.23-1.76-.04-2.63q1.12-5.11 1.7-10.3c.19-1.63 1.25-7.05-2.2-2.16-9.62 13.65-28.39 29.78-46.54 22.17q-.47-.2.04-.21c14.61-.2 30.05-12.16 39.22-22.75 1.03 1.27 4.85-2.9 6.22-3.59 3.47-1.76 5.97-4.13 9.63-5.63q3.31-1.37 6.41-3.37ZM135.71 245.75q2.28 11.5-1.77 22.21c-4.03 10.68-14.75-.68-16.62-6.11q1.41-.17 1.66-.67 1.61-3.17 4.72-4.76.44-.22.72-.65 1.83-2.79 5.2-3.98-1.85 3.26.9 2.54a.75.69-6.5 0 0 .55-.64l.22-3.94q1.26-2.99 4.42-4Zm-6.35 13.37c-2.35.14-2.98 3.47-.76 4.69a.64.39-58 0 0 .65-.33q1.09-1.67.71-3.71a.78.53 81.4 0 0-.6-.65ZM255 249c-.66 2.08.13 3.58.23 5.19q.68 10.21.96 20.39c.07 2.56-.81 4.99-.63 7.85.11 1.88 1.34 3.29.94 5.53l-.79 1.79q-4.33.24-7.85 2.81c-2.05-1.92-1.06-8.98-.43-11.07a1.38.84-60.1 0 0-.02-.95l-.25-.45q-.33-.6-.34-.91l-1.18-22.04q2.62-3.59 6.44-5.9a1.39 1.14 86.7 0 0 .54-.74q.5-1.79 2.38-1.5ZM371.5 269.46q3.94 7.77 9.75 14.25-2.83 2.52-6.5 3.33l-5-5q.79-1.72-.5-2.51-.54-.33-.47.27l.26 2.2q-.66 7.6-2.45 14.55-5.84 3.11-9.66 8.63-.67.97-1.68.53 1.11-5.27 1.62-6.46 1.34-3.18 1.64-7.99l.99-15.47q5.7-3.73 12-6.33ZM108.88 271.16c1.11 5.68.65 12.7 3.51 17.59 1.73 2.97 4.57 5.7 6.65 8.75l-6.5 4.16q-.43.28-.8.31l-.45.03c-6.44-5.53-11.22-13-10.75-21.75 1.09-3.19 5.28-6.59 8.34-9.09ZM215.54 280l1.96-1.29 4.08 3.98a1.15 1.1 30.7 0 0 1.88-.44q.94-3.3 3.33-5.7a1.24 1.2 23.6 0 1 .96-.36q4.16.24 5.06 4.3.64 2.91-1.25 1.21l-2.77-2.49q-.76-.68-.94.31-.78 4.21-3 7.88a.75.53-58.1 0 1-.86.36q-1.17-.77-2.48-.25a.96.36 48 0 1-.78-.4c-1.64-1.64-5.55-4.62-5.19-7.11ZM132.19 282.31c-4.97-3.71 4.46-4.66 6.02-5.21a1.83 1.6-44.7 0 1 .96-.06q4.62 1.06 2.44 3.74c-2.69 3.31-5.45 4.5-9.42 1.53Z"/><path d="M116 281.69c1.36-8.86 11.33.86 10.11 4.48q-.76 2.22-2.28.48l-4.2-4.81q-.65-.74-.68.16l-.17 5.25a1.34.5 85 0 1-.25.9c-3.07 3.14-5.27-4.26-5.27-6.19a.45.4-83.9 0 1 .5-.46l1.73.46a.41.35 12.9 0 0 .51-.27ZM213 282.21l.41 3.24a.94.87 69 0 1-.35.87q-.94.67-.39 1.75a1.3.76-58.9 0 1-.01.9c-1.6 4.6-6.3 2.29-7.18-1.45l7.52-5.31ZM384.75 295.54q3.51-1.53 6-4.5c10.63 5.61 26.74 10.36 37.23 2.44q1.08-.81 6.28-5.86.37-.36.15.09c-10.18 20.16-33.48 18.44-49.66 7.83ZM172 304.21q-2.09 1.56-4.5-.04-3.79-.39-7.41 1.33c-1.54.74-2.67-.49-1.45-1.61 3.61-3.28 10.4-4.54 13.36.32ZM256.46 301.25q-.02 3.71-.18 7.44c-.04 1.01-.69 3.05-.42 4.56.62 3.51-.13 8.14-.32 11.75l-.05.71a.98.96-12.8 0 1-.52.8l-3.2 1.74a2.12.92-71.1 0 0-.73.8l-2.49 4.26a.78.6 19.9 0 1-.8.26q-.65-.17-.96-.06-.68-1.66.27-3.08a1.33.69-46.6 0 0 .27-.95q-.67-2.45.36-4.74a1.59 1.1-50.3 0 0 .09-1.01l-.6-1.74q-.33-.95.08-3.56.59-3.7-.19-7.18.49-3.21-.03-6.25 1.72.36 2.61-.92.34-.47.78-.67l4.92-2.28a1.05.63 34.1 0 1 .72.04q.19.08.39.08ZM124.45 303.59q12.09 11.33 27.55 17.7-1.28 2.8-3.75 4.67l-.25.08q-16.75-5.35-30.25-16.58l6.7-5.87ZM311.58 304.29c-.13 10.07-6.18 19.29-12.51 27.68a3.94 3.86 64.7 0 0-.79 2.27l-.99 31.76q-2.3 4.95-6.49 8.55.02-14.79 1.51-29.38.24-2.42.16-4.55-.04-1.3-.94-.35c-12.53 13.3-26.52 31.35-45.27 35.79q-3.32.79-2.99-2.67l2.02-20.89c3.19 1.15 6.27-1.57 9.11-3.84q.81-.65.83.87l-2.96 17.27q-.17 1.01.65.39 7.29-5.55 13.8-11.96 22.58-22.25 41.3-47.9 2.08-1.15 3.56-3.04ZM363.35 315.22q-3.7 20.77-6.33 28.54-6.57 19.39-7.5 24.49-1.7 9.34-4.86 18.28a1.52.83 57.1 0 0 .07.92c.37 1.05-2.33 5.78-3.19 7.15a.56.51-60.7 0 1-.69.23q-7.39-3.68-7.45-12.08a1.32.53-82.6 0 0-.23-.89q-2.43-2.67-.59-5.81a1.05.52 48 0 0-.26-.94q-3.21-4.22-2.72-8.77.31-2.82-.6-4.38l.61-3.16q.11-.55-.32-.2-1.66 1.32-1.25 3.65c-.38.32-1.02.71-1.27 1.14q-9.16 15.8-11.62 19.27c-2.85 4.01-20.81 29.22-26.06 25.85-2.62-1.68.01-15.1.77-19.35l7.1-6.66c.87 1.97-.74 10.4-.99 13.01q-.09.87.57.29 2.13-1.9 3.75-4.22c9.04-12.87 17.49-26.11 27.65-38.14q1.62-1.92 1.48-5.99l4.17-3.81q4.09 3.21 4.46 8.61.8 11.65 2.04 23.27c.05.52.68 1.34.93.29q5.54-23.42 9.35-47.43l1.17-2.63q2.41-1.36 3.94-3.61c1.43-2.11 2.76-2.78 4.8-3.93a1.71 1.27-85 0 0 .62-.7q.75-1.61 2.45-2.29ZM228.25 315.96l3.75 1.33-.71 2.63a1.34.97-89.5 0 1-.59.8l-6 2.93a1.27.24 8.1 0 1-.89.04q-2.06-.21-3.8.79a2.05 1.93 28.3 0 1-1.01.27h-2.75a1.39.86 12.4 0 0-.94.33q-1.3 1.5-3.34 1.84a1.58.53-48.2 0 0-.79.45c-3.22 2.75-6.7 4.5-9.85 7.71-3.08 3.13-7.59 3.21-4.95 9.41a1.05.97-42.7 0 1-.07.88q-.57 1-.34 1.89 2.01 7.79 3.03 15.77c.71 5.64-5.92 7.75-8.06 2.54q-2.24-5.44-4.69-10.71l-2.29-13.11.08-.25q4.35-1.26 7.62-4.45a1.41 1.2 18.7 0 1 .86-.34c3.34-.09 3.61-2.75 6.32-4.24a1.36.47-35.6 0 1 .91-.27q1.74.43 2.93-.74a1.27.17-80.2 0 0 .31-1q.28-1.48 2.01-.9a1.37.79 29.3 0 0 1.04-.01l4.43-2.64a1.14.83-16.7 0 0 .51-.67q.29-1.65 2.01-1.49a1.15.59 11 0 0 .98-.28q.88-1.42 2.51-1.51a1.39.84-63.3 0 0 .86-.54c1.76-2.25 4.96-1.88 7.26-4.33a1.78 1.53 11.4 0 1 .84-.47q1.71-.39 2.81-1.66ZM197.25 321.54c-1.44 1.43-4.59 4.55-6.73 4.28a1.3 1.09 24.6 0 0-.95.26l-4.11 3.63a1.15 1.09 26 0 1-.89.28q-3.33-.33-3.78 3.01l-4.29.79-1.69.1q-.53.03-.95-.15-6.23-2.77-12.86-4.28l2.75-4q9.01 2.25 17.84-.86a1.84 1.45 35.8 0 1 .96-.04c1.61.36 2.62-.57 4.24-.95 1.71-.41 2.46.37 4.21.36a1.34 1.04-62.4 0 0 .85-.39q2.12-2.09 5.4-2.04ZM116.75 358.29l.05 1.08-6.42 4.08q-5.47-13.9-9.85-27.84-.77-2.45-2.87-.97c-18.48 13.1-34.42 24.98-50.05 43.5-1.57 1.86-3.48 2.54-5.75 2.48a.88.84 76.2 0 1-.74-.47q-2.04-3.97.52-7.75l7.9-6.65q3.57-2.72 10.27-9.44 9.57-9.58 30.29-24.77l10.69-4.48a1.15.92-39.1 0 1 .89-.01q2.04.99 3.11 3.4 6.18 13.84 11.96 27.84ZM51.01 333.72q.59 5.9.6 11.78c.01.72-1.38 5.84-1.15 6l.08.5-8.33 7.5.49-15.32q0-.21.24-.92l.6-1.76q.4.06.8-.05a1.46.94-73.6 0 0 .71-.61q2.39-3.94 5.96-7.12ZM160.54 343.5l-.08.25q-2.46 1.43-3.83 3.97a.86.85-75.9 0 1-.73.44c-3.65.03-7.56 3.41-10.37 5.56a.76.47-42.7 0 1-.72.14q-.18-.12-.27-.36 3.36-7.6 9.6-13.93 1.29-1.32 3.13-1.17 3.86.3 3.27 5.1ZM161.46 354.75c.95 6.92.18 17.18 2.83 23.38q1.59 3.74 3.83.35 5.57-8.39 13.32-13.98-2.01 9.28-7.69 16.84c-2.34 3.11-3.89 5.2-6.82 6.88q-2.54 1.46-4.59-.63c-7.15-7.28-7.54-18.5-6.67-28.96q1.8-.33 3.19-1.33a1.53.99 89.6 0 0 .49-.77q.44-1.58 2.11-1.78ZM147 364.54q-5.17 13.58-10.8 26.98c-1.84 4.37-4.77 11.38-9.03 14.97a1.65 1.61-67.3 0 1-.89.38q-4.78.45-6.41-3.28-1.6-3.65-4.33-18.09l.26.79a.47.45-23.2 0 0 .65.24q3.69-1.88 6.66-4.51l2.57 11.81q.51 2.33 1.52.14 4.56-9.9 8.26-20.72l1.31-1.49 10.23-7.22ZM120.04 369.5l.75 1.25-.33 1-4.49 2.21q-1.02.5-.18-.24l1.87-1.66a1.73.83-29.2 0 0 .52-.74q.35-1.34 1.86-1.82Z"/><path d="m329 361.96-.96.29q-.41-2.33 1.25-3.65.43-.35.32.2l-.61 3.16ZM369.75 282.04l-.71-.04-.26-2.2q-.07-.6.47-.27 1.29.79.5 2.51Z"/></g><g fill="#f9f"><path d="m191.54 82-7.85 4.77a1.68 1.31-9.7 0 0-.62.68c-1.03 2.47-3.09 1.67-4.53 3.8l-2.14-7.5a.45.42-11 0 1 .39-.54c2.33-.25 13.66-2.54 14.75-1.21ZM173.5 95.54v.17l-.35.04a1.32 1.21 20.8 0 0-.65.26q-19.16 15.15-57.21 47.03c-9.38 7.86-18.33 16.36-27.61 24.39q-1.54 1.33-2.51 3.08a1.38.69-70.2 0 1-.72.69q-1.58.39-2.78 1.46-.48.43-.64.75-.52 1.1-1.74 1.34 1.43-2.28 1.86-4.92c.21-1.31 1.62-2.28 2.2-3.42q6.95-13.53 14.82-26.54.45-1.64 1.75-2.72 24.59-21.04 49.52-41.59c2.24-1.85 6.34-4.61 9.02-7.56l2.47-1.28q4.15.13 8.04-.82a.5.5 76.5 0 1 .6.37q1.25 4.96 3.93 9.27ZM284.79 93.5q5.68 2.23 10 6.5-1.01.96-1.73 1.31-27.46 13.33-54.52 27.44l-2.89-2.97a.69.55-38.6 0 0-.82 0q-3.11 2.2-2.79 6.22l-.04.71c-3.3 1.15-5.79 2.96-9.21 4.43q-1.65.71-3.53 2.11-3.6 2.71-11.54 5.77-1.88.72-4.39 2.49c-3.12 2.19-6.78 2.85-9.83 4.75q-3.88 2.43-7.96 4.49l.25-13.25q.56.24 1.15.24a1.24.94-63.3 0 0 .84-.41q1.51-1.66 2.44-2.13 17.41-8.84 35.09-17.13c19.96-9.36 39.16-20.07 58.87-29.89q.27-.13.61-.68ZM304.29 107.75l.71-.04 5.29 6.04-.04.46q-28.26 18.02-56.04 36.77-.75.5-1.4 1.13a1.66.97-59.7 0 1-.8.45q-1.95.3-3.01 1.93-.26.39-.74.67l-1.51.88q-2.44-3.9-2.71-8.54v-.5q29.68-20.31 60.25-39.25ZM177.71 147.25c1.15 3.26-.91 7.85-1.15 11.44q-.01.15.25.9l.23.66-.6.93-52.15 28.32-.49-4.26a1.37.5 88.9 0 0-.37-.95q-1.7-1.21-.21-2.84a1.54 1.01 73.7 0 0 .3-.99q-.06-1.94-1.56-3.21l.79-.79c1.78.21 2.49-1.21 3.53-1.8q12.74-7.27 25.82-13.92a1.28.3-30.4 0 1 .9-.28q1.39.29 2.57-.37a1.42.51-75.4 0 0 .52-.76q.69-1.75 2.33-2.68a1.72.74 19.1 0 1 1.07-.08q1.3.21 2.58-.24a.8.41-14.8 0 0 .55-.49q.21-2.13 2.37-1.84a.92.84-67.9 0 0 .84-.4q1.55-2.26 4.17-1.3a.6.53 18.5 0 0 .76-.32q.6-2.08 2.72-2.28.26-.02.93-.43l3.3-2.02ZM236 152.71l.99 5.96a2.52 2.48-76.1 0 0 .94 1.58q.88.68.86 1.75l-.08.25q-19.66 13.66-38.21 28.79l-.31-.06a.81.48 73.2 0 1-.46-.42c-.74-1.42-5.02-6.06-4.98-6.77l.48-.73q3.26-2.55 6.76-4.98c6.67-4.61 12.75-9.9 19.24-14.69 3.48-2.57 9.44-7.6 14.77-10.68ZM339 160.96l.46.04 2.54 6.96q-35.27 19.16-79.31 44.48-3.57 2.05-5.23 3.31l-.71.04q-3.05-1.55-4.86-4.12l.4-.67q42.65-26.24 86.71-50.04ZM344.25 173.96l.21.04 2.58 10-.04.71-3.84 1.4a.8.78 89.4 0 0-.48.5c-.2.65-.07.58-.64.96q-37.79 25.08-74.59 51.62-2.45 1.77-4.66 3.95a.92.44-49 0 1-.79.34q-1.61-.72-1.75 1.03a1.16.63-28.3 0 1-.46.7L255 249l-1.29-11 .33-1 1.38-1.66q.42-.51.69-.7l4.8-3.49q.5-.36.89-.42c1.7-.26 2.1-1.64 3.15-2.43 10.91-8.19 25.43-17.89 33.45-23.46q21.9-15.21 38.33-25.59 5.24-3.31 7.52-5.29ZM104.96 186.5c.54 3.52-1.45 5.68-2.19 8.28q-1.22 4.29-2.81 8.47c-4.14 3.31-8.35 4.73-12.6 7.36-7.83 4.86-15.54 8.97-23.07 13.89.63-5.51 2.6-10.16 3.42-16l.33-.75c4.14-2.14 8.08-5.35 12.51-6.64 2.96-.87 5.11-3.43 7.39-4.66q8.68-4.69 17.02-9.95ZM170.25 203.46c.99 3.37-.96 8.58-1.21 12.29l-.83 1.75h-.45a1.32.87-56.8 0 0-.8.35q-4.98 4.47-10.35 8.42c-1.27.93-1.71 2.3-3.11 3.27l-.21-.04-2.33-10 .08-.5h.25a.51.15 4 0 0 .38-.08q3.3-3.79 7.67-6.33 1.69-.98 3.63-3.09 3.25-3.53 7.28-6.04ZM243.29 216.5l.36.25-.4 6.71-.54.79q-1.38.13-2.01 1.3-.16.3-.67.61l-2.57 1.59-.46-.04q-2.02-.42-3.42-1.84a1.77 1.36-8.8 0 0-.82-.45l-2.72-.67v-.5l5.08-3.44a1.37.59-42.7 0 1 .89-.31q1.64.25 2.22-1.27a1.46.74-15.3 0 1 .72-.65l4.34-2.08ZM359 237c-.61 12.57.47 25.27.63 37.86a1.09.86-32.6 0 1-.2.58l-.18.27q-1.2.08-1.84.43-23.7 12.84-45.83 28.15-1.48 1.89-3.56 3.04-19.49 14.07-38 29.57c-1.66 1.39-3.69 2.65-5.5 3.91-1.6 1.12-3.37 1.48-4.55 3.74q-.16.31-.68.64l-4.04 2.6q-.97-4.52 0-9.04.48-2.24.5-13.71l3.46-1.29a1.6.49-14.1 0 0 .8-.48c4.71-6.09 11.22-9.84 16.18-14.01q26.83-22.57 55.8-42.35.36-.25.92-.32c1.77-.21 2.2-1.67 3.16-2.43q4.64-3.61 9.55-6.85c1.45-.96-.43-.48-.51-.43-3.14 2-7.46 3.41-9.81 4.5q-17.46 8.08-34.92 16.15c-8.06 3.73-16.25 8.22-24.39 12.34a1.21.11-27.4 0 1-1 .41q-2.08-.43-2.7 1.5a.84.67 8.7 0 1-.8.46q-1.52-.07-2.24 1.26a1.27 1.17-81.6 0 1-.76.61q-2.31.57-4.3 1.83c-2.49 1.57-5.13 1.97-7.4 4.06q-1.02-1.74-.51-3.59.13-.46.07-.97l-.64-5.69.79-1.79q1.49.13 2.18-1.15a1.28 1.25-82.8 0 1 .77-.61q3.1-.82 5.37-3.14a1.09.95 23.4 0 1 .88-.28c1.51.2 1.99-.84 2.96-1.37q37.07-20.35 75.66-37.63c1.04-.46 2.79-.29 3.68-1.68a1.72 1.62-84.4 0 1 .71-.62L359 237ZM100.21 266l.04 13.96-.37.04a1.21.91 13.1 0 0-.63.28c-7.9 7.91-15.64 15.62-23.13 24.14q-9.18 10.43-18.36 20.85-1.3 1.46-2.07 2a1.3.55-25.8 0 0-.56.64q-.42 1.64-1.85 2.36a1.95.91-69.9 0 0-.71.71L51.29 333q-.69-2.45.31-4.8a1.18.57-58.9 0 0 .08-.88l-.87-1.63a1.28.51-65.1 0 1 .05-.91q1.19-3.65 1.14-7.49c12.6-14.71 26.53-28.51 39.32-43.15l.68-.43c2.1-.63 6.16-5.98 8.21-7.71ZM111.5 302.71l6 6.75q-14.4 10.17-27.4 22.08-20.72 15.19-30.29 24.77-6.7 6.72-10.27 9.44 1.19-6.83 1-13.75l-.08-.5c2.68-.82 3.74-2.88 5.29-4.2q27.19-23.16 55.75-44.59ZM354.96 306.5q.17 2.14-.02 2.94-1.96 8.1-3.4 16.31l-1.17 2.63q-9.72 6.33-16.78 15.26l-4.17 3.81q-16.49 16.5-32.13 33.8-.17-7.25.71-14.46.66-.15 1.08-.71c6.14-8.13 13.56-15.79 19.85-22.66q17.42-19.04 36.03-36.92ZM148 326.04l.25-.08q6.1 1.1 11.79 3.54c-2.59 2.96-6.12 5.4-8.54 7.86q-15.32 15.59-31.33 30.56-2.22-4.22-3.37-8.55l-.05-1.08c.7-.97.8-1.97 1.62-2.83 11.32-11.91 20.19-19.19 29.63-29.42ZM180.79 333c2.59.6 1.58 2.48 1.89 4.01q.46 2.31 1.36 4.49l-.08.25q-4.99 3.44-10.25 6.54c-1.3.76-2.76.5-3.72 1.99a1.52.98-73.3 0 1-.67.57q-.88.28-1.83.13a.78.44-70.7 0 0-.59.52q-1.37 3.24-5.45 2.81.24-5.13-.99-10.56l.08-.25 1.99.01a1.19 1.15 21.4 0 0 .84-.35q5.16-5.18 12.09-7.7.71-.25 1.04-1.67l4.29-.79ZM143.71 354.75c-1.93 5.98-5.84 10.87-6.94 17.01l-1.31 1.49q-3.08.73-4.95 3.39a1.01.72-65.7 0 1-.76.44q-2.57-.19-3.12 2.25a.97.52-.7 0 1-.83.46q-1.6.12-2.51 1.21-1.16-2.74-1.28-5.75-.01-.23-.32-.89l-1.23-2.61.33-1c3.44-2.19 6.76-5.09 9.79-7.11q6.59-4.41 13.13-8.89Z"/></g><g fill="#fff"><path d="m188 188.54 5.71 8.71q.24.45.26.94a.63.56-6.5 0 1-.53.6l-4.44.75-4.96.7a1.22.85 5.5 0 0-.81.46c-.56.97 1.91 1.77 2.77 2.01l11.56 2.13a1.71 1.54-15.4 0 1 .86.43c1.67 1.59 3.1 2.61 4.35 4.67q2.66 4.41 6.41 7.98a1.1 1.09-66.9 0 1 .33.83l-.01.25a.27.17 5.3 0 1-.29.15q-7.89-.95-15.74-.04c-3.64.42-13.43-1.1-12.63 5.26a.63.61-2.2 0 0 .58.52q4.01.29 7.83-.44c5.69-1.09 2.26 4.37 2.46 6.6.54 5.99.07 11.16 1.54 16.74l1.6 7.25q.57 3.11 2.84 5.34a1.39.87 29 0 1 .43.78q.22 2.71 2.88 2.33a.69.66 79 0 1 .74.52l.43 1.8a.59.45 76.3 0 0 .58.47q1.64-.4 2.17 1.03a.93.65-8.4 0 0 .86.43c2.94-.13 6.14.71 8.78-.51 10.03-4.6 12.97-15.65 12.57-25.85a.57.33-89.3 0 1 .37-.62q2.12.39 2.93 2.28.23.54.58.87l5.74 5.38 8.55 5.97a1.08 1.07-75 0 1 .46.8q.05.61-.12 1.08l1.18 22.04q.01.31.34.91l.25.45a1.38.84-60.1 0 1 .02.95c-.63 2.09-1.62 9.15.43 11.07q-1.36 6.08-.82 12.44.52 3.04.03 6.25L232 317.29l-3.75-1.33-5.43-.36a1.08.74-63.5 0 0-.79.44q-.98 1.28-2.54.46a1.6.76 38.7 0 0-.97-.23q-1.57.28-2.87 1.1a1.27.25-34.7 0 1-.91.4l-1.99-.3a.79.75-73.8 0 0-.82.48q-.56 1.33-2 .62a.65.47 19.9 0 0-.87.25q-.05.29-.24.5a1.09.41-49.7 0 1-.81.45q-2.99-.77-5.62.84a1.25.63 29 0 1-.96-.04q-.96-.38-1.44.41a1.55.78-69.7 0 1-.73.68q-1.01.32-2.01-.12-3.28-.05-5.4 2.04a1.34 1.04-62.4 0 1-.85.39c-1.75.01-2.5-.77-4.21-.36-1.62.38-2.63 1.31-4.24.95a1.84 1.45 35.8 0 0-.96.04q-8.83 3.11-17.84.86-6.07-1.55-11.75-4.17-15.46-6.37-27.55-17.7l-5.41-6.09c-2.08-3.05-4.92-5.78-6.65-8.75-2.86-4.89-2.4-11.91-3.51-17.59L106.96 260l-3.09-10.04a.79.77-3.6 0 1 .89-.98q1.45.22 2.76 1.04 1.53.95 2.85-.9l3.13-4.41.96.04q-.22 3.76 1.04 7.29c.22 1.81.94 3.18 1.02 4.99q.12 2.42.8 4.82c1.87 5.43 12.59 16.79 16.62 6.11q4.05-10.71 1.77-22.21-2.54-5.44-2.71-11.46 1.98-1.22 2.01-3.51a1.2 1.04 72.6 0 1 .36-.83q.93-.81 1.85-1.65c1.34-1.23 3.37-1.67 4.34-4.16a.46.39 22.4 0 1 .58-.19l2.56 1.06q-.84 3.56.88 6.53a1.45 1.35-57 0 1 .16.92q-.41 2.55 1.34 3.73 1 1.4.27 2.91a1.34 1.06-46 0 0-.09.91q3.86 11.6 6.36 23.57.99 4.78 5.39 6.64a.72.71-57.4 0 0 .8-.18q2.1-2.29 3.47-5.99c4.78-12.93 9.37-23.42 11.51-35.65q1.07-6.08 2.2-12.16.53-2.86.54-3.47l.03-3.82q1.78-6.1 1.95-13.13 3.02-7.45 3.31-15.71a.57.4-19.6 0 1 .28-.39l.12-.08a.16.13-26.6 0 1 .2.05l4.58 8.85Zm17.5 93.17q-.43-1.34-1.69-1.23a.66.6-.7 0 0-.61.57q-.04.62.55.99l1.73 5.48c.88 3.74 5.58 6.05 7.18 1.45a1.3.76-58.9 0 0 .01-.9q-.55-1.08.39-1.75a.94.87 69 0 0 .35-.87l-.41-3.24q.38-.98.14-1.99a.77.61 70.2 0 1 .26-.77q.79-.46 1.85-.24l.29.79c-.36 2.49 3.55 5.47 5.19 7.11a.96.36 48 0 0 .78.4q1.31-.52 2.48.25a.75.53-58.1 0 0 .86-.36q2.22-3.67 3-7.88.18-.99.94-.31l2.77 2.49q1.89 1.7 1.25-1.21-.9-4.06-5.06-4.3a1.24 1.2 23.6 0 0-.96.36q-2.39 2.4-3.33 5.7a1.15 1.1 30.7 0 1-1.88.44l-4.08-3.98-.96-.96-2.47-1.68a.8.73-44.5 0 0-.85.03q-2.02 1.38-3.51 3.36c-1.06 1.41-.46 5.7-4.21 2.25Zm-73.31.6c3.97 2.97 6.73 1.78 9.42-1.53q2.18-2.68-2.44-3.74a1.83 1.6-44.7 0 0-.96.06c-1.56.55-10.99 1.5-6.02 5.21Zm-16.7-.35-1.73-.46a.45.4-83.9 0 0-.5.46c0 1.93 2.2 9.33 5.27 6.19a1.34.5 85 0 0 .25-.9l.17-5.25q.03-.9.68-.16l4.2 4.81q1.52 1.74 2.28-.48c1.22-3.62-8.75-13.34-10.11-4.48a.41.35 12.9 0 1-.51.27Zm52.01 22.21 4.79 5.06q1.46 1.55 2.01-.69.64-2.59-2.3-4.33c-2.96-4.86-9.75-3.6-13.36-.32-1.22 1.12-.09 2.35 1.45 1.61q3.62-1.72 7.41-1.33ZM114.86 194.32q-.25 5.07 1.08 10.08c.41 1.57 2.15 9.5-.91 8.94a1.6.89 22.6 0 0-1.06.12l-4.64 3.13q-1.45.97-1.01-.76l4.76-19c.38-1.03 1.15-6.95 1.49-6.94a.58.32-90 0 1 .32.58l-.03 3.85Z"/><path d="M141.34 222.18c-1.54-1.02-2.42-2.03-.43-3.42a.35.22 73.2 0 1 .36.32l.53 2.91q.1.56-.46.19ZM119.69 224.72c.72 2.3-2.23 3.35-4 3.64a1.66 1.43 15 0 0-.85.41c-2.45 2.48-4.97 4.3-6.7 7.55-1.37 2.58-4.67 5.41-4.94 8.38a.47.38-79.3 0 1-.52.44c-1.03-.36.43-5.17 1.1-7.65q.36-1.34.67-5.02c.45-5.38 3.09-7.73 7.9-10.34.28-.15 5.82-3.39 6.17-3.05a.74.74-55.1 0 1 .15.85q-.3.62-.16 1.32a1.22.48 85.1 0 0 .41.82q.96.57.84 1.69-.09.89-.07.96ZM219.33 230.73q3.12 1.94 4.03 5.52 1.58 4.98-1.56.14-5.11-.93-10.35.16 3.33-4.1 7.88-5.82ZM200.13 239.6q-.65.87-.64-.1l.02-3.5a1.02.59 83.2 0 1 .36-.84l4.83-2.25q.65-.3.22.27l-4.79 6.42ZM214.75 242.29q-5.36 6.81-9.75 14.27a.37.36-50.8 0 1-.59.07q-2.15-2.47-2.57-6.34c2.23-4.26 8.46-6.82 12.91-8ZM218.34 252.9c-1.01-.43-1.35-.35-2.35-.45q-.58-.07-.26-.48l5.32-6.91q.44-.57.47.15c.1 1.91.53 9.25-3.18 7.69ZM124.13 247.31c-.79 6.01-2.57-1.3-.4-.7a.67.56-79.5 0 1 .4.7ZM131.29 249.75l-.22 3.94a.75.69-6.5 0 1-.55.64q-2.75.72-.9-2.54.16-1.73 1.67-2.04ZM128.6 263.81c-2.22-1.22-1.59-4.55.76-4.69a.78.53 81.4 0 1 .6.65q.38 2.04-.71 3.71a.64.39-58 0 1-.65.33ZM204.01 226.57c-1.06-2.33 4.72-.72.73.32a.65.59-18.3 0 1-.73-.32ZM114.46 244.75l-.96-.04q1.65-3.12.96.04Z"/></g><g fill="#65ddff"><path d="M218 27.21q8.2 3.37 14.82 9.27.37.33-.1.15-10.06-3.98-20.97-3.92v-.65a.88.68-15.6 0 1 .52-.7q3.28-1.49 5.73-4.15ZM184.72 44.43q-6.62 8.31-8.51 18.57l-7.67 2.75q1.13-8.89 4.92-17l11.26-4.32ZM209.55 68.6q-7.51 6.53-15.96 11.79a.25.25-39.2 0 0-.04.39l.24.22-2.25 1c-1.09-1.33-12.42.96-14.75 1.21a.45.42-11 0 0-.39.54l2.14 7.5-.08.5-4.96 3.79q-2.68-4.31-3.93-9.27a.5.5 76.5 0 0-.6-.37q-3.89.95-8.04.82 6.86-4.29 12.58-9.74a1.51 1.43 19.3 0 1 .87-.39q3.26-.31 5.4-3 11.09.53 21.24-3.81 2.03-.86 4.72-1l3.81-.18ZM296.48 89.24l7.31 5.01c-.74 2.63-5.52 4.17-8.29 5.79l-.71-.04q-4.32-4.27-10-6.5l-.04-.46q5.67-2.46 11.73-3.8ZM313.51 103.28l4.49 5.18q-2.96 3.87-7.71 5.29l-5.29-6.04q3.49-3.68 8.51-4.43ZM238.54 128.75l-.29.96q-2.9 1.76-6.21 2.29-.32-4.02 2.79-6.22a.69.55-38.6 0 1 .82 0l2.89 2.97ZM98.17 139.87q-7.87 13.01-14.82 26.54c-.58 1.14-1.99 2.11-2.2 3.42q-.43 2.64-1.86 4.92l-.58 1.25-2.33 2.23q-.51.49-.82.59-1.76.56-2.01 2.45a1.31.76-25.7 0 1-.5.73c-3.27 2.5-5.45 5.87-8.83 8.17q-1.94 1.32-3.63 3-.23-2.82.9-4.97a1.56 1.12 61.4 0 0 .11-.9q-.58-3.36 2.33-5.13a1.69 1.06-86.5 0 0 .58-.81c2.17-6.21 6.45-12.37 7.35-18.71q14.02-11.62 24.08-21.97.88-.91 2.23-.81ZM185.46 143l.33.5-.25 13.25-.25.5c-3.36.44-5.17 2.75-8.25 3l-.23-.66q-.26-.75-.25-.9c.24-3.59 2.3-8.18 1.15-11.44l.08-.5c.95.77 6.48-3.05 7.67-3.75ZM244.04 147.5q.27 4.64 2.71 8.54l-.04.21-7.92 5.75q.02-1.07-.86-1.75a2.52 2.48-76.1 0 1-.94-1.58l-.99-5.96.29-.71h.65a1.4.84-57.8 0 0 .85-.43q2.7-2.68 6.25-4.07ZM345.96 157.25l3.08 6.5q-2.92 2.85-6.83 4.25l-.21-.04-2.54-6.96 6.5-3.75ZM351.71 169.75l2.83 9.75q-3.4 2.84-7.5 4.5l-2.58-10 7.25-4.25ZM121.96 177.25q1.5 1.27 1.56 3.21a1.54 1.01 73.7 0 1-.3.99q-1.49 1.63.21 2.84a1.37.5 88.9 0 1 .37.95l.49 4.26-.33 1.5c-.15-1-.87-.92-1.48-.39q-3.15 2.76-7.62 3.71l.03-3.85a.58.32-90 0 0-.32-.58c-.34-.01-1.11 5.91-1.49 6.94q-2.51.01-3.77 1.31a1.66 1.22-66.4 0 1-.81.47c-4.12.82-5.02 3.25-8.29 5.39l-.25-.75q1.59-4.18 2.81-8.47c.74-2.6 2.73-4.76 2.19-8.28l.29-.29c.9.27 4.47-2.47 6.06-2.79q.51-.1.89-.41c3.11-2.59 7.17-2.99 9.76-5.76ZM194.75 183.79c-.04.71 4.24 5.35 4.98 6.77a.81.48 73.2 0 0 .46.42l.31.06-.04.46c-4.35.49-5.01 2.77-6.75 5.75l-5.71-8.71q4-1.47 6.75-4.75ZM179.51 195.82q-.17 7.03-1.95 13.13-3.82 4.01-8.52 6.8c.25-3.71 2.2-8.92 1.21-12.29l.5-.75c2.77-1.02 6.06-4.89 8.76-6.89ZM189 199.54l-3 3.17c-.86-.24-3.33-1.04-2.77-2.01a1.22.85 5.5 0 1 .81-.46l4.96-.7ZM67.71 208.5c-.82 5.84-2.79 10.49-3.42 16l-.07.16q-3.1 2-6.41 3.37c-3.66 1.5-6.16 3.87-9.63 5.63-1.37.69-5.19 4.86-6.22 3.59 6.3-7.64 10.49-12.24 11.08-20.75l4.35-2.44q.57-.32.86-.32h.74a1.26.82 11.1 0 0 .89-.36q2.62-3.39 6.9-4.06a1.05.69 2.8 0 0 .73-.43l.2-.39ZM251.89 211.67q1.81 2.57 4.86 4.12l-4.82 3.19q-.39.26-.9.32c-1.54.17-2.26 1.53-3.13 2.04q-2.21 1.3-4.65 2.12l.4-6.71q3.54-3.81 8.24-5.08ZM150.96 219.5l2.33 10q-4.27 2.28-6.21 6.69-1.75-1.18-1.34-3.73a1.45 1.35-57 0 0-.16-.92q-1.72-2.97-.88-6.53c1.05-1.6 4.32-5.32 6.26-5.51ZM230.04 224.75l2.72.67a1.77 1.36-8.8 0 1 .82.45q1.4 1.42 3.42 1.84l-13.64 8.54q-.91-3.58-4.03-5.52l7.75-4.46q.4-.23.92-.25 1.3-.07 2.04-1.27ZM133 234.29q.17 6.02 2.71 11.46-3.16 1.01-4.42 4-1.51.31-1.67 2.04-3.37 1.19-5.2 3.98-.28.43-.72.65-3.11 1.59-4.72 4.76-.25.5-1.66.67-.68-2.4-.8-4.82c-.08-1.81-.8-3.18-1.02-4.99q.39-2.71 2.78-3.63a1.35.5-15 0 0 .81-.57q1.01-2.33 3.4-3.09a1.31.83-80.6 0 0 .65-.73c.9-2.3 3.11-1.99 4.21-4.3a1.84 1.44-88.3 0 1 .61-.73q2.88-1.93 5.04-4.7Zm-9.27 12.32c-2.17-.6-.39 6.71.4.7a.67.56-79.5 0 0-.4-.7ZM221.8 236.39l-7.05 5.9c-4.45 1.18-10.68 3.74-12.91 8l-6.99 4.75-1.6-7.25q8.83-6.15 18.2-11.24 5.24-1.09 10.35-.16ZM362.75 235.92q1.89 17.5 8.75 33.54-6.3 2.6-12 6.33l-.25-.08.18-.27a1.09.86-32.6 0 0 .2-.58c-.16-12.59-1.24-25.29-.63-37.86q1.58-.88 3.75-1.08ZM253.71 238l1.29 11q-1.88-.29-2.38 1.5a1.39 1.14 86.7 0 1-.54.74q-3.82 2.31-6.44 5.9.17-.47.12-1.08a1.08 1.07-75 0 0-.46-.8l-8.55-5.97q2.14-1.64 4.7-2.25a.93.88-85.9 0 0 .64-.59q.47-1.37 1.45-2.45l1.25-.75c2.61-1.81 5.74-4.78 8.92-5.25ZM106.96 260l1.92 11.16c-3.06 2.5-7.25 5.9-8.34 9.09l-.29-.29-.04-13.96.54-1.54.47-.01a1.44.98-57.5 0 0 .79-.34l4.95-4.11ZM216.54 277.75l-1.29 1.46q-1.06-.22-1.85.24a.77.61 70.2 0 0-.26.77q.24 1.01-.14 1.99l-7.52 5.31-1.73-5.48 1.75-.33c3.75 3.45 3.15-.84 4.21-2.25q1.49-1.98 3.51-3.36a.8.73-44.5 0 1 .85-.03l2.47 1.68ZM381.25 283.71q4.34 4.2 9.5 7.33-2.49 2.97-6 4.5-5.5-3.66-10-8.5 3.67-.81 6.5-3.33ZM255.71 289.75l.64 5.69q.06.51-.07.97-.51 1.85.51 3.59l-.33 1.25q-.2 0-.39-.08a1.05.63 34.1 0 0-.72-.04l-4.92 2.28q-.44.2-.78.67-.89 1.28-2.61.92-.54-6.36.82-12.44 3.52-2.57 7.85-2.81ZM366.59 296.55l-3.24 18.67q-1.7.68-2.45 2.29a1.71 1.27-85 0 1-.62.7c-2.04 1.15-3.37 1.82-4.8 3.93q-1.53 2.25-3.94 3.61 1.44-8.21 3.4-16.31.19-.8.02-2.94l.29-.79q1.01.44 1.68-.53 3.82-5.52 9.66-8.63ZM119.04 297.5l5.41 6.09-6.7 5.87h-.25l-6-6.75-.21-.71.45-.03q.37-.03.8-.31l6.5-4.16ZM172 304.21q2.94 1.74 2.3 4.33-.55 2.24-2.01.69l-4.79-5.06q2.41 1.6 4.5.04ZM228.25 315.96q-1.1 1.27-2.81 1.66a1.78 1.53 11.4 0 0-.84.47c-2.3 2.45-5.5 2.08-7.26 4.33a1.39.84-63.3 0 1-.86.54q-1.63.09-2.51 1.51a1.15.59 11 0 1-.98.28q-1.72-.16-2.01 1.49a1.14.83-16.7 0 1-.51.67l-4.43 2.64a1.37.79 29.3 0 1-1.04.01q-1.73-.58-2.01.9a1.27.17-80.2 0 1-.31 1q-1.19 1.17-2.93.74a1.36.47-35.6 0 0-.91.27c-2.71 1.49-2.98 4.15-6.32 4.24a1.41 1.2 18.7 0 0-.86.34q-3.27 3.19-7.62 4.45-.9-2.18-1.36-4.49c-.31-1.53.7-3.41-1.89-4.01q.45-3.34 3.78-3.01a1.15 1.09 26 0 0 .89-.28l4.11-3.63a1.3 1.09 24.6 0 1 .95-.26c2.14.27 5.29-2.85 6.73-4.28q1 .44 2.01.12a1.55.78-69.7 0 0 .73-.68q.48-.79 1.44-.41a1.25.63 29 0 0 .96.04q2.63-1.61 5.62-.84a1.09.41-49.7 0 0 .81-.45q.19-.21.24-.5a.65.47 19.9 0 1 .87-.25q1.44.71 2-.62a.79.75-73.8 0 1 .82-.48l1.99.3a1.27.25-34.7 0 0 .91-.4q1.3-.82 2.87-1.1a1.6.76 38.7 0 1 .97.23q1.56.82 2.54-.46a1.08.74-63.5 0 1 .79-.44l5.43.36ZM51.54 316.75l.46.54q.05 3.84-1.14 7.49a1.28.51-65.1 0 0-.05.91l.87 1.63a1.18.57-58.9 0 1-.08.88q-1 2.35-.31 4.8-.08.45-.28.72-3.57 3.18-5.96 7.12a1.46.94-73.6 0 1-.71.61q-.4.11-.8.05l-.37-.47a1.45.97 35.5 0 1-.32-.85l.61-13.18q4.81-4.51 8.08-10.25ZM152 321.29q5.68 2.62 11.75 4.17l-2.75 4-.96.04q-5.69-2.44-11.79-3.54 2.47-1.87 3.75-4.67ZM255.54 325l.21.04q-.02 11.47-.5 13.71-.97 4.52 0 9.04l-.02 1.74q-.02-1.52-.83-.87c-2.84 2.27-5.92 4.99-9.11 3.84l1.5-18.99q.31-.11.96.06a.78.6 19.9 0 0 .8-.26l2.49-4.26a2.12.92-71.1 0 1 .73-.8l3.2-1.74a.98.96-12.8 0 0 .52-.8l.05-.71ZM160.46 343.75q1.23 5.43.99 10.56l.01.44q-1.67.2-2.11 1.78a1.53.99 89.6 0 1-.49.77q-1.39 1-3.19 1.33l.09-1.41q.04-.57.27-.96 1.4-2.38-.84-3.96a1.62 1.48-59.2 0 0-2.24.68L147 364.54l-10.23 7.22c1.1-6.14 5.01-11.03 6.94-17.01l.83-1.25q.09.24.27.36a.76.47-42.7 0 0 .72-.14c2.81-2.15 6.72-5.53 10.37-5.56a.86.85-75.9 0 0 .73-.44q1.37-2.54 3.83-3.97ZM50.54 352q.19 6.92-1 13.75l-7.9 6.65q.93-6.62.57-12.9l8.33-7.5ZM116.8 359.37q1.15 4.33 3.37 8.55l-.13 1.58q-1.51.48-1.86 1.82a1.73.83-29.2 0 1-.52.74l-1.87 1.66q-.84.74.18.24l4.49-2.21 1.23 2.61q.31.66.32.89.12 3.01 1.28 5.75.03.49-.18 1.02-2.97 2.63-6.66 4.51a.47.45-23.2 0 1-.65-.24l-.26-.79q-.76-4.13-1.1-8.27c-.17-2.08-1.31-4.44-.81-7.02a.99.56-72.9 0 0-.2-.89l-1.74-1.25a.74.53-68 0 1-.18-.73q.62-2.34-1.13-3.89l6.42-4.08ZM297.29 366l.71.79q-.88 7.21-.71 14.46l-.33 1.25-7.1 6.66.94-14.61q4.19-3.6 6.49-8.55Z"/><path d="m216.54 277.75.96.96-1.96 1.29-.29-.79 1.29-1.46ZM205.5 281.71l-1.75.33q-.59-.37-.55-.99a.66.6-.7 0 1 .61-.57q1.26-.11 1.69 1.23Z"/></g></svg>
