<svg version="1.0" xmlns="http://www.w3.org/2000/svg" width="512" height="512"><g fill="#00c69c"><path d="M339.1 477.8c-.9-2.8 2.1-27.8 3.6-29.7 2.2-2.6 9.2-2.6 9.7.1.4 1.8.6 1.8 1.8.4 3.9-4.6 7.3-9.4 10.9-15.3 2.2-3.5 4.7-7.2 5.5-8 .8-.8 1.5-2 1.5-2.6 0-.5 2.3-3.5 5.3-6.6 2.9-3.2 5.3-6.8 5.3-8.1 0-4.8 3.3-7.6 8.8-7.6 4.6 0 5.3.4 6.9 3.8 1.1 2 1.9 6.1 2 9v5.4l2.1-8.2c1.2-4.5 2.6-11.6 3.1-15.7 1.4-12.6 1.9-13.6 9.6-21.3 5-5 7.9-7 10-7 1.8 0 2.1.5 1.5 2.1-.7 2-1.9 7-6.6 28.4-1.3 6.1-2.8 11.6-3.4 12.3-1.1 1.3-7.5 23.5-8.7 29.9-1.1 5.8-5.5 20.3-6.6 21.5-2.9 3.2-9.4-4-9.4-10.2 0-1.6-.6-3.3-1.2-3.6-.7-.4-.9-1.9-.5-3.3.4-1.5-.2-4.2-1.2-6.1-1.1-2-1.9-5.5-1.9-7.9 0-8.5-3.8-5.5-11.7 9-5.5 10-21.1 30.3-28.8 37.2-3.6 3.3-7.2 4.2-7.9 2zM144 475.7c-3.6-1.4-9-24.7-6.6-27.7 2.1-2.6 11.4-2.3 12.1.4.4 1.8.6 1.8 1.3-.4.5-1.3 1.4-3.4 1.9-4.7.6-1.3 1.3-3.8 1.6-5.5.5-2.1 2.7-4.6 6.3-6.9 3.1-2.1 5.8-4.2 5.9-4.8.6-1.4 6.1-1.2 6.1.2 0 .7-.5 2.1-1.1 3.3-.6 1.1-1.5 3.3-2.1 4.9-.7 1.6-2.3 5.4-3.8 8.6-1.3 3.1-2.5 6.3-2.5 7.3 0 .9-.5 1.8-1.1 1.8-.6 0-1.3 2.1-1.8 4.7-.4 2.6-1.3 4.7-1.9 4.7-.7 0-1.2.7-1.2 1.6 0 2.3-4.7 10.1-6 10.1-.6 0-1.1.8-1.1 1.8 0 1.9-2.7 2.1-6.3.7zM190.1 453.5c-3.9-4-5.8-9.6-6.5-19.4-.5-5.4-.5-12.3 0-15.4.8-5.4.9-5.4 5.4-5.4h4.5l.9 11.9 1.1 11.7 5.5-5.3c3.5-3.5 6.5-5.4 8.5-5.4 2.7 0 2.8.4 2.2 4.5-.4 2.3-1.3 5.2-2 6.1-.8.9-2 3.2-2.8 5-.7 1.8-1.9 3.2-2.6 3.2-.6 0-1.2.7-1.2 1.6 0 2.2-7 8.9-9.3 8.8-1.1 0-2.7-.9-3.8-2zM48.6 439.5c1.2-9.5 1.5-10.5 5.4-12.9 4.2-2.7 17.6-15.5 17.6-16.9 0-.6.7-1.1 1.6-1.1.9 0 3.5-1.8 5.6-3.8 6.8-6.6 16-13.9 17.3-13.9.7 0 1.3-.5 1.3-1.1 0-2.2 16.6-9.5 21.6-9.5 5.6 0 6.3.8 12.2 14.7 8 18.9 8.8 21.3 8.9 25.7.1 4.1-.4 4.9-3.9 6.9-3.9 2.3-4 2.3-5.3.1-1.6-2.9-9.4-23.7-11.3-30.5-1.4-4.9-1.8-5.3-4.7-4.7-1.8.2-4.5 1.6-6 2.9-1.5 1.4-8.7 6.8-16 12.2-11.7 8.7-29.7 24.4-29.7 26.2 0 1.8-11.3 12.2-13.3 12.2-2.1 0-2.2-.6-1.5-6.7zM134.6 440.8c-1.2-2.9-.8-6.9.7-8.5.8-.8 3.4-1.4 5.9-1.4 4.3 0 4.5.1 4.5 4 0 2.9-.8 4.6-2.6 5.9-3.4 2.3-7.5 2.3-8.5 0zM342.2 430.2c.4-7 1.1-16.8 1.4-21.7.5-6.6.2-9.2-.7-9.2-.7 0-7.6 6.6-15.4 14.7-7.9 8-15.7 15.3-17.6 16.1-1.9.8-3.4 1.9-3.4 2.5 0 1.5-16.6 8.9-18.4 8.2-1.4-.6-1.6-2-1.1-7.3.4-3.6 1.1-10.2 1.4-14.7.7-6.8 1.3-8.6 3.9-10.8 1.8-1.6 4.6-2.7 6.9-2.8h3.8V420.6l11.2-11.2c6.1-6.2 11.2-11.4 11.2-11.7 0-.2 3.4-4.1 7.6-8.5 4.2-4.3 7.6-8.5 7.6-8.9 0-1.2 13.5-17.8 18.2-22.5 2.1-2.1 4.3-3.1 7-3.1 4.1 0 4.1.1 4.1 5 0 5.6-2.8 15-5.9 19.6-1.1 1.6-3.6 5.5-5.9 8.8l-3.9 5.9-.6 20-.6 20-3.5 4.3c-2 2.5-4.6 4.5-5.9 4.5-2.1 0-2.2-.6-1.5-12.6zM226.4 430.9c-1.2-.6-2.1-2.2-2.1-3.4 0-1.2-.5-2.5-1.1-2.9-.6-.4-1.4-2.2-1.9-4.1-.7-3.2-4.1-5.2-4.1-2.3 0 .7-.5 1.2-1.1 1.2-1.2 0-3.6-11.7-3.6-17.8 0-2.8.6-4.5 1.5-4.5.7 0 2.7-1.1 4.3-2.3 1.6-1.3 3.6-2.3 4.6-2.3.8 0 2.8-1.3 4.3-2.9 1.5-1.6 3.8-2.9 5.2-2.9 1.3 0 2.3-.5 2.3-1.2 0-.6.8-1.2 1.9-1.2.9 0 2.6-.7 3.4-1.4 3.4-3.2 6.6-5.2 14.7-9.5 2.2-1.2 5.4-2.9 7-3.8 4.1-2.3 11.7-2.3 11.7 0 0 1.1-.7 2.1-1.6 2.5-.9.4-1.4 1.4-1.1 2.2.6 1.9-5.4 4.8-12.3 5.9-2.3.5-6.6 1.9-9.3 3.2-5.9 2.9-20.3 14.8-20.3 16.8 0 .8 1.1 7.5 2.3 14.8 2.1 12.3 2.1 13.4.4 15.4-2.1 2.5-2.6 2.5-5.3.8zM50 423.2c-.4-1.1-.5-2.2-.1-2.8.4-.5.7-6.6.8-13.4.1-11.3.5-12.8 2.8-15.4 3.2-3.4 9.2-4 10.3-1.1 1.1 2.8.8 15.7-.6 21.5-.8 3.6-2.5 6.5-5.5 9-4.9 4.3-6.7 4.8-7.8 2.1zM166.8 413.9c0-5 3.5-11.7 8.9-16.7 4.3-4.1 8.3-4.8 13.9-2.7 2.6.9 3.1 1.8 3.1 6.1-.1 6-3.8 10.8-9.2 12-1.9.5-4.5 1.9-5.6 3.2-1.3 1.4-3.5 2.2-6.6 2.2-4.3 0-4.5-.1-4.5-4.1zM196.6 394.2c-1.3-1.1-4.3-2.1-6.7-2.6-4.1-.8-4.3-1.1-4.3-5.2.1-7 2.2-8.8 10.2-7.9 4.8.5 10 0 18-1.8 6.1-1.3 13.4-2.7 16.2-3.1l4.9-.7v4.1c0 4.3-3.9 9.2-7.3 9.2-.9 0-2.7 1.1-3.9 2.3-1.2 1.3-3.1 2.3-4.2 2.3-1.2 0-2.6.8-3.2 1.9-1.5 2.8-16.3 3.6-19.7 1.3zM291 379.2l.6-15.4-2.6 1.3c-2.3 1.3-2.5 1.2-2.5-4.5 0-5.6.1-5.8 5.3-8.2 6.1-2.8 11.7-3.2 12.7-.7.7 1.8-.1 28.7-1.1 33.1-.2 1.4-1.4 2.8-2.7 3.3-1.2.4-2.7 2-3.4 3.5-.9 2-2.3 2.9-4.2 2.9h-2.8l.7-15.4zM51.7 371.4c0-8.3 1.1-24 2.3-35 1.4-10.9 2.7-23.4 3.1-27.5.4-4.2 1.1-8.5 1.6-9.5.6-1.1 1.1-2.9.9-4.2-.1-1.2.2-5.8.8-10.1.7-6.9.6-8-1.1-8-1.1 0-1.9.5-1.9.9 0 2-12.2 14.9-18.1 19.1-10.9 7.8-21.8 11.3-29.5 9.4l-4.7-1.1 4-.1c4-.1 24.8-10.2 24.8-12.1 0-.5.7-.9 1.5-.9 1.6 0 9.9-8.5 17.7-18.2 6.2-7.8 15.1-13.4 21.6-13.5 3.6 0 3.8.1 3.8 5 0 5.5-4.3 31.8-6 35.5-.5 1.3-1.2 4.7-1.4 7.6-.4 2.9-1.4 10.3-2.5 16.4-.9 6.1-2.2 20-2.8 30.6l-1.1 19.6-4.5 5.4c-2.3 2.9-5.4 5.4-6.6 5.4-2.1 0-2.2-1.1-2.2-14.9zM167.9 385.5c-5-1.6-17.8-7.4-18.8-8.5-.4-.4-2.3-1.8-4.6-2.9-9.5-5.3-12.1-10.9-7.5-16.4 1.2-1.4 1.3-1.8.4-.9-.9.7-3.5 1.4-5.9 1.4-5 0-6.7-1.2-11.5-8.3-3.9-5.9-6-12.9-6.1-20.2 0-6.2 7.9-14.9 13.5-14.9 4 0 5.2 1.6 5.4 8.2 0 1.6.4 2.2.7 1.5.2-.9 2.6-1.5 5.3-1.5h4.8l-3.6-3.2c-8.5-7.8-8.3-12.9.6-21.1 3.6-3.4 7.4-6.2 8.2-6.2.8 0 1.5-.7 1.5-1.5 0-2.8 4.2-5.5 8.5-5.5h4.2l.8 7.5c.9 8.2 0 17.6-2.5 24.4l-1.5 4.5h4.3c2.5 0 5 .6 5.9 1.4 2.5 2.5 1.6 8.5-1.4 11.4-2.6 2.5-3.9 2.7-10 2.2-6.3-.5-7.2-.2-7.2 1.6 0 1.6-.9 2.1-4 2.1-2.2 0-4.3.4-4.6.9-.2.5-.2 3.3.1 6.5.5 5.4.6 5.5 4.2 5.5 2.5 0 4.7.9 6.1 2.5 3.2 3.5 13.9 10.6 22 14.6 6.2 2.9 6.7 3.5 6.7 7.2 0 5.5-3.1 8.7-8.2 8.6-2.2 0-4.9-.4-5.9-.7zm-26.4-30.9c.4-.6.5-1.2.1-1.2s-.9.6-1.3 1.2c-.4.7-.5 1.2-.1 1.2s.9-.5 1.3-1.2zm9.3-29.9c.5-1.3-.2-1.8-2.6-1.8-3.1.1-3.1.1-.9 1.8 2.8 2.1 2.7 2.1 3.5 0zM182 358.3c0-6.5 2.1-7.8 12.8-7.8h8.9v11.8l-10.8.4-10.9.2v-4.6zM413.4 359.2c0-2 .7-6.3 1.6-9.6.9-3.4 2.1-11.3 2.5-17.5l.8-11.4 4.9-2.9c2.7-1.6 6.3-3.3 8.1-3.6 2.8-.7 3.3-.4 6 5.4 1.5 3.5 5 8.7 7.6 11.5 5.2 5.5 5.4 7.6 1.4 8.7-1.9.5-3.6-.6-6.8-4-2.3-2.5-4.9-4.6-5.8-4.6-.7 0-1.6 2.8-2.1 6.8-1.5 13.9-2.3 16.6-6.3 20.8-3.1 3.2-4.9 4.1-8 4.1-3.6 0-4-.2-4-3.6zM469.1 353.9c-6.7-2.1-18.1-7.5-19-9-.4-.5.4-1.9 1.5-3.1 2.1-2.1 2.3-2.1 6.3 0 10.3 5.5 15 6.9 24.1 7.6 6.8.5 10.8.2 14.4-1.1 7-2.5 6.1-.4-1.4 3.3-8 3.9-17.8 4.7-26 2.2zM240.3 344.9c-1.5-1.2-2-2.8-1.6-6.7.4-4.9.7-5.4 5.3-7.6 2.7-1.3 5.2-3.3 5.5-4.6.5-1.8 1.5-2 5.8-1.8 4.1.4 5.6 0 6.6-1.5.9-1.5 2.8-2.1 6.5-2.1 6.5 0 8.9 2.6 8.9 9.2 0 4.6-.2 4.9-3.3 4.9-2.5 0-3.5.8-4.7 3.5-1.4 3.2-2.1 3.5-7.2 3.5-3.1 0-6.1-.6-6.9-1.4-1.1-1.1-1.4-.8-1.4 1.2 0 4.5-8.8 6.7-13.4 3.4zM286.2 341.5c-.4-2.8-.7-14-.7-25l-.2-20 4.2-2.7c2.2-1.4 4.1-3.2 4.1-3.8 0-.7 2.1-1.2 4.6-1.2h4.6l.7 13.3c.4 7.2.8 19.3.9 26.7l.4 13.5-4.1 2c-2.2 1.1-6.3 2-8.9 2.1-4.9 0-4.9 0-5.5-4.9zM502.6 345.8c0-.4.2-.6.6-.6.4 0 .6.2.6.6 0 .4-.2.6-.6.6-.4 0-.6-.2-.6-.6zM102.3 320.9c0-7.2 2-28.8 2.8-32.9.8-3.4.6-3.9-1.6-3.9-4.1 0-3.3-7.2 1.8-15.5 3.2-5.2 4.6-9 5.3-14.8.5-4.3 1.4-9.9 2.1-12.3 1.3-5.4 6.7-11.3 10.5-11.4 1.4 0 2.6-.5 2.6-1.2 0-.6 1.3-1.2 2.9-1.2 1.6 0 2.9-.7 2.9-1.4.1-2 10.3-6.8 14.3-6.8 3.3 0 3.5.6 5.2 12.1.8 6.2 1.5 6.6 9.9 3.6 3.9-1.3 7.3-1.6 12.7-1.1l7.3.8v3.9c0 2.3-.7 4.1-1.8 4.6-1.5.5-1.5 1.2 0 5.5 2.7 7.5 2.2 10.7-2.1 14.9-2.1 2.1-4.6 3.8-5.5 3.8-2.1 0-9.4 5.6-9.4 7.3 0 .8-5.2 6.3-11.4 12.4l-11.5 10.9-5.4-.6-5.4-.6.6 5.4c.5 4.9.2 5.6-3.3 8.7-2.5 2.2-5.2 3.4-7.5 3.4-3.3 0-3.9.6-5.4 5-1.6 4.5-2.1 4.9-6.1 5.3-4.5.4-4.5.4-4.3-4.1zm31.6-74.9c0-.4-.2-.6-.6-.6-.4 0-.6.2-.6.6 0 .4.2.6.6.6.4 0 .6-.2.6-.6z"/><path d="M179.8 318.6c-1.5-1.3-2.9-4.5-3.6-8.5-.7-3.5-2.5-10.5-4.1-15.6-1.6-5-3.3-12-3.6-15.4-.7-6.1-.6-6.3 3.4-9.4 2.7-2 5.6-3.2 8.2-3.2 3.5 0 4.2.5 4.8 3.3.5 1.8 1.4 4.7 2.1 6.5 1.3 3.3 1.4 3.2 3.4-4.8 1.1-4.5 2.3-10.7 2.8-13.9.7-4.8 1.6-6.6 6.1-10.7 4.1-4 6.2-5 9.4-5h4.1l-.5 6.2-.4 6.2 10-.5c11.7-.5 12.9-.7 12.9-3.2 0-2.7-8.1-7.4-14.3-8.2-5.4-.8-5.6-1.1-5.6-4.7 0-3.9 3.6-7.6 7.3-7.6.8 0 2.1-1.3 2.9-2.9 1.3-2.8 1.2-2.9-3.2-2.9-4 0-4.6.4-5.3 3.4-1.3 6-9.5 13-15.3 13-3.9 0-4.1-.2-4.1-3.8 0-2.1.8-7.5 1.8-12.1 1.1-4.5 2.5-15.3 3.2-23.8l1.3-15.6 5-2.2c2.8-1.3 6.7-2.3 8.7-2.3h3.8l-.5 8c-.4 7.2-.1 8.1 2.6 10.8 7.2 7.2 9.6 11.5 9.2 16.4-.4 4.6-.4 4.7 3.4 4.7 2.5 0 3.9.6 3.9 1.6 0 2.5 7.2 8.9 9.9 8.9 2.1 0 18.7 3.3 27.6 5.5 2.5.6 2.7.4 2.1-2.1-1.4-6-3.5-40.6-2.7-44.7.6-3.3 1.8-4.9 4.2-6.2 1.9-.9 3.8-2.5 4.2-3.2.7-1.2.5-1.3-.8 0-.8.7-3.4 1.4-5.8 1.4-3.9 0-4.2-.4-6.1-5.6-1.2-3.1-2.3-9.7-2.8-14.9l-.7-9.4 4-1.5c7.4-2.6 12.7-1.3 12.7 3.3 0 1.1 1.1 4.1 2.3 6.8 2.9 6 3.3 16.7.6 16.7-.9 0-1.8.6-1.8 1.2 0 .7 1.6 1.2 3.5 1.2 3.5 0 3.5 0 3.5 6.8 0 3.8.4 7.3.9 7.8.8.9 3.1 22.4 4.5 43.9l.8 12h3.5c2.3 0 5.5 1.6 9.7 5 5.3 4.1 6.2 5.5 6.3 8.9v4l-5.5-.8c-3.2-.4-7.3-.9-9.3-1.4l-3.6-.7.6 8.7.5 8.6-4.5 2.3c-2.3 1.3-5.4 2.8-6.6 3.5-1.2.6-2.3 2-2.7 3.1-1.2 3.8-13.4 6.5-15.3 3.4-1.5-2.6-2.8-.9-4.1 5.3-1.2 5.4-2.3 7.5-7.2 12.3l-5.9 5.9h-9.2c-7.2 0-9.5-.5-11.4-2.1-1.2-1.2-3.2-2.5-4.2-2.9-1.2-.4-2.1-1.5-2.1-2.3 0-.9-.8-2.3-1.9-3.3-1.3-1.1-1.8-3.1-1.4-7.2.2-3.6-.1-5.6-.9-5.6-1.5 0-2.8-5.3-2.8-11.7 0-2.3-.4-6.8-.7-9.9l-.8-5.4h-11.1l-.8 5.6c-1.3 8.8-12.7 41.6-15.6 45.2-1.2 1.2-3.4 2-6.1 2-2.5 0-5.5-.9-6.9-2zm65.6-33.7c0-.5-1.6.4-3.5 1.9-2.3 1.6-3.1 2.8-2.1 3.4 1.2.8 5.6-3.4 5.6-5.3zm36.4-23c0-1.2.9-2.8 2.1-3.4 1.6-1.1 1.5-1.2-1.3-1.3-1.9 0-5-.8-7-1.8-2.1-.9-6.1-2.2-9-2.8l-5.3-1.2 3.9 3.5c2.1 1.9 4.8 3.4 6.1 3.4 1.8 0 2.3.8 2.3 2.9 0 2.6.5 2.9 4.1 2.9 3.3 0 4.1-.5 4.1-2.3zM417.7 279.8c-.5-1.2-1.5-4.2-2.6-6.8-.9-2.6-1.8-7.6-1.6-11.2.1-5.9-3.9-24.5-5.8-27.6-1.2-1.8-3.6-13.5-3.6-17.7-.1-3.3.6-4.1 4.7-6.3 2.8-1.4 5.4-2 5.9-1.5 1.4 1.4 4.5 12.6 5.4 19.1.4 2.9 1.2 5.9 1.8 6.7 1.1 1.3 3.1 23 3.6 39.5l.2 7.9h-3.6c-2.5 0-4-.7-4.3-2zM62.6 254c1.6-8.5 3.4-14.2 5.5-18.1 1.3-2.5 2.9-7 3.5-10.5.6-3.3 1.8-6.7 2.6-7.5 13.4-14.1 14.2-14.8 18.1-14.8 3.8 0 4 .2 4 4.1 0 2.3-.8 5.8-1.8 7.5-.9 1.9-3.3 8.3-5.4 14.3-2 6.1-4 12.1-4.6 13.4-.5 1.3-1.3 3.3-1.6 4.3-.4 1.2-2.5 2.8-4.8 3.8-2.2.9-4.1 2.2-4.1 2.7 0 1.2-6.8 3.9-9.9 3.9-1.8 0-2-.7-1.5-3.2zM119.8 218.1c0-2 .6-5.6 1.3-7.9.7-2.2 2-6.7 2.8-10 2.5-9.2 5.3-16.2 7.4-18.7 1.6-1.8 3.1-2 8.3-1.4 3.5.5 7 1.3 7.9 1.9.8.8 1.4 5.6 1.4 13.9.1 11.6-.1 12.8-2.7 15.9-1.5 1.8-3.5 3.2-4.5 3.2-.9 0-3.1 1.1-4.7 2.3-1.6 1.3-3.8 2.3-4.7 2.3-1.1 0-2.2.6-2.6 1.2-.4.7-2.8 1.2-5.4 1.2-4.3 0-4.6-.1-4.6-3.9zM399.3 203.6c-.8-2.2-1.2-5.8-.9-7.6.5-2.7.1-3.4-1.5-3.4-1.2 0-3.5-2.1-5.4-4.7-1.8-2.7-4.5-6.1-5.9-7.6-2.7-3.1-7.4-12.7-7.4-15.3 0-.9-.4-1.8-.8-2-.6-.1-3.2-4.9-5.9-10.5-2.8-5.5-6.3-11.3-8-12.8-2-1.9-2.9-4-2.9-6.7 0-3.6-.2-3.9-3.8-3.9-2.7 0-5.2-1.3-8.3-4.1-3.8-3.3-4.5-4.7-4.1-7.8.2-2.9 1.3-4.3 4.3-6 4.9-2.8 7-1.9 14.9 6.3l5.4 5.8-2.7 3.2c-2.1 2.3-2.2 2.7-.5 1.4 1.3-.9 2.7-2.2 3.1-2.7.9-1.3 6.9 4.2 6.9 6.5 0 .9 1.2 2.7 2.5 4 1.4 1.2 2.9 3.3 3.5 4.6.6 1.3 2.9 5.3 5.2 8.8 2.2 3.5 4 7.5 4.1 8.9 0 3.1 5.8 14.4 10.2 20.1 4 5.2 12.1 21.3 12.1 24.1 0 2.8-4.6 5.6-8.9 5.6-3.3 0-4-.6-5.2-4.2zm5.9-12.8c0-.4-.2-.6-.6-.6-.4 0-.6.2-.6.6 0 .4.2.6.6.6.4 0 .6-.2.6-.6zM85.1 188.2c.5-3.2 2.1-7.3 3.6-9.4 1.5-2 2.8-4.2 2.8-4.8 0-.6 1.3-2.5 2.9-4.2 1.6-1.8 2.9-3.6 2.9-4.2 0-1.2 10.9-17.5 13.9-20.7 1.2-1.3 2.7-3.2 3.3-4.1 1.2-2.2 12.3-14.8 21.1-24.1 3.5-3.8 7.2-6.3 8.6-6.3 1.3 0 4.1-.9 6.2-2.1 16.4-9.2 28.5-14.3 33.4-14.3 2.1 0 4.1-.5 4.5-1.1.5-.6 2.7-1.4 5.2-1.9l4.3-.7.2-8.3c.4-9 1.5-11.5 5.9-11.5 2.8 0 2.8.1 2 8.2l-.8 8.2h4.3c3.9 0 4.3.4 4 2.6-.2 1.8-1.3 2.8-2.9 3.1-1.3.2-4.3 2.2-6.7 4.5-2.2 2.2-4.7 4-5.4 4-.6 0-2.2 1.1-3.4 2.2-1.3 1.3-5.5 3.4-9.4 4.9-14.7 5.3-39.9 19.8-40 23.1 0 .7-.7 1.4-1.5 1.4s-2.8 1.4-4.3 3.3c-2.9 3.3-12.9 17.7-12.9 18.7 0 2.5-17.5 22.7-19.6 22.7-.4 0-2.6 2-4.9 4.5-7 7-13.5 12-15.9 12-1.9 0-2-.6-1.3-5.5zM205 173.6c-.4-1.5-.7-5.4-.7-8.6 0-7.6 2.3-11.2 7.5-11.2 5.9 0 8.7 3.2 9.6 10.8l.7 6.5-4.2 2.5c-5.9 3.5-12 3.4-12.9 0zM210.2 124.1c-6.1-2.9-9.4-6.8-9.4-11.4 0-5.6 2.8-8.2 9-8.2 4.1 0 4.9.5 5.5 2.8.4 1.5 2.8 4.7 5.4 7 3.5 3.2 4.7 5.2 4.7 7.8 0 3.5-.1 3.5-6.1 3.4-3.4 0-7.5-.7-9.2-1.4zM319.1 106.9c-10.9-5.3-16.2-7-34.9-10.8-10.8-2.2-36.4-1.9-45.3.6-4 1.1-8.9 2-10.9 2-3.3 0-3.6-.4-3.6-3.8.1-3.2 1.1-4.6 5.4-7.8 6.6-4.9 9.4-5.8 24.7-7.4 9.2-.9 14.1-.9 20.1.1 10 1.8 21 3.5 25.4 4 1.8.1 3.5.7 4 1.1.4.5 1.8.8 2.9.8 1.2 0 3.1.5 4.2 1.1 1.1.7 5 2.1 8.8 3.2 3.8 1.1 9.6 4 13.2 6.6 3.4 2.5 6.7 4.5 7.2 4.5 1.4 0 8.7 5.2 8.7 6.1 0 1.8-9.5 5.6-13.7 5.5-2.8 0-8.7-2.1-16-5.8zM204 57.9c3.1-8 17.3-21.4 25.4-23.8 12.6-3.8 30.2-3.5 30.2.5 0 2.6-5.4 4.6-10.2 3.9-4.8-.8-13.6 1.1-20.8 4.5-4.7 2.2-13.3 10-15.5 14.1-.8 1.5-2.8 2.5-5.5 2.7-3.8.4-4.2.1-3.5-1.8z"/></g><g fill="#ff7878"><path d="M348.2 457.3c.8-7.4.7-8-1.1-6.5-1.6 1.4-1.9 1.2-1.9-2.3.1-4.3 4.1-9.3 27.9-33.6 6.6-6.8 12-12.8 12-13.4 0-.6.6-1.1 1.2-1.1.7 0 4.9-3.8 9.4-8.3 6.2-6.3 9.2-8.5 12.4-8.9 4-.7 4.2-.6 3.4 2-.5 1.5-1.1 4.3-1.3 6.3-.7 6.6-2.6 16.4-4.5 24.8-1.8 7.3-2.5 10.8-4.7 21.6-.7 3.3-1.9 4.7-2 2.3 0-1.9-.4-5.4-1.5-19.3-.9-10.1-3.4-17-6-17-2.1 0-5.3 4.6-5.3 7.6 0 1.3-2.3 4.9-5.3 8.1-2.9 3.1-5.3 6.1-5.3 6.6 0 .6-.7 1.8-1.5 2.6s-3.3 4.5-5.5 8c-4.1 6.7-8.1 12.1-11.2 15.4-.9 1.1-1.8 2.5-1.8 3.2 0 .8-.5 1.4-1.2 1.4-.6 0-1.2 1.1-1.2 2.3 0 1.3-.5 2.3-1.1 2.3-.6 0-2 .9-3.1 2-1.9 1.8-1.9 1.4-1.2-6.2zM146.8 458.3c-.9-3.2-1.6-6.3-1.5-7.2.1-1.1-.7-1.4-2.1-1.1-3.9 1.1-2.9-5.3 1.3-8.3 1.9-1.4 3.9-2.6 4.5-2.6.6 0 1.8-.8 2.6-1.8.8-.9 3.3-1.8 5.5-1.8 3.9 0 4 .1 2.2 2.6-1.1 1.4-1.9 3.6-1.9 4.7 0 1.2-.5 3.1-1.1 4.2-.7 1.1-2.7 5.3-4.5 9.4l-3.3 7.4-1.8-5.6zM193.3 445.2c-1.2-1.9-2.6-12.8-2.9-23.5-.1-4-.5-4.9-1.9-4.3-1.3.5-1.8-.1-1.8-2.2 0-1.8.7-2.9 1.6-2.9.9 0 2.5-.7 3.3-1.5.8-.8 3.4-2.5 5.6-3.5 2.2-1.2 6.5-3.6 9.4-5.5 5.2-3.3 12.9-4.7 12.9-2.3 0 .7-.8 1.2-1.9 1.2-1.5 0-1.6.8-.8 5 2.5 12.6.5 17.5-11 28.4-3.4 3.3-6.2 6.7-6.2 7.8 0 2-5.4 5-6.3 3.5zM140.9 436.3c1.8-2.1-.1-2.3-2.1-.4-1.1 1.1-1.4.5-1.4-2.6 0-3.8 1.9-6 23.6-27.2 20.4-20.1 24.1-23.3 27.2-23.3 2.8 0 3.3.4 2.2 1.4-2.2 2.2-1.6 2.9 2.8 3.9 2.5.4 5.6 1.5 7.2 2.6 1.8 1.2 4 1.5 6.2 1.1 3.3-.6 3.5-.4 3.5 2.6 0 2.7-.7 3.5-4.2 4.8-2.2.8-5.9 3.1-8 4.9-3.1 2.6-5 3.4-9 3.4H184l2.2-2.6c3.1-3.4 2.9-5.8-.4-6.9-2.1-.8-3.5-.2-6.7 2.8-6.3 5.9-11.9 17.4-6 12.6 2.6-2.2 3.3-.8 1.3 2.9-1.4 2.7-5.2 5.9-14.8 12.3-.9.7-4.3 3.1-7.5 5.3-6.1 4.2-14.3 6-11.3 2.3z"/><path d="M348.5 431.9c.6-.8 1.2-6.6 1.2-12.7 0-26.2.2-28.2 4.2-33.6 4.7-6.2 7.9-11.7 9.9-16.9 1.4-4 2.7-10.6 1.9-10.6-1.5 0-21.6 23.8-21.6 25.6 0 .5-3.4 4.6-7.6 8.9-4.2 4.3-7.6 8.2-7.6 8.5 0 1.6-29.9 29.7-31.7 29.8-.9 0-.5-4.8.6-7.3.5-1.2.6-2.9.2-3.9-.5-.9-.2-2 .4-2.3.7-.5 1.2-2.6 1.2-4.9 0-3.6-.2-4-1.9-2.6-1.6 1.3-1.8 1.1-1.4-2 .2-2.2 1.3-3.9 3.1-4.6 1.4-.6 2.9-2.1 3.3-3.2.4-1.1 1.8-2.3 3.1-2.8 2.9-.8 4.3-2 10-7.2 2.2-2.1 4.5-3.9 4.9-3.9.4 0 2.3-1.4 4.2-3.1 2-1.8 4.7-3.9 6.2-4.8 1.4-1.1 2.6-2.6 2.6-3.4 0-.9.8-1.6 1.9-1.6 2 0 14.6-9.4 14.6-10.8 0-.6.6-.9 1.3-.9 1.4 0 8.8-5.4 12.4-9 1.4-1.5 3.4-2.7 4.3-2.7.9 0 2.5-.9 3.3-2.1.8-1.1 2.8-2.7 4.5-3.5 4.1-2 10.3-5.6 12-7 .8-.6 3.5-2.2 6-3.6 2.3-1.4 6.3-3.6 8.8-4.9 2.3-1.4 6.6-3.8 9.3-5.3 2.7-1.5 6.8-2.8 9-2.8 4.3 0 5.6 1.5 2.5 2.8-1.3.5-1.9 2.2-1.9 5 0 7.8-.7 18.4-1.4 20.3-1.9 5.4-3.2 9.9-2.8 10.2.2.1 1.5-.7 2.9-2 3.1-2.8 3.1-2.8 1.2 2.3-1.2 3.5-8 12-12.6 15.7-4.7 3.8-20 20.3-20.1 21.6 0 .7-.7 1.4-1.5 1.4-1.2 0-7.9 6.5-7.9 7.5 0 .1-3.5 3.9-7.9 8.5-4.5 4.6-10.1 10.8-12.6 13.7-3.6 4.2-5.5 5.5-8.1 5.5-2.6 0-3.2-.4-2.2-1.4zM56.4 427.8c0-4.1 1.9-6.2 5.5-6.2 2 0 2.7-.7 2.7-2.7 0-2.3-.5-2.6-4.9-2.2-3.9.2-4.6 0-3.1-.9 2.2-1.4 3.5-6.2 3.8-14.7.4-7.8-.2-9.5-2.3-6.8-1.4 1.9-1.5 1.6-1.6-2.1 0-3.6 2.8-9.2 6-11.6.4-.4 2.9-3.2 5.8-6.5 2.7-3.2 8.2-9.4 12.2-13.6 3.9-4.2 8.2-8.9 9.5-10.5l2.3-2.7-2.5 1.3c-1.4.7-5 4.3-8.2 8.1-12.2 14.3-16 18-18.9 18-1.8 0-2.6-.5-2-1.3.4-.7.8-7.3 1.1-14.4.1-7.3.6-13.9 1.1-14.6.5-.7.8-3.9.8-6.9.1-11 .5-16.2 1.3-16.8.5-.4.9-2.7 1.2-5.2.1-2.3.7-4.7 1.2-4.9.5-.4.9-3.2.9-6.2 0-3.1.4-6 .8-6.5.5-.4.9-2 1.2-3.4.2-1.4.8-5.2 1.5-8.5 3.9-20.1 4-21.8 1.9-21-1.4.6-1.9 0-1.9-2.1s1.3-3.5 4.9-5.6c2.8-1.5 5.3-3.1 5.6-3.4.4-.4 3.6-2.3 7.5-4.2 3.8-2 7.2-4.2 7.4-4.9.4-.8 1.3-1.5 2.2-1.5 1.6 0 9.6-4.1 11.6-6 .6-.6 3.2-1.1 5.8-1.1 4.5 0 4.6.1 2.6 2.2-2.5 2.7-4 8.2-5.3 19.1-.7 5.9-2.1 9.6-5.4 15-4 6.6-4.8 10.6-1.5 7.3.8-.8 1.9-1.4 2.5-1.4.9 0 .8 1.8-1.5 17-1.6 11-2.3 26.9-.9 25.5.6-.6 1.3-1.9 1.4-2.7.2-.9 1.1-3.2 1.9-5.2.8-1.9 1.5-3.9 1.4-4.3-.1-.6.4-.9.9-.9.6 0 1.2-.4 1.1-.8-.2-1.9 1.6-6.2 2.6-6.2.9 0 1.6 6.6 1.2 9.7-.2 1.3.7.9 2.7-1.1 1.8-1.6 1.9-1.5 1.9.7 0 3.9-2.1 7-9.3 14.1-8.9 8.8-18.9 19.7-16 17.6 2.6-1.9 7.4-6.8 12.7-12.8 2.2-2.6 4.2-3.6 6.7-3.6 3.2 0 3.5.2 2.3 2.3-1.9 3.4.5 12 5.4 19.4 4.1 6.2 6.7 8.2 8.8 6.9.6-.4 1.1.7 1.1 2.3 0 2.7.5 3.1 4.3 3.1 4 0 4.1.1 2.3 2.1-1.9 2-1.8 2.3.7 4.6 1.5 1.3 4.6 3.3 6.8 4.6 2.2 1.2 4.2 2.6 4.6 2.9.4.4 3.3 1.9 6.5 3.4 13 6 15.4 6.5 16.9 3.9 1.1-1.8 1.2-1.5 1.3 1.8 0 3.5-1.9 5.8-19 22.7-11.5 11.2-20.1 18.7-21.4 18.7-1.8 0-2-.4-1.1-1.3 1.1-1.1.9-2.3-.2-5-6.8-15.9-11.2-26.4-11.2-27.2-.1-.6-1.1-2.2-2.3-3.8-1.8-2.1-2.9-2.6-4.9-2-4.5 1.4-16.2 7.9-16.2 8.9 0 .6-.6 1.1-1.3 1.1-.7 0-3.5 1.9-6.1 4.2l-4.9 4.1-.4-2.9c-.2-1.6-.7-3.1-.9-3.1-.8 0-8.9 5.9-10.5 7.6-.6.6-3.4 2.9-6.1 5-6 4.7-6.3 6.1-1.3 6.1h3.8l-5.2 5.4c-2.9 2.9-6.7 6.5-8.5 7.6l-3.3 2.3v-3.3zm33.7-34.1c-.5-.4-.8 0-.8.8s.4 1.2.8.8c.4-.5.4-1.2 0-1.6zm11.6-4.3c.1-.1.5-1.6.9-3.6.7-3.2.6-3.3-.8-1.4-.9 1.1-2.2 2-2.8 2-.6 0-2.1 1.1-3.3 2.3-2.1 2.3-2.1 2.3 1.9 1.6 2.2-.5 4-.8 4.1-.9zm5.8-7.8c.4-.6.2-1.2-.5-1.2-.6 0-1.5.6-1.9 1.2-.4.7-.2 1.2.5 1.2.6 0 1.5-.5 1.9-1.2zm1.8-2.9c0-.4-.2-.6-.6-.6-.4 0-.6.2-.6.6 0 .4.2.6.6.6.4 0 .6-.2.6-.6zm10.3-7.3c.8-.8 1.1-1.5.5-1.5-1.3 0-6.1 4.1-6.1 5.3 0 .8 2.5-.8 5.6-3.8zm6.1-5.2c0-.7-.5-.8-1.2-.5-.6.4-1.2 1.3-1.2 1.9 0 .7.6.8 1.2.5.7-.4 1.2-1.3 1.2-1.9zm3.5-2.8c0-.4-.2-.6-.6-.6-.4 0-.6.2-.6.6 0 .4.2.6.6.6.4 0 .6-.2.6-.6zm3.5-2.3c0-.4-.2-.6-.6-.6-.4 0-.6.2-.6.6 0 .4.2.6.6.6.4 0 .6-.2.6-.6zm-38.8-16.4c0-.4-.2-.6-.6-.6-.4 0-.6.2-.6.6 0 .4.2.6.6.6.4 0 .6-.2.6-.6zM298.5 383.6c1.4-1.4 1.9-4.6 2-13.3.1-6.3.5-11.9.7-12.3 1.1-1.6-.8-4.5-2.5-3.8-2.5.9-2.1-3.5.5-5.9 1.1-1.1 4.1-2.8 6.7-4 2.6-1.2 6.3-3.3 8.5-4.7 2-1.5 4.1-2.7 4.8-2.7.9 0 14.9-6.9 23.7-11.7 4.8-2.6 14.4-7 15.3-7 .6 0 8.6-3.6 17.8-8 18.7-8.9 23.7-10.8 28.3-10.8 2.8 0 3.2.5 3.2 3.9 0 3.3-.8 4.3-5.3 7.2-2.9 1.9-5.3 4.1-5.3 4.9 0 .9-.9 1.6-2.2 1.6-1.9 0-7.9 3.9-13.3 8.6-1.1.9-2.9 2.1-4.2 2.5-1.3.5-2.7 1.5-3.1 2.5-.4.9-1.4 1.8-2.5 1.8-.9 0-1.8.6-1.8 1.2 0 .7-1.3 1.8-2.9 2.3-1.6.6-2.9 1.6-2.9 2.3 0 .6-.8 1.2-1.8 1.2-.9 0-2.3 1.1-3.2 2.3-.8 1.3-2 2.3-2.7 2.3-.7 0-3.9 2.2-7 5-3.3 2.8-9.7 7.9-14.3 11.3-4.7 3.5-8.6 6.7-8.6 7.2s-2.2 2.3-4.9 4.1c-2.8 1.8-7 5.3-9.4 7.9-3.6 3.9-5.3 4.8-10 5.4-5.2.6-5.4.5-3.6-1.3zM299.7 339.7c1.4-1.8 1.5-5.6.7-24.3-.5-12.2-1.2-22.4-1.5-22.9-.4-.4-1.2.1-1.8 1.1-.9 1.4-1.2 1.1-1.2-1.2 0-2.9 6.7-10.6 9.2-10.6.7 0 1.4-.5 1.6-1.1.2-.5 4.8-4 10.3-7.9 5.5-3.8 13.4-9.4 17.6-12.6 4.1-3.2 8.8-6.3 10.2-7 1.5-.7 2.7-1.6 2.7-2.2 0-.5.8-.9 1.8-.9.9 0 1.8-.4 1.8-.8 0-.6 4.2-3.5 9.4-6.8 5-3.2 9.3-6.6 9.4-7.3 0-.8 1.1-1.5 2.2-1.5 1.3 0 2.6-.5 2.9-1.1.8-1.3 14.4-10.7 15.4-10.7.5 0 3.2-1.9 6.1-4.1 4.1-3.2 6.5-4.1 10.1-4.1 4.1 0 4.5.2 2.9 1.5-1.6 1.2-1.8 2.2-.6 7.9.8 3.5 1.8 7 2.2 7.6.4.7 2.1 6.6 3.8 13 1.6 6.6 3.1 12.3 3.2 12.9.2.6-.1 2.7-.6 4.8-.6 2.5-.4 4.7.7 6.5.8 1.5 1.6 3.3 1.6 3.9.6 3.9 2 6.2 3.5 5.6 1.1-.4 1.6.2 1.6 1.8 0 1.8-1.8 3.3-6.1 5.4-3.4 1.6-7 3.4-8 4-4.3 2.6-7.2 3.8-8.7 3.8-.8 0-5 1.8-9.2 3.9-4.2 2-10.1 4.8-13.2 6.1-2.9 1.3-5.4 2.7-5.4 3.2 0 .6-.8.9-1.8.9-2.3 0-15.3 6.7-17 8.8-.8.9-2.6 1.8-4 1.8s-3.1.5-3.8 1.1c-.6.6-6.8 4.1-14 7.8-17.6 9.2-25.6 13.6-26.9 14.8-.7.6-3.1 1.1-5.3 1.1-3.6 0-3.9-.1-2.2-2zM186.7 292.2c0-1.5-5.9-21.1-6.6-22-.2-.2-1.2.2-2.2 1.1-3.2 2.6-2.2-4.5 1.1-7.4 9.9-9 13.5-11.4 17.5-11.4 2.9 0 3.2.2 2 1.8-.7.9-1.1 2.2-.6 3.1.5.7.4 2.5-.4 3.8-.6 1.4-2.3 7.6-3.8 13.7-2.6 11.2-5.2 18.8-6.3 18.8-.5 0-.7-.6-.7-1.4zM284.8 287.8c.5-1.6-.5-3.5-3.2-6.2-2.1-2.2-4.9-5.2-6.2-6.7l-2.2-2.6 3.2 1.2c8.2 3.2 10.2 4.8 10.2 8.5 0 2.8.5 3.5 1.8 2.9 1.3-.5 1.8.1 1.8 2.2 0 2.3-.6 2.9-3.1 2.9-2.3 0-2.8-.5-2.2-2.2z"/><path d="M296 280.3c1.5-1.2 1.8-3.2 1.3-11-.4-7.9-.1-9.7 1.2-9.7.9 0 2.2.6 3.1 1.4.8.8 1.4 1.1 1.4.7 0-.7 5.2.2 10.6 2 2.1.6 1.1-.7-3.5-4.6-3.9-3.3-7.3-5.3-8.5-4.9-1.3.2-2.1-.2-2.1-1.2 0-1.1-1.3-1.6-3.5-1.6-3.8 0-4.7-1.6-1.6-2.8 2.1-.8 2-6.5-.8-28.3-.6-5.2-1.3-12.1-1.4-15.3-.2-3.3-.7-6.5-1.2-7.3-.5-.7-.9-4.2-1.2-7.8-.2-6.1-.4-6.5-2.2-4.7-2 1.8-2.1 1.8-2.1-.5 0-1.3 1.1-3.8 2.5-5.5l2.3-3.1h-3.5c-2 0-3.6-.5-3.6-1.2 0-.6.8-1.2 1.8-1.2 2.5 0 2.2-3.9-.6-9.6-1.3-2.7-2.3-5.8-2.3-6.8 0-3.4-2.2-4.6-6-3.1-3.3 1.2-3.5 1.6-2.7 5.4.5 2.2.9 5.4 1.2 7 .1 1.6.9 4.6 1.8 6.5.8 2 1.4 3.9 1.3 4.5-.4 1.3 1.5.9 3.1-.6 1.1-1.1 1.4-.8 1.4 1.2 0 2.7-1.2 4.1-8.7 9.7-2.5 1.9-4.1 3.4-3.5 3.4.6 0 2.3-1.1 4-2.3 1.6-1.3 4.7-2.3 6.9-2.3 3.9 0 4 .1 1.8 1.6-2.6 1.9-2.9 9.6-1.2 25.4.5 4.8 1.2 10.7 1.4 12.9.2 2.2.8 7.2 1.2 10.9.7 6.2.6 6.7-1.5 6.7-1.3 0-3.1-.8-3.9-1.8-.8-1.1-2.1-1.6-2.8-1.4-.7.2-2.6-.1-4.2-.9-3.4-1.6-19.5-4.7-22.7-4.2-3.1.5-10-4.6-11.7-8.5-.7-1.8-2.1-2.9-2.8-2.6-.9.4-1.5-.6-1.5-2.3 0-1.6.4-2.9.9-2.9 1.4 0 10.3-8.1 9-8.2-.7 0-2.9 1.6-5 3.5-2.6 2.3-5.2 3.5-7.5 3.5-3.1 0-3.4-.2-2.1-1.8 1.2-1.4.8-2.6-1.9-6.1-1.9-2.5-4.9-6-6.7-7.8-3.3-3.2-3.4-3.6-2.6-10.9.7-6.6.6-7.4-1.1-6.8-3.5 1.4-2.2-4.1 1.4-5.8 1.8-.7 3.4-1.6 3.8-2.1.7-.8 6.3-3.8 12.1-6.2 2.3-.9 4.3-2.3 4.3-3.1 0-.6 1.1-1.2 2.2-1.2 2.6 0 12.3-4.9 15.4-7.6 1.1-.9 2.6-1.8 3.3-1.8.8 0 3.4-1.1 5.8-2.3 2.5-1.3 6.1-2.3 8.2-2.3 3.2 0 3.9-.5 3.9-2.3 0-1.3.9-2.7 2.1-3.2 1.1-.5 4.2-2.2 6.9-4.1 2.7-1.8 5.9-3.3 7-3.3 1.3 0 2.7-.5 3.4-1.1.6-.6 4.2-2.7 8.1-4.7 3.9-2.1 7.9-4.2 8.8-4.8.9-.5 3.9-1.9 6.5-2.9 2.6-1.2 6.3-2.8 8.2-3.8 14.1-7.2 17.5-8.6 20.8-8.6 3.5 0 3.6.1 1.9 2-1.9 1.8-1.6 2.1 2.3 5.8 2.3 2.2 5.3 4 6.5 4 4.1 0 2.1 4.5-3.3 7.8-2.9 1.6-5.2 3.4-4.8 3.6.2.4 2.9-1.1 5.9-3.1 5-3.5 12.4-4.9 12.4-2.5 0 .7-1.2 1.2-2.6 1.2-2.5 0-2.3.2.9 3.8 2 2.1 5.6 8.1 8.2 13.3 2.5 5.2 4.9 9.5 5.5 9.7.5.2.8 1.1.8 2 0 2.6 4.7 12.2 7.4 15.3 1.4 1.5 4.1 5 5.9 7.6 2.7 3.9 3.8 4.6 5 3.4 1.3-1.1 1.6-.8 1.6 1.6 0 1.6-.9 3.6-2 4.2-1.8 1.1-1.4 1.3 2 1.3 3.3 0 3.8.4 2.1 1.2-1.6 1.1-1.8 1.9-.8 4.7.8 2.2 1.8 3.2 2.9 2.7 2.7-1.1 2 4.3-.9 6.8-1.5 1.2-3.2 2.1-3.6 2.2-.5 0-3.8 2.1-7.3 4.7s-6.7 4.7-7 4.7c-1.5 0-18.2 11.9-18.2 12.9 0 .7-1.1 1.2-2.3 1.2-1.2 0-4 1.5-6.1 3.4-2.1 1.8-4.6 3.5-5.3 3.8-.8.2-3.8 2.2-6.5 4.3-2.8 2-9.4 6.7-14.8 10.3-10.9 7.3-13.3 9-18.2 13.7-1.9 1.8-4 3.2-4.8 3.2-.7 0-3.1 1.6-5.2 3.5-2.7 2.3-5 3.5-7.6 3.5-3.2-.1-3.5-.2-1.9-1.5zm-44.7-75c0-1.4-.7-1.1-3.1 1.5-2.2 2.6-2.2 2.6.5.9 1.4-.9 2.6-2 2.6-2.5zm2.3-1.5c0-.4-.2-.6-.6-.6-.4 0-.6.2-.6.6 0 .4.2.6.6.6.4 0 .6-.2.6-.6zm2.3-1.2c0-.4-.2-.6-.6-.6-.4 0-.6.2-.6.6 0 .4.2.6.6.6.4 0 .6-.2.6-.6zm5.5-4.3c2.1-1.5 3.9-3.2 3.9-3.8 0-.6-.7-.5-1.4.1-.8.6-3.1 2.2-4.9 3.6-4.5 3.4-2.6 3.3 2.5 0zm7-5.3c-.5-.4-1.2-.4-1.6 0-.4.5 0 .8.8.8s1.2-.4.8-.8zm25.7-18.6c.5-.9 1.3-1.8 2.1-1.8 1.8-.1 7.5-4.6 5.8-4.7-.7 0-2.1.8-3.2 1.8-.9.9-2.2 1.8-2.8 1.8-.6 0-2 1.1-3.2 2.3-1.3 1.4-1.5 2.3-.7 2.3.7 0 1.6-.8 2-1.8zm14.9-9.9c1.8-.9 3.2-2.1 3.2-2.7 0-.6-1.8.1-3.8 1.5-6.2 4.2-6.1 4.5.6 1.2zm11.4-7.6c0-1.1-4.8.9-6.1 2.6-1.3 1.5-.9 1.4 2.3-.2 2-1.1 3.8-2.1 3.8-2.3zm4.1-3.1c.4-.6.2-1.2-.5-1.2-.6 0-1.5.6-1.9 1.2-.4.7-.2 1.2.5 1.2.6 0 1.5-.5 1.9-1.2zm8.8-5.3c.8-.9.9-1.8.2-1.8-.6 0-1.8.8-2.6 1.8-.8.9-.9 1.8-.2 1.8.6 0 1.8-.8 2.6-1.8zm7.8-5.4c.5-.9.1-.9-1.6 0-1.4.7-2.8 1.9-3.3 2.6-.5.9-.1.9 1.6 0 1.4-.7 2.8-1.9 3.3-2.6zm6.2-4.5c-.7-.2-2.1.5-3.2 1.5-1.8 1.8-1.8 1.8 1.2.5 1.8-.8 2.7-1.8 2-2z"/><path d="M281.7 270.6l-3.1-2.9-4.2 2.3c-3.5 2-4.3 2.1-4.3.7 0-1.1 1.2-1.8 2.9-1.8 1.6 0 2.9-.7 2.9-1.5 0-1.1-1.5-1.4-4.9-1.1-4 .2-4.6.1-2.9-.9 2.7-1.8 2.6-3.5-.5-3.5-1.4 0-4.1-1.8-6.1-4-7.6-8.3-10.2-11.4-10.2-12.3 0-1.5 21.7 3.5 28.1 6.5 2.1 1.1 5.2 1.6 6.7 1.3 2.6-.5 2.8-.1 2.6 4-.1 2.7-.8 4.7-1.9 5.2-1.2.4-1.5 1.6-1.1 3.9.2 1.8.2 4.1-.2 5.3-.7 1.8-1.1 1.8-3.8-1.1zM150.7 256l-1.2-4.7 5.3-2.3c8.1-3.6 8.1-3.6 3.4 5.3-1.1 2-2.8 4.2-4 4.9-2 1.4-2.3 1.1-3.5-3.2z"/><path d="M175.2 258.8c1.6-1.6 1.6-2.5-.4-8.9-2.8-8.8-2.8-8.8.5-9.9 2.2-.8 2-1.1-2.1-1.8-4.7-.8-12 .8-20.2 4.3-2.1.8-4 1.2-4.2.7-.4-.5-.9-4-1.3-7.9-1.3-10.5-1.9-12.2-3.8-11.5-2.5.9-2.1-3.6.5-5.9 1.2-1.2 2.9-2 3.9-2 .9 0 2.2-.5 2.9-1.1.6-.6 4.2-2.8 8.1-4.9 3.9-2.1 7.3-4.1 7.6-4.6.4-.4 4-2.3 8.2-4.5 10.3-5 25-13 26.4-14.4 1.4-1.4 8.8-1.4 8.8 0 0 .6-.7 1.3-1.5 1.6-1.2.5-2 5.3-2.9 16.3-.7 8.6-2.1 19.3-3.1 23.8-1.8 8-1.5 10.9.5 7.6 1.5-2.5 2.6-.8 1.8 2.6-.5 1.8-5.3 6.7-12.4 12.6-9.2 7.5-12.3 9.5-15.4 9.5-3.4 0-3.6-.1-1.9-1.9zM293.6 257.2c0-.7.8-1.2 1.8-1.2.9 0 1.8.2 1.8.5 0 .2-.8.7-1.8 1.2-.9.4-1.8.1-1.8-.5zM77.9 245.7c1.2-1.2 2-2.9 2-4 0-.9.4-2 .7-2.5.5-.4 2.5-6 4.6-12.4 2.2-6.3 4.8-13.3 5.9-15.4 2.6-5 1.8-5.4-2.7-1.1l-3.8 3.8 2.7-6c1.5-3.4 5.5-8.6 8.7-11.6 7.4-7 25.8-22.9 28.1-24.2.9-.5 1.6-1.8 1.6-2.7 0-.9 1.5-2.3 3.4-2.9 1.8-.6 4-2.5 4.8-4 .8-1.6 2-2.9 2.5-2.9 1.3 0 24-18.6 31.1-25.5.8-.8 2-1.5 2.6-1.5.7 0 1.4-.8 1.9-1.8.4-.9 1.4-1.8 2.3-1.8.9 0 1.9-.4 2.1-.9.2-.5 4.6-4.2 9.7-8.3 5.2-4.1 10-8.2 10.7-9.2.7-.8 3.3-1.5 5.6-1.5 3.9 0 4.2-.2 4.2-3.5 0-2 .6-3.5 1.5-3.5.7 0 2.7-1.4 4.2-3.1 3.2-3.3 12.8-8.1 18.9-9.3l4.1-.8-4 3.1c-4.6 3.4-4.6 3.5 1.1 1.9 6.7-2 27.2-4.5 32.9-4 2.9.2 8.5.7 12.3 1.1 3.9.5 7.9.8 8.8.8.9 0 2.3.6 3.1 1.1.7.6 2.6 1.1 4.1 1.1 3.6-.1 7.3.5 8.7 1.4.7.4 2.8 1.1 4.8 1.4 2 .5 9 3.4 15.7 6.7 6.7 3.2 12.8 5.6 13.7 5.3.9-.5 1.5.4 1.5 2.1 0 2.3-1.6 3.6-9.6 7.6-5.4 2.6-11.6 5.8-13.9 6.9-2.2 1.3-5.6 3.1-7.6 3.9-1.9.9-3.8 1.9-4.1 2.2-1.4 1.4-16.8 9.3-27.2 14-2.9 1.3-5.8 2.9-6.2 3.6-.4.6-1.5 1.2-2.6 1.2-1.4 0-20.8 9-27.4 12.8-.9.6-4.3 2.2-7.6 3.8-3.2 1.5-6.3 3.4-6.8 4.2-1.3 2.1-10.2 2-10.2-.1 0-.9.7-1.9 1.6-2.2 2.2-.9.9-6.7-2.1-9.4-2.3-2.1-2.5-2.1-4.5.4-3.2 3.9-2.3 13.7.9 12.4 1.1-.4 1.6.2 1.6 1.5 0 2-8 8.3-10.6 8.3-1.4 0-5.8 2.3-8 4.5-.8.7-2.7 1.4-4 1.4-1.3 0-2.6.9-2.9 2.3-.5 1.6-1.6 2.3-3.8 2.3-1.6 0-5.2 1.3-7.8 2.9-2.6 1.5-8.9 4.9-14.1 7.6-5.2 2.7-10.2 5.6-11.3 6.6-2 1.8-9.3 2.2-9.3.7 0-.6.9-1.9 2.1-2.9 1.8-1.6 2.1-3.5 1.9-11.4-.2-5.2-.6-9.9-.9-10.5-.4-.6-2.2-1.3-4.2-1.5-3.9-.6-6.8 1.6-7.6 5.9-.2 1.3-1.2 4-2.2 5.9-1.1 2-2.1 5.4-2.3 7.8-.2 2.2-.8 4.7-1.3 5.4-.4.6-.9 2.1-1.2 3.2-.2 1.2-.7 3.1-1.2 4.2-.9 2.1 1.1 2.8 2.3.8 1.8-2.8 2.7-.8 1.3 2.6-1.3 2.8-3.9 4.9-11.5 9-5.4 2.9-11.4 6.6-13.2 8.1-1.9 1.4-4.1 2.6-4.9 2.6-.9 0-4.5 1.9-8 4.1-4 2.5-8 4.1-10.2 4.1-3.5 0-3.6-.1-1.9-2.1zm139.4-127.8c-2.6-2.3-5-5.5-5.4-7-.9-3.4-2.9-3.6-5.9-.4-2.1 2.3-2.1 2.5 1.3 5.5 4 3.6 7.8 5.5 11.9 5.9 2.5.2 2.3-.2-1.9-4zM114 164.1c1.6-1.4 9.3-11.9 9.3-12.9 0-.9 10-15.4 12.9-18.7 1.5-1.9 3.5-3.3 4.3-3.3.8 0 1.5-.7 1.5-1.4.1-2.9 26.2-18.3 38.2-22.5 2.6-.9 5.6-2 6.8-2.5 1.5-.7 2-.2 2 2.1 0 2.2-1.9 4.5-7.9 9.2-4.5 3.4-9 7.4-10.5 8.8-1.3 1.4-4.7 4-7.3 5.8-2.7 1.8-4.9 3.6-4.9 4.1 0 .4-2.2 2.3-4.9 4.3-2.8 2-6.9 5.3-9.2 7.4-2.2 2-6.5 5.6-9.3 8-2.9 2.3-7.4 6.3-10.1 8.8-3.8 3.3-6 4.3-8.9 4.3-3.4-.1-3.8-.4-2.1-1.5z"/></g><g fill="#65ddff"><path d="M341 452.5c.4-2.5.7-6.3.7-8.7 0-3.3 1.2-5.4 5.9-10.6l5.8-6.3.1 8c0 8-.1 8.2-5.5 14.9-3.2 3.9-6.1 6.9-6.7 6.9-.6.1-.7-1.9-.2-4.2zM135.8 450c-.4-2.3-.9-6.9-1.4-10.2-.5-3.2-1.2-6.3-1.6-7-.5-.6-1.2-2.5-1.5-4.1-.6-2.3-.1-3.3 2.7-4.9 2-1.1 3.5-2.8 3.5-3.9 0-.9.8-1.8 1.8-1.8.9 0 1.8.7 1.8 1.5 0 .9.8 3.3 1.9 5.4 1.9 3.6 1.8 3.8-2.6 9.2-4.5 5.4-3.6 5.9 1.6 1.1 3.2-2.8 4.2-1.8 5.4 5.4.7 4.1.4 4.9-3.1 8.1-6.7 6.2-7.8 6.3-8.5 1.3zM157.4 435.1c0-8.5 3.1-13 13.5-20 5.3-3.5 10.3-6.5 11.2-6.5.7 0 2.2-1.1 3.3-2.3 2.7-3.2 7.3-4.1 7.3-1.4 0 1.1.4 4 .7 6.5.6 3.5.5 4.3-1.1 4.3-1.1 0-3.3 1.3-5 2.9-1.8 1.6-3.4 2.9-3.5 2.9-.2 0-.4-1.8-.2-3.8.4-3.2-.1-3.9-1.9-3.9-1.5 0-3.4 2.2-5.9 7-4.2 8.2-4.1 8.1-12.1 13.9l-6.2 4.3v-4.1zM49.9 429c.5-8.5.1-7.9 10.3-16.4l3.2-2.7v3.5c0 4.5 1.1 4.5 4.6 0 1.5-2 3.3-3.5 3.9-3.5.7 0 2.2-1.3 3.5-2.9 1.3-1.6 3.1-2.9 4-2.9.9 0 1.6-.8 1.6-1.8 0-.9.7-1.8 1.6-1.8.9 0 1.9-.8 2.3-1.8.4-.9 1.4-1.8 2.3-1.8.9 0 1.9-.6 2.1-1.3.2-.7 2-1.1 3.9-.8l3.4.4-4.1 3.8c-2.2 2-6.3 5.9-9.2 8.5-2.8 2.7-5.8 4.8-6.7 4.8-.8 0-1.9 1.1-2.2 2.3-.4 1.3-1.2 2.3-1.6 2.3-.5 0-2.9 2-5.5 4.5-10 9.2-15.3 13.9-16.6 14.7-1.1.7-1.3-1.3-.9-7zM289.5 403.3c.6-8.7 1.3-11.9 3.2-13.9 1.2-1.3 2.6-2.8 3.1-3.4 1.9-2.1 6.6-5.5 7.5-5.5 1.2 0 1.2 3.3.1 16.1l-.7 9.7-5.3 4.1c-8.3 6.5-8.9 6-7.9-7.2zM212.2 403.1c-.5-.4-.8-2.2-.8-4.1 0-2.8-.5-3.3-3.5-3.3-3.4 0-3.4-.1-1.5-2.3 1.2-1.3 2.9-2.3 4-2.3s2.2-.8 2.7-1.8c.4-.9 1.6-1.8 2.8-1.8 1.2 0 3.2-1.1 4.3-2.3 1.2-1.3 3.1-2.3 4.1-2.3 1.1 0 3.2-1.3 4.6-2.8 2.7-2.8 2.7-2.9.2-2.2-1.4.4-2.8 1.1-3.2 1.6-.4.6-1.4 1.1-2.5 1.1-1.6 0-1.5-.4.4-2.5 3.2-3.5 6-4.8 14-6.5 3.9-.8 10.6-2.5 15-3.5 9.9-2.3 18.4-1.5 18.4 1.9 0 1.3-.6 2-1.4 1.8-.8-.4-2.8.2-4.5 1.1-1.6.9-4.8 2.7-7 3.9-8.1 4.3-11.3 6.3-14.7 9.5-.8.7-2.5 1.4-3.4 1.4-1.1 0-1.9.6-1.9 1.2 0 .7-1.1 1.2-2.3 1.2-1.4 0-3.6 1.3-5.2 2.9-1.5 1.6-3.5 2.9-4.3 2.9-.9 0-2.9 1.1-4.6 2.3-1.6 1.3-3.4 2.3-4 2.3-.6 0-2 .8-3.1 1.8-1.1.9-2.3 1.4-2.7.9zM51.3 392c.7-7.9 1.2-9.2 6-15 2.8-3.5 5.6-6.6 6.2-6.8.6-.2 1.1 3.1 1.1 7.4 0 6.7-.5 8.5-3.2 12.1-3.8 5-9.3 10.8-10.2 10.8-.5 0-.4-3.9.1-8.5zM98.9 390.9c.4-3.6.7-4 4.3-4.3 4.8-.5 4.5 1.3-.9 5.5l-3.9 2.9.5-4.1zM177 387.9l-5.8-1.8 2.8-3.1c1.4-1.8 3.3-3.5 3.9-4.1.7-.5.4-1.5-1.1-2.6-2.2-1.6-2-1.8 2.3-1.8 6.8 0 15.7 3.5 15.7 6.2 0 1.2-.5 1.8-1.2 1.4-.6-.4-2.8 1.2-4.8 3.4-4.1 4.7-4 4.7-12 2.2zM409.1 380.8c2.1-15.4 2.6-17 6.5-20 2.1-1.6 5.9-5.3 8.6-8.1 2.7-2.8 5-4.9 5.4-4.7.2.4-.2 5.2-1.1 10.7-1.5 10.2-1.8 10.8-9.2 17.6-.7.7-3.1 3.2-5.3 5.6-2.1 2.3-4.3 4.3-4.8 4.3s-.6-2.5-.1-5.5zM218.4 379.9c0-.4.2-.6.6-.6.4 0 .6.2.6.6 0 .4-.2.6-.6.6-.4 0-.6-.2-.6-.6zM196.9 365.4c-1.2-1.2-2-3.6-2-5.4 0-2.8.2-2.9 2.3-1.9 3.3 1.8 4.8-2 1.8-4.2-2-1.5-1.9-1.6 2.1-1.6 5.3 0 7.9 3.3 7.9 10.2v5h-5c-3.5 0-5.8-.7-7-2.1zM130.6 362.5c-3.8-4-3.5-4.7 4.5-10.2 2.2-1.5 4.3-2.9 4.6-3.2.2-.1-.2-1.1-1.1-2.1-1.3-1.5-1.1-1.8 1.6-1.8 4.1 0 10 6.5 10.1 11 0 2.8-.2 3.2-1.8 1.9-1.4-1.2-2.7-.6-7.5 2.8-3.2 2.3-6.2 4.2-6.8 4.2-.6 0-2.2-1.2-3.6-2.7zM286.5 352.4c0-5.2.4-10.1.7-11.2.9-2.3 2.8-2.5 2.8-.1 0 2.5 1.6 2.2 8.2-1.1l5.6-2.8.5 6c.2 3.4 0 6.8-.7 7.8-.7.8-4 2.9-7.4 4.5-3.4 1.6-6.2 3.8-6.2 4.6 0 .9-.8 1.6-1.8 1.6-1.4 0-1.8-1.8-1.8-9.3zM445.9 341.7l-5.5-4.5 3.5-1.8c3.4-1.8 3.6-1.6 8.5 2.3 4.9 4.1 5.6 5.9 2.9 7.6-2.3 1.5-3.5 1.1-9.4-3.8zM236.6 339.4c-.5-.7-1.1-4.1-1.4-7.6l-.7-6.5h3.6c2.7 0 4.2-.8 5.6-2.9 1.5-2.3 2.9-2.9 6.8-2.9 5.8 0 7.8 1.5 7.8 6.2 0 2.7-.4 3.2-2.2 2.6-2.7-.8-3.9.6-2.5 2.9 1.2 1.9-.6 5.9-2.5 5.9-.7 0-.9-.5-.6-.9.2-.5.1-1.5-.4-2.3-1.1-1.8-8.3 2.6-8.3 5 0 2-4.1 2.5-5.3.6zM113.9 322.7c0-7.3 0-7.3 6-12.8 3.6-3.4 5.6-6.1 5.2-6.9-.6-.9 0-1.3 1.9-.9 3.2.4 4.2 3.6 4.5 13.5.1 6.5-1.6 9.3-3.2 5-.8-2.2-1.3-2-6.6 3.5-3.1 3.2-6.1 5.9-6.7 5.9-.6 0-1.1-3.3-1.1-7.3zM417.8 306.6c-.7-23.6-.4-26.5 3.3-28.2 1.6-.7 3.2-1.3 3.4-1.3.7 0 2.9 8.6 4.7 18.8.9 5 2.7 11.6 4.1 14.7 1.4 3.1 2.3 5.8 2.1 6-.8.7-12 6.6-14.6 7.5-2.5.9-2.5.8-3.1-17.5zM184.4 318.4c0-1.5.6-2.2 1.6-1.8.8.4 2.7-.7 4-2.3 3.2-4.1 4-3.9 3.5 1.4-.4 4.1-.6 4.3-4.7 4.7-3.9.4-4.5 0-4.5-2zM252.5 315.2c0-.8 10.3-11 11.2-11 1.5 0 .4 7.3-1.4 9.4-1.9 2.1-9.7 3.5-9.7 1.6zM133.5 308.6c-1.5-5.9-2.2-15-1.5-17 .8-1.9 1.1-1.9 2.3.5 1.3 2.6 1.8 2.3 13.5-9 6.7-6.5 12.3-11.7 12.4-11.7.1 0 .6 2.3 1.1 5.3.4 2.9 1.1 7.6 1.4 10.3.6 4.1.4 5.3-1.2 5.9-1.3.6-1.9.1-1.9-1.5 0-1.3-.5-2.3-.9-2.3-1.9 0-4.9 4.2-4.9 6.8 0 1.4-.6 2.6-1.3 2.6-.6 0-.8-.5-.5-1.2.4-.6.2-1.2-.4-1.2-1.9 0-13.7 12-13.4 13.6.6 2.8-4.1 1.9-4.8-.9zM6.8 305.7c.8-.4 1.9-.2 2.2.1.5.4-.2.7-1.5.6-1.3 0-1.6-.4-.7-.7zM283 302.4c-.8-.9-2.1-1.8-2.9-1.8-2.3 0-5.3-4.1-5.3-7.6 0-2.7.2-2.9 1.6-1.9 2.1 1.8 4.6.6 10.1-4.6 2.2-2 5.9-4.7 8.3-5.9 2.3-1.3 4.6-2.9 4.9-3.8.9-2.8 1.8-.4 2.2 6.6.2 5.6 0 7-1.9 8.2-1.2.7-3.8 2.7-5.6 4.6-2 1.8-4 3.2-4.6 3.2-.6 0-1.1 1.1-1.1 2.3 0 2.8-3.8 3.2-5.9.6zM224.6 301c-1.4-3.6-1.1-13.6.6-14.1.8-.4 1.4.5 1.4 1.9 0 2 1.4 1.4 10.5-4.6 5.8-3.9 10.9-7 11.5-7 .6 0 2.6-1.5 4.5-3.5 1.8-1.9 3.6-3.2 4.1-2.9.5.2 2.7-.8 5-2.3 2.3-1.6 4.6-2.9 4.9-2.9.5 0 2.1-1.1 3.8-2.3 3.2-2.5 7.4-3.2 7.4-1.2 0 .7.8 1.2 1.8 1.2 1.2 0 1.8-1.2 1.8-3.2 0-2.7 1.3-4.1 6.8-7.6 8.7-5.6 10.1-6.1 13-4.5 4.1 2.1 2.8 4.2-6 9.4-4.7 2.8-11.3 6.8-14.7 8.9-3.3 2.2-6.3 4-6.8 4-2.1 0-11.2 7.4-11.2 9.2 0 1.6-.2 1.6-1.1.4-.8-1.4-1.6-1.2-4.2.9-1.8 1.3-4 2.5-4.9 2.5-.9 0-1.4.5-1.1 1.1.9 1.4-12.1 14.4-13.5 13.6-.6-.5-1.1-1.5-1.1-2.5 0-2.5-7.2 2.6-8 5.6-.7 2.7-3.5 2.7-4.6.1zM256 292.6c0-1.2 2.6-3.8 3.6-3.8.5 0 .8 1.1.7 2.3-.1 2.2-4.3 3.5-4.3 1.4zM120.5 284.2c1.3-6.9 2.6-9.4 5-9.4 2.7 0 2.2 2.6-1.1 6.5-1.2 1.3-2.7 3.4-3.4 4.7-1.2 2-1.3 1.8-.6-1.8z"/><path d="M233.7 280.1c0-2.5 2-5.3 3.8-5.3 1.6 0 1.1 2-1.4 4.8-2.2 2.7-2.2 2.7-2.3.5zM53.3 274.2c6.2-7.6 8.9-12.9 8.9-17.4 0-2.1 1.1-3.3 3.8-4.5 2.1-.8 4.7-2.5 5.9-3.6 1.2-1.2 2.7-2.1 3.4-2.1.7 0 2.8-1.1 4.7-2.5l3.4-2.3v2.9c0 1.6-.6 5.6-1.3 8.9-1.4 6.6-4 9.2-14.7 14.4-3.2 1.6-6.6 3.9-7.4 4.8-.9 1.1-2.6 1.9-3.8 1.9-1.2 0-2.6.7-3.1 1.5-.5.7-2 2.2-3.3 3.2-1.2.9.4-1.4 3.4-5.3zM166.9 275.8c-.7-2.1-1.3-5.9-1.3-8.5 0-3.8.4-4.5 1.9-3.9 1.2.5 3.8-1.1 7.3-4.1l5.4-4.7 1.4 3.9c2.6 6.8 2 8.3-4.2 13.2-4.7 3.6-5.6 4.8-4.6 6.1 1.1 1.3.8 1.6-1.6 1.6-2.2 0-3.3-.8-4.2-3.6zM135 260.7c0-1.3.2-2.3.5-2.3.2 0 1.3-.4 2.2-.7 1.2-.4 1.9.4 2.2 2.3.5 2.6.2 3.1-2.1 3.1-2 0-2.8-.7-2.8-2.3zM195.2 249.7c.4-4.5 1.2-8.3 1.9-8.8 5.4-3.4 15.5-12.8 15.5-14.4 0-.5.6-.9 1.2-.9.7 0 1.2 1.1 1.2 2.3 0 1.5.8 2.3 2.3 2.3 2.5 0 3.2-1.8 1.2-2.9-.6-.4-1.2-2.9-1.2-5.6.1-4.6.2-4.8 1.8-2.7 1.5 2 2.1 2.1 4.6.8 1.5-.8 4.1-2.8 5.8-4.3l3.1-2.8 2.9 3.6c4 4.7 3.9 6.1-.9 8.3-2.2 1.2-4.7 3.5-5.5 5.5-.9 2-2.5 3.6-3.4 3.6-.9 0-3.1 1.1-4.7 2.3l-2.9 2.3h3.4c2.8 0 3.2.2 1.9 1.8-.8.9-3.2 1.8-5.3 1.8-3.2 0-4 .6-4.6 3.1-.5 1.6-1.9 4.1-3.2 5.5l-2.2 2.5.7-3.8c.5-2.5.4-3.8-.6-3.8-.7 0-1.3.4-1.3.9s-2.7 3.2-6.1 6l-6 5.3.6-8zM128.5 248.7c.9-4.7.8-4.6 5.2-3.8 5 1.1 4.9 4.2-.1 6.1-5.5 2-5.9 1.9-5-2.3zM113.9 238.3c0-1.3.9-5.4 2-9.2 1.8-6 2.6-7 7.8-10.2 3.2-1.9 6-3.3 6.5-3.3.5.1 2.1-.8 3.6-2 1.5-1.3 3.8-2.2 4.9-2.2 1.3 0 2.2-.5 2.2-1.1 0-1.4 6.7-4.8 7.5-3.9.4.4.7 3.8.7 7.5v6.8l-5.5 3.5c-3.2 1.9-6.3 3.5-7.2 3.5-1.2 0-1.5 1.5-1.2 5.9.4 5 .1 5.9-1.9 5.9-1.8 0-2-.6-1.4-4.1.7-3.3.5-4.1-1.1-4.1-.9 0-1.8.6-1.8 1.2 0 .7-1.2 1.2-2.6 1.2-1.5 0-3.9 1.3-5.3 2.8-3.6 3.9-7.4 4.7-7.4 1.8zM72.2 221.9c.5-2.9 1.4-5.9 2-6.7 2.1-2.7 10.3-20.6 10.3-22.5 0-1.2 2.2-4 4.9-6.1 2.7-2.2 6.9-6 9.3-8.3 2.3-2.5 4.6-4.5 4.8-4.5.4 0 3.6-3.1 7.5-6.7l6.9-6.8.4 3.6c.4 3.2-4.2 13.6-6.7 15.7-.5.4-2.6 4.2-4.8 8.7-4.1 8.1-5.9 10.5-15.3 19-2.9 2.6-7.2 6.8-9.5 9.4-2.3 2.5-5.6 5.9-7.5 7.5l-3.2 2.9.8-5.3zM402.3 214.8c-1.4-7.3-.9-8.6 4.6-12.1 2.9-1.8 5.5-3.2 5.8-2.9.6.8 3.2 11.9 2.8 12.2-.7.7-11.4 6.5-11.9 6.5-.4 0-.8-1.6-1.3-3.6zM396.9 196.8c-2.1-4.1-1.1-6.6 4.3-9.6l4.9-2.7 1.4 4.6c.8 2.6 1.2 4.8.9 5-.2.1-2.6 1.4-5.3 2.8l-4.8 2.6-1.5-2.7zM275.5 191.6c-.4-.6-.9-3.1-1.3-5.6-.7-4.3-.6-4.7 4-7.5 2.7-1.6 4.8-3.3 4.8-3.8 0-.6.7-.9 1.6-.9.8 0 2.3-.8 3.2-1.9 1.4-1.6 1.8-1.4 2.9 2 2.3 6.6 2 7.6-4.8 12.1-3.5 2.3-6.7 4.8-7 5.4-.9 1.4-2.6 1.5-3.4.2zM204.3 182.7v-7.6l6.2-3.1c3.3-1.8 7.3-3.3 8.8-3.5 2.5-.2 2.6.1 2.6 6.7v6.9l-7.9 3.6c-4.5 2-8.3 3.8-8.8 4.1-.6.2-.9-2.9-.9-7.2zM269.2 151.4c.7-6.7 2-8.1 7.8-8.1 2.9 0 4.1.7 5.2 2.9 1.2 2.5.9 3.3-.9 4.7-2.2 1.8-10.9 6.5-12 6.5-.4 0-.2-2.7 0-6zM356.5 132.6c-3.1-3.4-3.2-3.6-1.1-5.2 1.2-.9 2.6-1.8 3.2-1.8.7 0 2.3-1.2 3.8-2.5 2.6-2.5 2.9-2.5 5.6-.7 5.6 3.8 4.5 10.1-1.8 10.2-1.1 0-2.2.8-2.7 1.8-1.1 2.7-3.5 2.1-7-1.9zM337.6 116.8c-1.9-1.5-4.2-2.8-4.9-2.9-3.4 0-1.1-2.6 5.5-5.9 6.9-3.5 7.3-3.5 11-1.8 2.2 1.1 4.8 2.8 5.9 4 1.8 1.9 1.4 2.3-5.2 5.8-3.8 2.1-7.4 3.8-7.9 3.8s-2.5-1.3-4.5-2.9zM197.8 110.7l-2-5-6.6.8-6.6.7 2.2-2.6c1.3-1.3 2.9-2.5 3.9-2.5.8 0 1.5-.6 1.5-1.2 0-.7 1.4-1.9 3.3-2.7 1.8-.7 4.9-3.2 7.2-5.2 2.2-2.1 4.8-3.9 6-3.9 1.1 0 2.5-.6 3.2-1.3.7-.7 4.7-1.5 8.8-1.6 4.1-.1 9.7-1.2 12.7-2.1 2.9-1.1 7.4-2.1 10-2.6l4.7-.7-2.9 2.3c-9 7.4-21.1 15.4-25.5 16.8-2.8.8-5 2.2-5 3.1 0 1.9-8.1 9.5-10.2 9.6-.7 0-1.6.7-1.9 1.5-.4.7-1.5-.8-2.7-3.5zM199 73.2c1.1-6.2 5.6-17.4 7-17.5 1.5-.1 5.3-1.5 8-2.9 1.3-.7 2-.7 2 .1 0 .6-.5 1.2-1.2 1.2-.6 0-1.2.7-1.2 1.6 0 .8-.7 2.2-1.5 2.9-.9.7-2.6 4.3-3.9 8.2-1.8 5.8-2.8 7.3-6.1 8.9l-4 1.9.8-4.5zM266 39.9c-1.3-.6-5.9-1.1-10.2-1.1-4.5-.1-8-.6-8-1.3 0-.6.7-1.2 1.6-1.2.8 0 2.2-.8 3.1-1.8 1.9-2.2 5.9-2.2 8.8 0 8.6 6.5 9.3 7.3 4.7 5.3z"/></g><g fill="#ff95ff"><path d="M144 445.3c-.4-1.1-.9-3.9-1.3-6.1-.7-4.1-.5-4.3 6.1-8.8 3.8-2.6 7-4.9 7.4-5.3 1.1-1.1 11.7-8.2 12.3-8.2.2 0-1.3 3.8-3.5 8.5s-4.1 9.2-4.1 10c0 1.2-4.2 4.7-9.5 8-1.1.7-3.1 1.9-4.3 2.6-2.1 1.3-2.5 1.2-3.1-.6zM349.4 439.2c.6-5.4 1.6-9.7 2.8-11.2 3.8-4.7 7.9-9.3 15.7-17.5 4.3-4.6 7.9-8.3 7.9-8.5 0-1.1 6.7-7.5 7.9-7.5.8 0 1.5-.7 1.5-1.4.1-1.3 15.7-18.2 20.1-21.6.9-.7 3.8-3.6 6.2-6.5 5-5.6 6.6-4.9 4.5 2.3-.6 2.3-1.9 7.4-2.8 11.3-1.1 4.8-2.2 7.4-3.9 8.2-1.4.6-6 4.7-10.3 9.2-4.3 4.3-8.3 7.9-8.9 7.9-.6 0-1.3.6-1.5 1.2-.2.7-6.5 7.6-14 15.6-7.5 7.9-16.4 17.3-19.7 20.8l-6.1 6.5.7-8.8zM139.3 428.5c-3.8-7.6-3.2-8.7 14.9-26.4 22.3-21.7 19.5-19.8 27.2-17.5l6.6 1.9-15.6 15.4c-8.6 8.5-19.1 18.7-23.4 22.9l-7.9 7.5-1.9-3.8zM59.2 421.1c.6-7.3 1.1-8.5 4.6-11.7 7.3-6.7 10.8-9.6 16.4-13.6 3.1-2.1 5.5-4.3 5.5-4.9 0-.5.6-.9 1.3-.9.7 0 2.6-1.5 4.2-3.5 1.5-1.9 3.4-3.5 4-3.5.6 0 2-.9 3.2-2 1.2-1.2 3.6-3.2 5.4-4.5 1.9-1.3 5.2-4.1 7.4-6.1 2.2-2.1 4.8-3.9 5.8-3.9.8 0 2.1-1.1 2.8-2.3.7-1.3 1.8-2.3 2.3-2.3 1.1 0 4.6-2.6 7.4-5.4.9-.8 2.3 0 4.8 2.8 3.3 3.8 3.4 4.1 1.5 5.5-1.8 1.3-6.3 5-14.1 11.5-1.4 1.3-4 2.9-5.8 3.9-1.8.9-3.8 2.7-4.5 4-.7 1.3-1.8 2.3-2.3 2.3-.6 0-3.1 1.9-5.5 4.1-2.5 2.2-4.9 4.1-5.6 4.1-.6 0-3.4 2.1-6.2 4.7-2.8 2.6-5.2 4.7-5.4 4.7-.8 0-9.2 7.4-16.1 14.1-3.6 3.5-7.9 7.5-9.3 8.8l-2.6 2.3.7-8.1zM189.2 409.1c-.1-3.8.2-6.2.8-5.9.6.4 2.2-.6 3.6-2.1s4.8-3.8 7.5-4.9c2.7-1.2 5.2-2.5 5.5-2.9.9-1.2 6.8-2.3 7.4-1.4.4.6.8 3.1.9 5.5.5 4.3.2 4.8-4.8 7.9-2.9 1.8-7.2 4.2-9.4 5.4-2.2 1.1-4.8 2.7-5.6 3.5-.8.8-2.5 1.5-3.6 1.5-1.6 0-2.1-1.2-2.3-6.6zM299.3 405.4c-.2-4-.2-3.9.7-14.7.6-7 1.3-9.4 2.7-9.9 1.2-.5 3.9-2.7 6.1-5.2 2.2-2.3 6.3-5.8 9.2-7.5 2.7-1.8 4.9-3.6 4.9-4.1 0-.5 3.9-3.6 8.6-7.2 4.6-3.4 11-8.5 14.3-11.3 3.2-2.8 6.3-5 7-5 .7 0 1.9-1.1 2.7-2.3.8-1.3 2.2-2.3 3.2-2.3.9 0 1.8-.6 1.8-1.2 0-.7 1.3-1.8 2.9-2.3 1.6-.6 2.9-1.6 2.9-2.3 0-.6.8-1.2 1.8-1.2 1.1 0 2.1-.8 2.5-1.8.4-.9 1.8-2 3.1-2.5 1.3-.4 3.2-1.5 4.2-2.5 5.4-4.7 11.4-8.6 13.3-8.6 1.3 0 2.2-.8 2.2-1.8 0-.9 1.5-2.5 3.4-3.5 2-.9 3.8-2.2 4.1-2.8 1.3-2.1-4.7.2-21.4 8.2-9.3 4.5-17.3 8.1-17.8 8.1-.8 0-10.5 4.5-15.3 7-8.8 4.8-22.8 11.7-23.7 11.7-.7 0-2.8 1.2-4.8 2.7-2.1 1.4-5.9 3.5-8.5 4.7-2.6 1.2-5.5 2.9-6.6 3.9-1.6 1.5-1.9.9-2.1-5.6-.1-6 .2-7.6 1.9-8.7 3.8-2.3 14.8-8.2 27.8-15 6.9-3.6 13.9-7.5 15.3-8.5 1.5-.9 3.1-1.3 3.4-.8.5.4 2-.4 3.5-1.6 3.2-2.9 14.2-8.6 16.7-8.6.9 0 1.8-.4 1.8-.9s2.5-1.9 5.4-3.2c3.1-1.3 8.9-4.1 13.2-6.1 4.1-2.1 8.5-3.9 9.6-3.9 1.2 0 2.7-.8 3.5-1.8.8-.9 2.1-1.6 2.8-1.5.7.1 2.6-.6 4.2-1.6 1.6-1.1 4.9-2.8 7.3-3.8l4.3-1.9.1 15c.1 8.2.2 18.2.4 22.3l.2 7.4-5.9 3.3c-3.2 1.9-7.9 4.5-10.2 5.9-2.5 1.3-6.5 3.5-8.8 4.9-2.5 1.4-5.2 3.1-6 3.6-1.6 1.4-7.9 5-12 7-1.6.8-3.6 2.5-4.5 3.5-.8 1.2-2.6 2.1-3.9 2.1-1.2 0-2.2.4-2.2.9 0 1.2-12.4 10.8-14 10.8-.7 0-1.3.4-1.3.9 0 1.4-12.6 10.8-14.6 10.8-1.1 0-1.9.7-1.9 1.6 0 .8-1.2 2.3-2.6 3.4-1.5.9-4.2 3.1-6.2 4.8-1.9 1.6-3.9 3.1-4.2 3.1-.5 0-2.7 1.8-4.9 3.9-5.6 5.2-7 6.3-10 7.2-1.3.5-2.7 1.8-3.1 2.8-.4 1.1-2 2.6-3.6 3.4-2.7 1.2-2.9 1.1-3.1-1.8zm104.6-101.8c0-.4-.2-.6-.6-.6-.4 0-.6.2-.6.6 0 .4.2.6.6.6.4 0 .6-.2.6-.6zM60.5 381.8l.6-9.7 7.4-8.2c7.2-8.2 23.7-25.7 40.7-43.1l8.9-9-.4 8c-.2 8.9.2 8.2-15.6 24.3-4.2 4.2-8.9 9.4-10.6 11.3-1.5 2-6 6.9-10 11.2-9.5 10.5-16.1 17.8-19.3 21.7l-2.5 3.3.6-9.6zM298.9 288.1c-.8-4.8-.9-6-.7-8.3.1-1.9 7.2-8.5 9-8.5.8 0 2.9-1.4 4.8-3.2 4.9-4.7 7.3-6.5 18.2-13.7 5.4-3.6 12-8.3 14.8-10.3 2.7-2.1 5.6-4.1 6.5-4.3.7-.2 3.2-2 5.3-3.8 2.1-1.9 4.9-3.4 6.1-3.4 1.3 0 2.3-.5 2.3-1.2 0-1.1 16.7-12.9 18.2-12.9.4 0 3.5-2.1 7-4.7s6.7-4.7 7-4.7c.5 0 2.2-1.1 3.9-2.5l3.1-2.3 1.4 6.2c.8 3.4 1.1 6.3.5 6.6-.6.2-3.4 2.2-6.3 4.5-2.9 2.2-5.5 4-6 4-.9 0-14.6 9.4-15.4 10.7-.4.6-1.6 1.1-2.9 1.1-1.2 0-2.2.7-2.2 1.5-.1.7-4.3 4.1-9.4 7.3-5.2 3.3-9.4 6.2-9.4 6.8 0 .5-.8.8-1.8.8-.9 0-1.8.5-1.8.9 0 .6-1.2 1.5-2.7 2.2-1.4.7-6.1 3.9-10.2 7-4.2 3.2-12.1 8.8-17.6 12.6-5.5 3.9-10.1 7.4-10.3 7.9-.2.6-1.2 1.1-2 1.1-.9 0-2.1.7-2.6 1.5-.5.7-2.1 2.3-3.5 3.5-2.6 2.2-2.6 2.2-3.3-2.3zM286.5 285.9c0-.4.2-.6.6-.6.4 0 .6.2.6.6 0 .4-.2.6-.6.6-.4 0-.6-.2-.6-.6zM178.7 264.3c-.8-2.5-1.4-5-1.4-5.8 0-.7 4.3-4.9 9.7-9.3 14.7-12.1 13.6-11.5 13.2-8.3-1.4 12.1-2.1 14-5.8 16.6-4.8 3.4-8.9 6.8-11.2 9.4-2.6 2.8-3.1 2.6-4.6-2.6zM276.9 266.9c-1.2-.4-2.1-.9-2.1-1.5s-1.2-1.2-2.6-1.4c-2.3-.4-1.8-.9 3.3-4 3.2-2 6.9-4 8.2-4.5 2.1-.6 2.5-.2 2.2 2.7-.4 5.4-4.7 9.6-9 8.7zM76 260.5c.4-1.5 1.1-4.2 1.5-6.2.6-1.9 1.3-4.9 1.6-6.7.5-2.2 2.7-4.5 7.2-7.4 3.6-2.2 7.3-4.1 8.1-4.1.9 0 3.2-1.3 5-2.7 1.8-1.5 7.9-5.3 13.6-8.3 10.2-5.5 12.2-5.4 9.2.2-.7 1.1-2 4.7-2.9 7.9-1.1 3.3-2.9 6.6-4.3 7.5-6 3.6-10.7 6-12.1 6-.9 0-1.9.7-2.2 1.5-.2.7-3.6 2.9-7.4 4.9-3.9 1.9-7.2 3.8-7.5 4.1-.7.8-9.4 5.9-10 5.9-.2 0-.1-1.2.2-2.6zM298.3 251.3l-2.9-2.3 3.5-2.8c2-1.6 4-2.9 4.5-3.1.5 0 2.3-.9 4.1-2.1 6.3-4.5 22.9-13.7 23.7-13.5.6.1 1.6-.5 2.3-1.4.8-.9 2.1-1.8 2.9-1.8.9 0 1.8-.5 2-.9.5-1.3 7.5-6.1 8.9-6.1.7 0 3.8-1.8 6.8-3.8 3.2-2.1 9.7-5.9 14.6-8.5 4.8-2.5 10.5-5.5 12.3-6.7 5.2-3.2 17.3-9.5 17.5-9 0 .2.8 1.5 1.6 2.9.7 1.5 1.4 3.4 1.4 4.2 0 .8-5.6 4.3-12.6 7.9-7 3.5-12.9 6.7-13.3 7-.4.4-4.2 2.8-8.8 5.3-4.5 2.5-9.7 5.4-11.7 6.5-1.9 1.1-7 3.9-11.4 6.2-9.6 5.2-12.8 7-14.3 8.2-2.2 1.6-9.4 5.5-12.7 6.8-1.9.7-3.3 1.8-3.3 2.3 0 .6-.6 1.1-1.2 1.1-.7 0-3.3 1.3-5.9 2.9-2.6 1.6-4.8 2.9-4.9 2.9-.2 0-1.6-1.1-3.3-2.3zM232 220.1l-3.3-4.1 4.5-4.1c2.6-2.2 4.9-4 5.5-4h1.4c.2-.1 2.3-1.8 4.6-3.9 6.2-5.8 10.2-9 15.4-12.4 2.6-1.6 6-4.2 7.6-5.8 1.6-1.5 4.3-3.5 6.1-4.5 3.1-1.5 3.2-1.5 3.9 2.2.5 2 1.3 4.3 2 5.2.7.8-.2 2.1-2.8 4-2.1 1.5-4 3.2-4.2 3.6-.2.5-1.2.9-2.1.9-.9 0-1.6.4-1.6.9s-2 2.1-4.5 3.8c-2.3 1.6-4.9 3.4-5.6 4.1-.8.6-2.8 2.2-4.7 3.5-1.8 1.3-5.9 4.6-9.2 7.4-8.9 7.6-9.2 7.8-12.9 3.1zM145.4 219.5c-.1-2.2-.2-5.2-.2-6.6-.1-1.3-.5-2.8-.9-3.3-1.2-1.3 3.1-4.3 13.7-10 5.2-2.6 11.7-6.2 14.7-8.1 2.9-1.8 6.3-2.9 7.8-2.7 1.8.4 2.7-.2 3.2-2 .4-1.5 1.5-2.5 2.9-2.5 1.3 0 3.2-.7 4-1.4.8-.8 3.2-2.2 5-3.2 4.9-2.2 7.8-3.8 10.9-5.8l2.7-1.8-.8 8.1c-.5 5.2-1.4 8.6-2.6 9.3-3.9 2.6-20 11.4-27.2 14.9-4.2 2.1-7.9 4.1-8.2 4.5-.4.5-3.8 2.5-7.6 4.6-3.9 2.1-7.5 4.3-8.1 4.9-.7.6-2 1.1-2.9 1.1-.9 0-2.7.8-3.9 2-2 1.8-2.1 1.6-2.3-2.1zM94.2 202.3c.7-1.8 2-4.1 2.7-5 .7-.9 3.3-6 5.9-11.2 2.6-5.2 5-9.6 5.4-10 .5-.4 2.2-3.4 4.1-6.8 3.3-6.1 7.9-10.9 19.4-20.4 2.8-2.3 7-6 9.3-8 2.2-2.1 6.3-5.4 9.2-7.4 2.7-2 4.9-4 4.9-4.3 0-.5 2.2-2.3 4.9-4.1 2.6-1.8 6-4.3 7.3-5.8 6.1-6.3 20.2-16.3 24.1-17.3 7-1.6 7.6-1.4 9.7 4.3 2.2 6.5 2.9 5.5-11.4 16.9-5.2 4.2-9.5 8-9.7 8.5-.2.6-1.2.9-2.1.9-.9 0-2 .8-2.3 1.8-.5.9-1.2 1.8-1.9 1.8-.6 0-1.8.7-2.6 1.5-7.2 6.9-29.8 25.5-31.1 25.5-.5 0-1.6 1.3-2.5 2.9-.9 1.6-2.8 3.3-4.5 3.8-1.5.4-3.2 1.5-3.5 2.7-.8 2-14 13.9-23.3 20.9-2.8 2.2-5.2 4.3-5.2 4.9 0 .5-1.9 2.3-4.1 4l-4.1 3.2 1.4-3.3zM217.8 176.1c0-4.5.5-7.8 1.1-7.4.6.5 1.6 0 2.3-.9.7-.9 4-2.9 7.2-4.5 3.3-1.5 6.7-3.2 7.6-3.8 5.5-3.2 25.8-12.8 27-12.8.7 0 3.2-1.4 5.4-3.1 2.2-1.8 4-2.7 4-2.1 0 .5.6.4 1.4-.5.8-.8 2.3-1.4 3.4-1.4s2.6-.8 3.4-1.8c.8-.9 1.8-1.5 2.2-1.3.4.2 2.3-.6 4.2-1.8 2-1.2 5.4-3.1 7.6-4.2 2.2-1.1 4.3-2.2 4.7-2.6.4-.5 2.2-1.4 4.1-2.3 2-.8 4.6-2.1 5.9-2.8 11.4-6.2 24.5-12.6 26-12.6 1.8 0 10.9 6 11 7.2 0 .5-2.5 1.9-5.5 3.3-3.2 1.3-6.9 3.2-8.6 4.2-1.6.9-5.5 2.8-8.8 4.2-3.2 1.3-6.7 2.9-7.6 3.4-.9.6-4.9 2.7-8.8 4.8-3.9 2-7.5 4.1-8.1 4.7-.7.6-2.1 1.1-3.4 1.1-1.2 0-4.3 1.5-7 3.3-7 4.8-8.8 5.3-10.2 2.6-1.8-3.2-4.5-1.6-5.4 2.9-.6 3.1-1.8 4.6-5.3 6.5-2.6 1.3-5.3 2.3-6 2.3-.7 0-2.2.8-3.3 1.8-3.1 2.7-12.8 7.6-15.4 7.6-1.2 0-2.2.6-2.2 1.2 0 .7-2 2.1-4.3 3.1-5.8 2.5-11.4 5.4-12.1 6.2-.4.5-1.9 1.3-3.5 2l-2.9 1.3V176zM287.6 178.5c-1.3-4.3-1.2-4.9 1.3-7.6 1.5-1.6 3.4-2.9 4.2-2.9.8 0 1.6-.4 1.9-.8.5-1.2 17.3-12.4 20.3-13.6 1.3-.6 2.7-1.8 3.3-2.7.5-.9 1.9-1.6 3.1-1.6 1.2 0 3.3-1.3 4.8-2.9 1.5-1.6 3.2-2.9 3.8-2.9.5 0 3.6-1.9 6.8-4.1 3.2-2.2 6.1-4.1 6.3-4.1.2 0 3.3-1.9 6.7-4.1 3.5-2.2 6.8-4.1 7.5-4 .6 0 2.5 1.6 4 3.6l2.8 3.5-2.8 2.2c-1.5 1.2-4.2 2.8-6 3.6-1.9.8-3.3 1.9-3.3 2.3 0 .6-.6.9-1.3.9-.6 0-4.6 2.3-8.8 5.3-4.1 2.9-7.8 5.3-8.1 5.3-.7 0-15 9.4-17.6 11.5-.6.5-2.9 2-5.2 3.3-2.2 1.2-5.3 3.4-6.9 4.9-1.6 1.4-3.6 2.6-4.3 2.6-.8 0-1.8.8-2.2 1.8-.4.9-1.4 1.8-2.2 1.8-.9 0-2.3.8-3.2 1.8-2.2 2.7-3.3 2.1-4.8-2.9zM208.3 103.1l-1.3-5.4 4.8-.7c2.7-.4 6.6-.9 8.7-1.4 4.3-.7 5.2 1.4 1.1 2.9-1.5.6-4 2.5-5.5 4.1-1.6 1.6-3.5 3.1-4.3 3.1-.7 0-1.5.6-1.8 1.3-.2.8-1.1-.9-1.6-3.9z"/></g><g fill="#fff"><path d="M385.2 423.9c0-.8.4-1.2.8-.8.4.5.4 1.2 0 1.6-.5.4-.8 0-.8-.8zM194.9 382.7c-12.2-3.2-26.1-9.4-36.4-16.3-8.9-6.1-24.8-23.4-27.7-30.3-.7-1.8-1.6-7.6-2.1-13-.8-8.6-3.8-22.7-6.1-28.8-.7-1.6-.2-1.9 2.5-1.2 2.8.7 3.8.2 5.9-2.3l2.6-3.3 1.5 7.5c2.8 14.2 3.8 16.6 7.8 20.6 4.2 4.1 10.8 5.3 13 2.5 4.3-5.5 5.5-23.6 2.2-34.2-2.1-7.2-.8-11.6 4.9-17 4.5-4.3 6.2-3.9 6.7 1.8.2 1.8 1.1 4.9 1.9 6.8.8 2 1.3 4 1.2 4.6-.1.6 1.3 6.3 3.3 12.9 1.9 6.6 3.8 13.9 4.2 16.3.7 4.6 5 8.7 8 7.5 1.3-.5 6.6-14.1 14.3-36.6 1.6-4.9 7.6-37.9 8.2-45.3.1-2.3.8-6 1.5-8.2.7-2.2 1.5-6.6 2-9.7l.8-5.8 3.4 6.3c1.9 3.5 4.3 8.1 5.4 10.2 1.1 2 2.3 3.8 2.9 3.8.5 0 .9.6.9 1.2 0 .7-2.2 1.2-4.9 1.2-6 0-9.5 1.8-6.9 3.4.8.6 4.3 1.4 7.6 1.8 6.2.8 14.8 5.5 14.8 8.1 0 .7 1.6 3.1 3.5 5.2 2 2.1 3.5 4 3.5 4.3 0 .2-4.1.6-9 .6-12.2.1-21 .8-22.5 1.9-.7.4-1.3 1.9-1.3 3.2 0 2.2.5 2.3 5.9 1.8 4.8-.6 6-.4 6.9 1.4.7 1.2.7 2.7.1 3.6-.6.9-.8 2-.5 2.5.2.5.6 3.8.6 7.2.1 8.3 3.2 23.4 5.3 25.7.9.9 1.6 2.5 1.6 3.3 0 .7.9 1.8 2.1 2.1 1.1.5 3.1 1.8 4.2 2.9 4.1 3.9 14.8 2.3 19.6-2.6 5-5.3 6.6-9.5 7.8-21.4.4-3.2.8-5.6 1.1-5.6.2 0 3.8 3.2 7.8 7 4.1 3.9 8 7 8.7 7 .7 0 2.1.9 3.1 2.1 1.5 1.5 2 6.3 2.6 22 .5 11 .8 20.8.9 21.7.1.9 0 6.3 0 11.9l-.2 10.1-9.2 3.5c-7.6 3.1-10 3.5-14.2 2.7-4.5-.8-7.6-.5-16 1.9-1.3.4-5.8 1.4-10 2.3-4.2.9-8.9 2-10.6 2.3-1.5.4-3.4 1.1-4.1 1.6-.6.5-2.5.9-4.1.9-1.6-.1-4.5.2-6.5.6-6 1.3-16.2 3.2-16.3 3.1 0 0-2-.6-4.2-1.2zm10.6-20.3c0-.9-1.4-3.3-3.1-5.3-2.2-2.7-4-3.6-6.7-3.6-4.3 0-9.2 2.2-10 4.6-.6 1.6 1.2 1.5 7.6-.5 1.9-.6 3.3.1 5.8 2.8 3.4 3.9 6.3 4.8 6.3 2zm44.7-24.5c.1-1.4.1-3.3 0-4.2-.2-.8 0-2.3.5-3.4.5-1.3 1.5-.7 4.6 2.8 6 7 9.3 6.2 11.9-2.8.8-2.6.9-2.7 3.1-.7 1.3 1.1 2.6 1.6 3.1 1.2 1.1-1.1-.9-4.2-3.6-5.9-2-1.3-3.9.1-7.2 5.8-1.1 1.8-1.8 1.5-6.1-2.8-2.6-2.7-5.3-4.8-6-4.8-1.5 0-4.9 5.3-4.9 7.8 0 1.8-.2 1.8-2.9 0-3.9-2.6-4.2-2.3-3.4 1.3 1.1 4.2 3.5 8.7 5.3 9.9 2.2 1.3 5.8-1.1 5.9-4zm-110.5-3.3l.6-4 2.2 3.3c2.6 3.8 5.4 4.2 5.4.8 0-2.9-5.4-8.2-8.3-8.2-1.2 0-2.3 1.1-2.8 2.2-.5 1.4-1.4 2.1-2.5 1.6-2.2-.8-2.1 3.1.2 6.5 2.5 3.5 4.5 2.7 5.2-2.2zm25.7-3.8c3.5-3.9 1.2-5.9-5.8-4.8-5.5.9-7.4 3.5-4.1 5.9 3.3 2.5 6.9 2 9.9-1.1zM433.3 330c0-.8.4-1.2.8-.8.4.5.4 1.2 0 1.6-.5.4-.8 0-.8-.8z"/><path d="M149.8 309c-.9-1.4.4-4.8 1.8-4.8s1.4 4.3 0 5.3c-.6.4-1.4.1-1.8-.5zM238.5 298.6c-2.3-5.8.5-9.3 11-13.3 2.6-.9 2.5-.5-2.1 5.8-2.7 3.8-5.5 7.8-6.2 8.9-1.1 2-1.3 1.8-2.7-1.4zM152.3 295.9c.4-1.3.8-2.3 1.1-2.3.2 0 .5 1.1.5 2.3 0 1.3-.5 2.3-1.1 2.3-.6 0-.8-1.1-.5-2.3zM255.1 296.3c-1.1-.4-.7-1.5 1.1-4 1.4-2 2.8-3.3 3.2-2.8 1.3 1.3 1.3 4.6 0 6.1-1.3 1.6-1.8 1.6-4.2.7zM144.4 291.2c0-.8.4-1.2.8-.8.4.5.4 1.2 0 1.6-.5.4-.8 0-.8-.8zM119.8 287.6c0-.2.7-3.2 1.6-6.6.9-3.3 1.3-6.3 1.1-6.7-.9-.9 2.1-8.1 4.3-10.1 1.8-1.6 11-7 12.1-7 .2 0 .5.7.6 1.5.8 6.6.7 7.2-1.9 8.6-4.3 2.1-8.5 6.5-13.3 13.9-2.6 3.9-4.6 6.8-4.6 6.5zM234.3 280.1c.2-1.3.5-2.7.5-3.2.1-1.2 4.8-3.5 4.8-2.5 0 .5-1.3 2.6-2.8 4.5-2.3 2.8-2.8 3.1-2.5 1.2zM261.3 278.8c-1.4-2-4.5-2.5-9.4-1.2l-3.5.8 4-4.1c3.6-3.8 4.1-3.9 6-2.1 2.2 2.2 5.2 7.3 4.5 7.9-.2.2-.9-.4-1.5-1.3zM164.4 258.9c0-.4.2-.6.6-.6.4 0 .6.2.6.6 0 .4-.2.6-.6.6-.4 0-.6-.2-.6-.6zM128.6 248.6c.7-3.4 1.8-6.9 2.1-7.9.5-.9 1.3-4.1 1.9-7 .9-5.2.9-5.2 1.8-1.8.5 2 1.4 5.8 2.1 8.3 1.6 6.8 1.1 8.3-4.5 11.6l-4.7 2.8 1.3-6.1z"/></g></svg>
