<svg version="1.0" xmlns="http://www.w3.org/2000/svg" width="436" height="436"><g fill="#00c69c"><path d="M288.8 406.9c-.8-2.4 1.8-23.7 3.1-25.3 1.9-2.2 7.8-2.2 8.3.1.3 1.5.5 1.5 1.5.3 3.3-3.9 6.2-8 9.3-13 1.9-3 4-6.1 4.7-6.8.7-.7 1.3-1.7 1.3-2.2 0-.4 2-3 4.5-5.6 2.5-2.7 4.5-5.8 4.5-6.9 0-4.1 2.8-6.5 7.5-6.5 3.9 0 4.5.3 5.9 3.2.9 1.7 1.6 5.2 1.7 7.7 0 4.6 0 4.6 1.8-2.4 1-3.8 2.2-9.9 2.6-13.4 1.2-10.7 1.6-11.6 8.2-18.1 4.3-4.3 6.7-6 8.5-6 1.5 0 1.8.4 1.3 1.8-.6 1.7-1.6 6-5.6 24.2-1.1 5.2-2.4 9.9-2.9 10.5-.9 1.1-6.4 20-7.4 25.5-.9 4.9-4.7 17.3-5.6 18.3-2.5 2.7-8-3.4-8-8.7 0-1.4-.5-2.8-1-3.1-.6-.3-.8-1.6-.4-2.8.3-1.3-.2-3.6-1-5.2-.9-1.7-1.6-4.7-1.6-6.7 0-7.2-3.2-4.7-10 7.7-4.7 8.5-18 25.8-24.5 31.7-3.1 2.8-6.1 3.6-6.7 1.7zM122.6 405.1c-3.1-1.2-7.7-21-5.6-23.6 1.8-2.2 9.7-2 10.3.3.3 1.5.5 1.5 1.1-.3.4-1.1 1.2-2.9 1.6-4 .5-1.1 1.1-3.2 1.4-4.7.4-1.8 2.3-3.9 5.4-5.9 2.6-1.8 4.9-3.6 5-4.1.5-1.2 5.2-1 5.2.2 0 .6-.4 1.8-.9 2.8-.5.9-1.3 2.8-1.8 4.2-.6 1.4-2 4.6-3.2 7.3-1.1 2.6-2.1 5.4-2.1 6.2 0 .8-.4 1.5-.9 1.5s-1.1 1.8-1.5 4c-.3 2.2-1.1 4-1.6 4-.6 0-1 .6-1 1.4 0 2-4 8.6-5.1 8.6-.5 0-.9.7-.9 1.5 0 1.6-2.3 1.8-5.4.6zM161.9 386.2c-3.3-3.4-4.9-8.2-5.5-16.5-.4-4.6-.4-10.5 0-13.1.7-4.6.8-4.6 4.6-4.6s3.8 0 4.6 10.1c.9 10 .9 10 5.6 5.5 3-3 5.5-4.6 7.2-4.6 2.3 0 2.4.3 1.9 3.8-.3 2-1.1 4.4-1.7 5.2-.7.8-1.7 2.7-2.4 4.3-.6 1.5-1.6 2.7-2.2 2.7-.5 0-1 .6-1 1.4 0 1.9-6 7.6-7.9 7.5-.9 0-2.3-.8-3.2-1.7zM41.4 374.3c1-8.1 1.3-8.9 4.6-11 3.6-2.3 15-13.2 15-14.4 0-.5.6-.9 1.4-.9.8 0 3-1.5 4.8-3.2C73 339.2 80.8 333 81.9 333c.6 0 1.1-.4 1.1-.9 0-1.9 14.1-8.1 18.4-8.1 4.8 0 5.4.7 10.4 12.5 6.8 16.1 7.5 18.1 7.6 21.9.1 3.5-.3 4.2-3.3 5.9-3.3 2-3.4 2-4.5.1-1.4-2.5-8-20.2-9.6-26-1.2-4.2-1.5-4.5-4-4-1.5.2-3.8 1.4-5.1 2.5-1.3 1.2-7.4 5.8-13.6 10.4-10 7.4-25.3 20.8-25.3 22.3S44.4 380 42.7 380c-1.8 0-1.9-.5-1.3-5.7zM114.6 375.4c-1-2.5-.7-5.9.6-7.2.7-.7 2.9-1.2 5-1.2 3.7 0 3.8.1 3.8 3.4 0 2.5-.7 3.9-2.2 5-2.9 2-6.4 2-7.2 0zM291.4 366.3c.3-6 .9-14.3 1.2-18.5.4-5.6.2-7.8-.6-7.8-.6 0-6.5 5.6-13.1 12.5-6.7 6.8-13.4 13-15 13.7-1.6.7-2.9 1.6-2.9 2.1 0 1.3-14.1 7.6-15.7 7-1.2-.5-1.4-1.7-.9-6.2.3-3.1.9-8.7 1.2-12.5.6-5.8 1.1-7.3 3.3-9.2 1.5-1.4 3.9-2.3 5.9-2.4 3.2 0 3.2 0 3.2 6.5 0 6.6 0 6.6 9.5-2.9 5.2-5.3 9.5-9.7 9.5-10 0-.2 2.9-3.5 6.5-7.2s6.5-7.2 6.5-7.6c0-1 11.5-15.2 15.5-19.2 1.8-1.8 3.7-2.6 6-2.6 3.5 0 3.5.1 3.5 4.3 0 4.8-2.4 12.8-5 16.7-.9 1.4-3.1 4.7-5 7.5-3.3 5-3.3 5-3.8 22s-.5 17-3.5 20.7c-1.7 2.1-3.9 3.8-5 3.8-1.8 0-1.9-.5-1.3-10.7zM192.8 366.9c-1-.5-1.8-1.9-1.8-2.9s-.4-2.1-.9-2.5c-.5-.3-1.2-1.9-1.6-3.5-.6-2.7-3.5-4.4-3.5-2 0 .6-.4 1-.9 1-1 0-3.1-10-3.1-15.2 0-2.4.5-3.8 1.3-3.8.6 0 2.3-.9 3.7-2 1.4-1.1 3.1-2 3.9-2 .7 0 2.4-1.1 3.7-2.5 1.3-1.4 3.2-2.5 4.4-2.5 1.1 0 2-.4 2-1 0-.5.7-1 1.6-1 .8 0 2.2-.6 2.9-1.2 2.9-2.7 5.6-4.4 12.5-8.1 1.9-1 4.6-2.5 6-3.2 3.5-2 10-2 10 0 0 .9-.6 1.8-1.4 2.1-.8.3-1.2 1.2-.9 1.9.5 1.6-4.6 4.1-10.5 5-2 .4-5.6 1.6-7.9 2.7-5 2.5-17.3 12.6-17.3 14.3 0 .7.9 6.4 2 12.6 1.8 10.5 1.8 11.4.3 13.1-1.8 2.1-2.2 2.1-4.5.7zM42.6 360.4c-.3-.9-.4-1.9-.1-2.4.3-.4.6-5.6.7-11.4.1-9.6.4-10.9 2.4-13.1 2.7-2.9 7.8-3.4 8.8-.9.9 2.4.7 13.4-.5 18.3-.7 3.1-2.1 5.5-4.7 7.7-4.2 3.7-5.7 4.1-6.6 1.8zM142 352.5c0-4.3 3-10 7.6-14.2 3.7-3.5 7.1-4.1 11.8-2.3 2.2.8 2.6 1.5 2.6 5.2-.1 5.1-3.2 9.2-7.8 10.2-1.6.4-3.8 1.6-4.8 2.7-1.1 1.2-3 1.9-5.6 1.9-3.7 0-3.8-.1-3.8-3.5zM167.4 335.7c-1.1-.9-3.7-1.8-5.7-2.2-3.5-.7-3.7-.9-3.7-4.4.1-6 1.9-7.5 8.7-6.7 4.1.4 8.5 0 15.3-1.5 5.2-1.1 11.4-2.3 13.8-2.6 4.2-.6 4.2-.6 4.2 2.9 0 3.7-3.3 7.8-6.2 7.8-.8 0-2.3.9-3.3 2s-2.6 2-3.6 2-2.2.7-2.7 1.6c-1.3 2.4-13.9 3.1-16.8 1.1zM247.8 322.9c.5-13.1.5-13.1-1.7-12-2 1.1-2.1 1-2.1-3.8s.1-4.9 4.5-7c5.2-2.4 10-2.7 10.8-.6.6 1.5-.1 24.4-.9 28.2-.2 1.2-1.2 2.4-2.3 2.8-1 .3-2.3 1.7-2.9 3-.8 1.7-2 2.5-3.6 2.5-2.4 0-2.4 0-1.8-13.1zM44 316.3c0-7.1.9-20.4 2-29.8 1.2-9.3 2.3-19.9 2.6-23.4.3-3.6.9-7.2 1.4-8.1.5-.9.9-2.5.8-3.6-.1-1 .2-4.9.7-8.6.6-5.9.5-6.8-.9-6.8-.9 0-1.6.4-1.6.8 0 1.7-10.4 12.7-15.4 16.3-9.3 6.6-18.6 9.6-25.1 8-4-.9-4-.9-.6-1 3.4-.1 21.1-8.7 21.1-10.3 0-.4.6-.8 1.3-.8 1.4 0 8.4-7.2 15.1-15.5 5.3-6.6 12.9-11.4 18.4-11.5 3.1 0 3.2.1 3.2 4.3 0 4.7-3.7 27.1-5.1 30.2-.4 1.1-1 4-1.2 6.5-.3 2.5-1.2 8.8-2.1 14-.8 5.2-1.9 17-2.4 26.1-.9 16.7-.9 16.7-4.7 21.3-2 2.5-4.6 4.6-5.6 4.6-1.8 0-1.9-.9-1.9-12.7zM143 328.3c-4.3-1.4-15.2-6.3-16-7.2-.3-.3-2-1.5-3.9-2.5-8.1-4.5-10.3-9.3-6.4-14 1-1.2 1.1-1.5.3-.8-.8.6-3 1.2-5 1.2-4.3 0-5.7-1-9.8-7.1-3.3-5-5.1-11-5.2-17.2 0-5.3 6.7-12.7 11.5-12.7 3.4 0 4.4 1.4 4.6 7 0 1.4.3 1.9.6 1.3.2-.8 2.2-1.3 4.5-1.3 4.1 0 4.1 0 1-2.7-7.2-6.6-7.1-11 .5-18 3.1-2.9 6.3-5.3 7-5.3.7 0 1.3-.6 1.3-1.3 0-2.4 3.6-4.7 7.2-4.7s3.6 0 4.3 6.4c.8 7 0 15-2.1 20.8-1.3 3.8-1.3 3.8 2.4 3.8 2.1 0 4.3.5 5 1.2 2.1 2.1 1.4 7.2-1.2 9.7-2.2 2.1-3.3 2.3-8.5 1.9-5.4-.4-6.1-.2-6.1 1.4 0 1.4-.8 1.8-3.4 1.8-1.9 0-3.7.3-3.9.8-.2.4-.2 2.8.1 5.5.4 4.6.5 4.7 3.6 4.7 2.1 0 4 .8 5.2 2.1 2.7 3 11.8 9 18.7 12.4 5.3 2.5 5.7 3 5.7 6.1 0 4.7-2.6 7.4-7 7.3-1.9 0-4.2-.3-5-.6zm-14.6-51.8c.4-1.1-.2-1.5-2.2-1.5-2.6.1-2.6.1-.8 1.5 2.4 1.8 2.3 1.8 3 0zM155 305.1c0-5.5 1.8-6.6 10.9-6.6 7.6 0 7.6 0 7.6 5s0 5-9.2 5.3c-9.3.2-9.3.2-9.3-3.7zM352 305.9c0-1.7.6-5.4 1.4-8.2.8-2.9 1.8-9.6 2.1-14.9.7-9.7.7-9.7 4.9-12.2 2.3-1.4 5.4-2.8 6.9-3.1 2.4-.6 2.8-.3 5.1 4.6 1.3 3 4.3 7.4 6.5 9.8 4.4 4.7 4.6 6.5 1.2 7.4-1.6.4-3.1-.5-5.8-3.4-2-2.1-4.2-3.9-4.9-3.9-.6 0-1.4 2.4-1.8 5.8-1.3 11.8-2 14.1-5.4 17.7-2.6 2.7-4.2 3.5-6.8 3.5-3.1 0-3.4-.2-3.4-3.1zM399.5 301.4c-5.7-1.8-15.4-6.4-16.2-7.7-.3-.4.3-1.6 1.3-2.6 1.8-1.8 2-1.8 5.4 0 8.8 4.7 12.8 5.9 20.5 6.5 5.8.4 9.2.2 12.3-.9 6-2.1 5.2-.3-1.2 2.8-6.8 3.3-15.2 4-22.1 1.9zM204.6 293.7c-1.3-1-1.7-2.4-1.4-5.7.3-4.2.6-4.6 4.5-6.5 2.3-1.1 4.4-2.8 4.7-3.9.4-1.5 1.3-1.7 4.9-1.5 3.5.3 4.8 0 5.6-1.3.8-1.3 2.4-1.8 5.5-1.8 5.5 0 7.6 2.2 7.6 7.8 0 3.9-.2 4.2-2.8 4.2-2.1 0-3 .7-4 3-1.2 2.7-1.8 3-6.1 3-2.6 0-5.2-.5-5.9-1.2-.9-.9-1.2-.7-1.2 1 0 3.8-7.5 5.7-11.4 2.9zM243.7 290.8c-.3-2.4-.6-11.9-.6-21.3-.2-17-.2-17 3.4-19.3 1.9-1.2 3.5-2.7 3.5-3.2 0-.6 1.8-1 3.9-1 3.9 0 3.9 0 4.5 11.3.3 6.1.7 16.4.8 22.7.3 11.5.3 11.5-3.2 13.2-1.9.9-5.4 1.7-7.6 1.8-4.2 0-4.2 0-4.7-4.2z"/><path d="M87.1 273.3c0-6.1 1.7-24.5 2.4-28 .7-2.9.5-3.3-1.4-3.3-3.5 0-2.8-6.1 1.5-13.2 2.7-4.4 3.9-7.7 4.5-12.6.4-3.7 1.2-8.4 1.8-10.5 1.1-4.6 5.7-9.6 8.9-9.7 1.2 0 2.2-.4 2.2-1 0-.5 1.1-1 2.5-1s2.5-.6 2.5-1.2c.1-1.7 8.8-5.8 12.2-5.8 2.8 0 3 .5 4.4 10.3.7 5.3 1.3 5.6 8.4 3.1 3.3-1.1 6.2-1.4 10.8-.9 6.2.7 6.2.7 6.2 4 0 2-.6 3.5-1.5 3.9-1.3.4-1.3 1 0 4.7 2.3 6.4 1.9 9.1-1.8 12.7-1.8 1.8-3.9 3.2-4.7 3.2-1.8 0-8 4.8-8 6.2 0 .7-4.4 5.4-9.7 10.6-9.8 9.3-9.8 9.3-14.4 8.8s-4.6-.5-4.1 4.1c.4 4.2.2 4.8-2.8 7.4-2.1 1.9-4.4 2.9-6.4 2.9-2.8 0-3.3.5-4.6 4.3-1.4 3.8-1.8 4.2-5.2 4.5-3.8.3-3.8.3-3.7-3.5z"/><path d="M153.1 271.3c-1.3-1.1-2.5-3.8-3.1-7.2-.6-3-2.1-8.9-3.5-13.3-1.4-4.3-2.8-10.2-3.1-13.1-.6-5.2-.5-5.4 2.9-8 2.3-1.7 4.8-2.7 7-2.7 3 0 3.6.4 4.1 2.8.4 1.5 1.2 4 1.8 5.5 1.1 2.8 1.2 2.7 2.9-4.1.9-3.8 2-9.1 2.4-11.8.6-4.1 1.4-5.6 5.2-9.1 3.5-3.4 5.3-4.3 8-4.3 3.5 0 3.5 0 3.1 5.3-.3 5.3-.3 5.3 8.2 4.9 10-.4 11-.6 11-2.7 0-2.3-6.9-6.3-12.2-7-4.6-.7-4.8-.9-4.8-4 0-3.3 3.1-6.5 6.2-6.5.7 0 1.8-1.1 2.5-2.5 1.1-2.4 1-2.5-2.7-2.5-3.4 0-3.9.3-4.5 2.9-1.1 5.1-8.1 11.1-13 11.1-3.3 0-3.5-.2-3.5-3.2 0-1.8.7-6.4 1.5-10.3.9-3.8 2.1-13 2.7-20.3 1.1-13.3 1.1-13.3 5.4-15.2 2.4-1.1 5.7-2 7.4-2 3.2 0 3.2 0 2.8 6.8-.3 6.1-.1 6.9 2.2 9.2 6.1 6.1 8.2 9.8 7.8 14-.3 3.9-.3 4 2.9 4 2.1 0 3.3.5 3.3 1.4 0 2.1 6.1 7.6 8.4 7.6 1.8 0 15.9 2.8 23.5 4.7 2.1.5 2.3.3 1.8-1.8-1.2-5.1-3-34.6-2.3-38.1.5-2.8 1.5-4.2 3.6-5.3 1.6-.8 3.2-2.1 3.6-2.7.6-1 .4-1.1-.7 0-.7.6-2.9 1.2-4.9 1.2-3.3 0-3.6-.3-5.2-4.8-1-2.6-2-8.3-2.4-12.7-.6-8-.6-8 2.8-9.3 6.3-2.2 10.8-1.1 10.8 2.8 0 .9.9 3.5 2 5.8 2.5 5.1 2.8 14.2.5 14.2-.8 0-1.5.5-1.5 1 0 .6 1.4 1 3 1 3 0 3 0 3 5.8 0 3.2.3 6.2.8 6.6.7.8 2.6 19.1 3.8 37.4.7 10.2.7 10.2 3.7 10.2 2 0 4.7 1.4 8.3 4.3 4.5 3.5 5.3 4.7 5.4 7.6 0 3.4 0 3.4-4.7 2.7-2.7-.3-6.2-.8-7.9-1.2-3.1-.6-3.1-.6-2.6 6.8.4 7.3.4 7.3-3.4 9.3-2 1.1-4.6 2.4-5.6 3-1 .5-2 1.7-2.3 2.6-1 3.2-11.4 5.5-13 2.9-1.3-2.2-2.4-.8-3.5 4.5-1 4.6-2 6.4-6.1 10.5-5 5-5 5-12.8 5-6.1 0-8.1-.4-9.7-1.8-1-1-2.7-2.1-3.6-2.5-1-.3-1.8-1.3-1.8-2 0-.8-.7-2-1.6-2.8-1.1-.9-1.5-2.6-1.2-6.1.2-3.1-.1-4.8-.8-4.8-1.3 0-2.4-4.5-2.4-10 0-2-.3-5.8-.6-8.4-.7-4.6-.7-4.6-5.4-4.6-4.8 0-4.8 0-5.5 4.8-1.1 7.5-10.8 35.4-13.3 38.5-1 1-2.9 1.7-5.2 1.7-2.1 0-4.7-.8-5.9-1.7zm55.9-28.7c0-.4-1.4.3-3 1.6-2 1.4-2.6 2.4-1.8 2.9 1 .7 4.8-2.9 4.8-4.5zm31-19.6c0-1 .8-2.4 1.8-2.9 1.4-.9 1.3-1-1.1-1.1-1.6 0-4.3-.7-6-1.5-1.8-.8-5.2-1.9-7.7-2.4-4.5-1-4.5-1-1.2 2 1.8 1.6 4.1 2.9 5.2 2.9 1.5 0 2 .7 2 2.5 0 2.2.4 2.5 3.5 2.5 2.8 0 3.5-.4 3.5-2zM355.7 238.3c-.4-1-1.3-3.6-2.2-5.8-.8-2.2-1.5-6.5-1.4-9.5.1-5-3.3-20.9-4.9-23.5-1-1.5-3.1-11.5-3.1-15.1-.1-2.8.5-3.5 4-5.4 2.4-1.2 4.6-1.7 5-1.3 1.2 1.2 3.8 10.7 4.6 16.3.3 2.5 1 5 1.5 5.7.9 1.1 2.6 19.6 3.1 33.6.2 6.7.2 6.7-2.9 6.7-2.1 0-3.4-.6-3.7-1.7zM53.3 216.3c1.4-7.2 2.9-12.1 4.7-15.4 1.1-2.1 2.5-6 3-8.9.5-2.8 1.5-5.7 2.2-6.4 11.4-12 12.1-12.6 15.4-12.6 3.2 0 3.4.2 3.4 3.5 0 2-.7 4.9-1.5 6.4-.8 1.6-2.8 7.1-4.6 12.2-1.7 5.2-3.4 10.3-3.9 11.4-.4 1.1-1.1 2.8-1.4 3.7-.3 1-2.1 2.4-4.1 3.2-1.9.8-3.5 1.9-3.5 2.3 0 1-5.8 3.3-8.4 3.3-1.5 0-1.7-.6-1.3-2.7zM102 185.7c0-1.7.5-4.8 1.1-6.7.6-1.9 1.7-5.7 2.4-8.5 2.1-7.8 4.5-13.8 6.3-15.9 1.4-1.5 2.6-1.7 7.1-1.2 3 .4 6 1.1 6.7 1.6.7.7 1.2 4.8 1.2 11.8.1 9.9-.1 10.9-2.3 13.5-1.3 1.5-3 2.7-3.8 2.7-.8 0-2.6.9-4 2s-3.2 2-4 2c-.9 0-1.9.5-2.2 1-.3.6-2.4 1-4.6 1-3.7 0-3.9-.1-3.9-3.3zM340 173.4c-.7-1.9-1-4.9-.8-6.5.4-2.3.1-2.9-1.3-2.9-1 0-3-1.8-4.6-4-1.5-2.3-3.8-5.2-5-6.5-2.3-2.6-6.3-10.8-6.3-13 0-.8-.3-1.5-.7-1.7-.5-.1-2.7-4.2-5-8.9-2.4-4.7-5.4-9.6-6.8-10.9-1.7-1.6-2.5-3.4-2.5-5.7 0-3.1-.2-3.3-3.2-3.3-2.3 0-4.4-1.1-7.1-3.5-3.2-2.8-3.8-4-3.5-6.6.2-2.5 1.1-3.7 3.7-5.1 4.2-2.4 6-1.6 12.7 5.4 4.6 4.9 4.6 4.9 2.3 7.6-1.8 2-1.9 2.3-.4 1.2 1.1-.8 2.3-1.9 2.6-2.3.8-1.1 5.9 3.6 5.9 5.5 0 .8 1 2.3 2.1 3.4 1.2 1 2.5 2.8 3 3.9s2.5 4.5 4.4 7.5c1.9 3 3.4 6.4 3.5 7.6 0 2.6 4.9 12.3 8.7 17.1 3.4 4.4 10.3 18.1 10.3 20.5 0 2.4-3.9 4.8-7.6 4.8-2.8 0-3.4-.5-4.4-3.6zM72.5 160.3c.4-2.7 1.8-6.2 3.1-8 1.3-1.7 2.4-3.6 2.4-4.1 0-.5 1.1-2.1 2.5-3.6s2.5-3.1 2.5-3.6c0-1 9.3-14.9 11.8-17.6 1-1.1 2.3-2.7 2.8-3.5 1-1.9 10.5-12.6 18-20.5 3-3.2 6.1-5.4 7.3-5.4 1.1 0 3.5-.8 5.3-1.8 14-7.8 24.3-12.2 28.4-12.2 1.8 0 3.5-.4 3.8-.9.4-.5 2.3-1.2 4.4-1.6 3.7-.6 3.7-.6 3.9-7.7.3-7.7 1.3-9.8 5-9.8 2.4 0 2.4.1 1.7 7-.7 7-.7 7 3 7 3.3 0 3.7.3 3.4 2.2-.2 1.5-1.1 2.4-2.5 2.6-1.1.2-3.7 1.9-5.7 3.8-1.9 1.9-4 3.4-4.6 3.4-.5 0-1.9.9-2.9 1.9-1.1 1.1-4.7 2.9-8 4.2-12.5 4.5-34 16.9-34.1 19.7 0 .6-.6 1.2-1.3 1.2-.7 0-2.4 1.2-3.7 2.8-2.5 2.8-11 15.1-11 15.9 0 2.1-14.9 19.3-16.7 19.3-.3 0-2.2 1.7-4.2 3.8-6 6-11.5 10.2-13.5 10.2-1.6 0-1.7-.5-1.1-4.7zM174.6 147.8c-.3-1.3-.6-4.6-.6-7.3 0-6.5 2-9.5 6.4-9.5 5 0 7.4 2.7 8.2 9.2.6 5.5.6 5.5-3 7.6-5 3-10.2 2.9-11 0zM179 105.7c-5.2-2.5-8-5.8-8-9.7 0-4.8 2.4-7 7.7-7 3.5 0 4.2.4 4.7 2.4.3 1.3 2.4 4 4.6 6 3 2.7 4 4.4 4 6.6 0 3-.1 3-5.2 2.9-2.9 0-6.4-.6-7.8-1.2zM271.7 91c-9.3-4.5-13.8-6-29.7-9.2-9.2-1.9-31-1.6-38.6.5-3.4.9-7.6 1.7-9.3 1.7-2.8 0-3.1-.3-3.1-3.2.1-2.7.9-3.9 4.6-6.6 5.6-4.2 8-4.9 21-6.3 7.8-.8 12-.8 17.1.1 8.5 1.5 17.9 3 21.6 3.4 1.5.1 3 .6 3.4.9.3.4 1.5.7 2.5.7s2.6.4 3.6.9c.9.6 4.3 1.8 7.5 2.7 3.2.9 8.2 3.4 11.2 5.6 2.9 2.1 5.7 3.8 6.1 3.8 1.2 0 7.4 4.4 7.4 5.2 0 1.5-8.1 4.8-11.7 4.7-2.4 0-7.4-1.8-13.6-4.9zM173.7 49.3c2.6-6.8 14.7-18.2 21.6-20.3 10.7-3.2 25.7-3 25.7.4 0 2.2-4.6 3.9-8.7 3.3-4.1-.7-11.6.9-17.7 3.8-4 1.9-11.3 8.5-13.2 12-.7 1.3-2.4 2.1-4.7 2.3-3.2.3-3.6.1-3-1.5z"/></g><g fill="#ff7878"><path d="M296.5 389.4c.7-6.3.6-6.8-.9-5.5-1.4 1.2-1.6 1-1.6-2 .1-3.7 3.5-7.9 23.8-28.6 5.6-5.8 10.2-10.9 10.2-11.4s.5-.9 1-.9c.6 0 4.2-3.2 8-7.1 5.3-5.4 7.8-7.2 10.6-7.6 3.4-.6 3.6-.5 2.9 1.7-.4 1.3-.9 3.7-1.1 5.4-.6 5.6-2.2 14-3.8 21.1-1.5 6.2-2.1 9.2-4 18.4-.6 2.8-1.6 4-1.7 2 0-1.6-.3-4.6-1.3-16.4-.8-8.6-2.9-14.5-5.1-14.5-1.8 0-4.5 3.9-4.5 6.5 0 1.1-2 4.2-4.5 6.9-2.5 2.6-4.5 5.2-4.5 5.6 0 .5-.6 1.5-1.3 2.2-.7.7-2.8 3.8-4.7 6.8-3.5 5.7-6.9 10.3-9.5 13.1-.8.9-1.5 2.1-1.5 2.7 0 .7-.4 1.2-1 1.2-.5 0-1 .9-1 2s-.4 2-.9 2-1.7.8-2.6 1.7c-1.6 1.5-1.6 1.2-1-5.3zM125 390.3c-.8-2.7-1.4-5.4-1.3-6.1.1-.9-.6-1.2-1.8-.9-3.3.9-2.5-4.5 1.1-7.1 1.6-1.2 3.3-2.2 3.8-2.2s1.5-.7 2.2-1.5c.7-.8 2.8-1.5 4.7-1.5 3.3 0 3.4.1 1.9 2.2-.9 1.2-1.6 3.1-1.6 4 0 1-.4 2.6-.9 3.6-.6.9-2.3 4.5-3.8 8-2.8 6.3-2.8 6.3-4.3 1.5zM164.6 379.1c-1-1.6-2.2-10.9-2.5-20-.1-3.4-.4-4.2-1.6-3.7-1.1.4-1.5-.1-1.5-1.9 0-1.5.6-2.5 1.4-2.5.8 0 2.1-.6 2.8-1.3.7-.7 2.9-2.1 4.8-3 1.9-1 5.5-3.1 8-4.7 4.4-2.8 11-4 11-2 0 .6-.7 1-1.6 1-1.3 0-1.4.7-.7 4.3 2.1 10.7.4 14.9-9.4 24.2-2.9 2.8-5.3 5.7-5.3 6.6 0 1.7-4.6 4.3-5.4 3zM120 371.5c1.5-1.8-.1-2-1.8-.3-.9.9-1.2.4-1.2-2.2 0-3.2 1.6-5.1 20.1-23.2 17.4-17.1 20.5-19.8 23.2-19.8 2.4 0 2.8.3 1.9 1.2-1.9 1.9-1.4 2.5 2.4 3.3 2.1.3 4.8 1.3 6.1 2.2 1.5 1 3.4 1.3 5.3.9 2.8-.5 3-.3 3 2.2 0 2.3-.6 3-3.6 4.1-1.9.7-5 2.6-6.8 4.2-2.6 2.2-4.3 2.9-7.7 2.9-4.2 0-4.2 0-2.3-2.2 2.6-2.9 2.5-4.9-.3-5.9-1.8-.7-3-.2-5.7 2.4-5.4 5-10.1 14.8-5.1 10.7 2.2-1.9 2.8-.7 1.1 2.5-1.2 2.3-4.4 5-12.6 10.5-.8.6-3.7 2.6-6.4 4.5-5.2 3.6-12.2 5.1-9.6 2z"/><path d="M296.8 367.8c.5-.7 1-5.6 1-10.8 0-22.3.2-24 3.6-28.6 4-5.3 6.7-10 8.4-14.4 1.2-3.4 2.3-9 1.6-9-1.3 0-18.4 20.3-18.4 21.8 0 .4-2.9 3.9-6.5 7.6-3.6 3.7-6.5 7-6.5 7.2 0 1.4-25.5 25.3-27 25.4-.8 0-.4-4.1.5-6.2.4-1 .5-2.5.2-3.3-.4-.8-.2-1.7.3-2 .6-.4 1-2.2 1-4.2 0-3.1-.2-3.4-1.6-2.2-1.4 1.1-1.5.9-1.2-1.7.2-1.9 1.1-3.3 2.6-3.9 1.2-.5 2.5-1.8 2.8-2.7.3-.9 1.5-2 2.6-2.4 2.5-.7 3.7-1.7 8.5-6.1 1.9-1.8 3.8-3.3 4.2-3.3.3 0 2-1.2 3.6-2.6 1.7-1.5 4-3.3 5.3-4.1 1.2-.9 2.2-2.2 2.2-2.9 0-.8.7-1.4 1.6-1.4 1.7 0 12.4-8 12.4-9.2 0-.5.5-.8 1.1-.8 1.2 0 7.5-4.6 10.6-7.7 1.2-1.3 2.9-2.3 3.7-2.3.8 0 2.1-.8 2.8-1.8.7-.9 2.4-2.3 3.8-3 3.5-1.7 8.8-4.8 10.2-6 .7-.5 3-1.9 5.1-3.1 2-1.2 5.4-3.1 7.5-4.2 2-1.2 5.6-3.2 7.9-4.5 2.3-1.3 5.8-2.4 7.7-2.4 3.7 0 4.8 1.3 2.1 2.4-1.1.4-1.6 1.9-1.6 4.3 0 6.6-.6 15.7-1.2 17.3-1.6 4.6-2.7 8.4-2.4 8.7.2.1 1.3-.6 2.5-1.7 2.6-2.4 2.6-2.4 1 2-1 3-6.8 10.2-10.7 13.4-4 3.2-17 17.3-17.1 18.4 0 .6-.6 1.2-1.3 1.2-1 0-6.7 5.5-6.7 6.4 0 .1-3 3.3-6.7 7.2-3.8 3.9-8.6 9.2-10.7 11.7-3.1 3.6-4.7 4.7-6.9 4.7s-2.7-.3-1.9-1.2zM48 364.3c0-3.5 1.6-5.3 4.7-5.3 1.7 0 2.3-.6 2.3-2.3 0-2-.4-2.2-4.2-1.9-3.3.2-3.9 0-2.6-.8 1.9-1.2 3-5.3 3.2-12.5.3-6.6-.2-8.1-2-5.8-1.2 1.6-1.3 1.4-1.4-1.8 0-3.1 2.4-7.8 5.1-9.9.3-.3 2.5-2.7 4.9-5.5 2.3-2.7 7-8 10.4-11.6 3.3-3.6 7-7.6 8.1-8.9 2-2.3 2-2.3-.1-1.2-1.2.6-4.3 3.7-7 6.9C59 315.9 55.8 319 53.3 319c-1.5 0-2.2-.4-1.7-1.1.3-.6.7-6.2.9-12.3.1-6.2.5-11.8.9-12.4.4-.6.7-3.3.7-5.9.1-9.4.4-13.8 1.1-14.3.4-.3.8-2.3 1-4.4.1-2 .6-4 1-4.2.4-.3.8-2.7.8-5.3 0-2.6.3-5.1.7-5.5.4-.3.8-1.7 1-2.9.2-1.2.7-4.4 1.3-7.2 3.3-17.1 3.4-18.6 1.6-17.9-1.2.5-1.6 0-1.6-1.8s1.1-3 4.2-4.8c2.4-1.3 4.5-2.6 4.8-2.9.3-.3 3.1-2 6.4-3.6 3.2-1.7 6.1-3.6 6.3-4.2.3-.7 1.1-1.3 1.9-1.3 1.4 0 8.2-3.5 9.9-5.1.5-.5 2.7-.9 4.9-.9 3.8 0 3.9.1 2.2 1.9-2.1 2.3-3.4 7-4.5 16.3-.6 5-1.8 8.2-4.6 12.8-3.4 5.6-4.1 9-1.3 6.2.7-.7 1.6-1.2 2.1-1.2.8 0 .7 1.5-1.3 14.5-1.4 9.4-2 22.9-.8 21.7.5-.5 1.1-1.6 1.2-2.3.2-.8.9-2.7 1.6-4.4.7-1.6 1.3-3.3 1.2-3.7-.1-.5.3-.8.8-.8s1-.3.9-.7c-.2-1.6 1.4-5.3 2.2-5.3.8 0 1.4 5.6 1 8.3-.2 1.1.6.8 2.3-.9 1.5-1.4 1.6-1.3 1.6.6 0 3.3-1.8 6-7.9 12-7.6 7.5-16.1 16.8-13.6 15 2.2-1.6 6.3-5.8 10.8-10.9 1.9-2.2 3.6-3.1 5.7-3.1 2.7 0 3 .2 2 2-1.6 2.9.4 10.2 4.6 16.5 3.5 5.3 5.7 7 7.5 5.9.5-.3.9.6.9 2 0 2.3.4 2.6 3.7 2.6 3.4 0 3.5.1 2 1.8-1.6 1.7-1.5 2 .6 3.9 1.3 1.1 3.9 2.8 5.8 3.9 1.9 1 3.6 2.2 3.9 2.5.3.3 2.8 1.6 5.5 2.9 11.1 5.1 13.1 5.5 14.4 3.3.9-1.5 1-1.3 1.1 1.5 0 3-1.6 4.9-16.2 19.3-9.8 9.5-17.1 15.9-18.2 15.9-1.5 0-1.7-.3-.9-1.1.9-.9.8-2-.2-4.3-5.8-13.5-9.5-22.5-9.5-23.2-.1-.5-.9-1.9-2-3.2-1.5-1.8-2.5-2.2-4.2-1.7-3.8 1.2-13.8 6.7-13.8 7.6 0 .5-.5.9-1.1.9-.6 0-3 1.6-5.2 3.6-4.2 3.5-4.2 3.5-4.5 1-.2-1.4-.6-2.6-.8-2.6-.7 0-7.6 5-8.9 6.5-.5.5-2.9 2.5-5.2 4.3-5.1 4-5.4 5.2-1.1 5.2 3.2 0 3.2 0-1.2 4.6-2.5 2.5-5.7 5.5-7.2 6.5-2.8 2-2.8 2-2.8-.8zm38.6-32.7c.1-.1.4-1.4.8-3.1.6-2.7.5-2.8-.7-1.2-.8.9-1.9 1.7-2.4 1.7s-1.8.9-2.8 2c-1.8 2-1.8 2 1.6 1.4 1.9-.4 3.4-.7 3.5-.8zm15.2-15.3c.7-.7.9-1.3.4-1.3-1.1 0-5.2 3.5-5.2 4.5 0 .7 2.1-.7 4.8-3.2zM254.2 326.7c1.2-1.2 1.6-3.9 1.7-11.3.1-5.4.4-10.1.6-10.5.9-1.4-.7-3.8-2.1-3.2-2.1.8-1.8-3 .4-5 .9-.9 3.5-2.4 5.7-3.4s5.4-2.8 7.2-4c1.7-1.3 3.5-2.3 4.1-2.3.8 0 12.7-5.9 20.2-10 4.1-2.2 12.3-6 13-6 .5 0 7.3-3.1 15.2-6.8 15.9-7.6 20.2-9.2 24.1-9.2 2.4 0 2.7.4 2.7 3.3 0 2.8-.7 3.7-4.5 6.1-2.5 1.6-4.5 3.5-4.5 4.2 0 .8-.8 1.4-1.9 1.4-1.6 0-6.7 3.3-11.3 7.3-.9.8-2.5 1.8-3.6 2.1-1.1.4-2.3 1.3-2.6 2.1-.3.8-1.2 1.5-2.1 1.5-.8 0-1.5.5-1.5 1 0 .6-1.1 1.5-2.5 2s-2.5 1.4-2.5 2c0 .5-.7 1-1.5 1s-2 .9-2.7 2c-.7 1.1-1.7 2-2.3 2-.6 0-3.3 1.9-6 4.3-2.8 2.4-8.3 6.7-12.2 9.6-4 3-7.3 5.7-7.3 6.1 0 .4-1.9 2-4.2 3.5-2.4 1.5-6 4.5-8 6.7-3.1 3.3-4.5 4.1-8.5 4.6-4.4.5-4.6.4-3.1-1.1zM255.2 289.3c1.2-1.5 1.3-4.8.6-20.7-.4-10.4-1-19.1-1.3-19.5-.3-.3-1 .1-1.5.9-.8 1.2-1 .9-1-1 0-2.5 5.7-9 7.8-9 .6 0 1.2-.4 1.4-.9.2-.4 4.1-3.4 8.8-6.7 4.7-3.2 11.4-8 15-10.7 3.5-2.7 7.5-5.4 8.7-6 1.3-.6 2.3-1.4 2.3-1.9 0-.4.7-.8 1.5-.8s1.5-.3 1.5-.7c0-.5 3.6-3 8-5.8 4.3-2.7 7.9-5.6 8-6.2 0-.7.9-1.3 1.9-1.3 1.1 0 2.2-.4 2.5-.9.7-1.1 12.3-9.1 13.1-9.1.4 0 2.7-1.6 5.2-3.5 3.5-2.7 5.5-3.5 8.6-3.5 3.5 0 3.8.2 2.5 1.3-1.4 1-1.5 1.9-.5 6.7.7 3 1.5 6 1.9 6.5.3.6 1.8 5.6 3.2 11.1 1.4 5.6 2.6 10.5 2.7 11 .2.5-.1 2.3-.5 4.1-.5 2.1-.3 4 .6 5.5.7 1.3 1.4 2.8 1.4 3.3.5 3.3 1.7 5.3 3 4.8.9-.3 1.4.2 1.4 1.5 0 1.5-1.5 2.8-5.2 4.6-2.9 1.4-6 2.9-6.8 3.4-3.7 2.2-6.1 3.2-7.4 3.2-.7 0-4.3 1.5-7.8 3.3-3.6 1.7-8.6 4.1-11.2 5.2-2.5 1.1-4.6 2.3-4.6 2.7 0 .5-.7.8-1.5.8-2 0-13 5.7-14.5 7.5-.7.8-2.2 1.5-3.4 1.5-1.2 0-2.6.4-3.2.9-.5.5-5.8 3.5-11.9 6.6-15 7.8-21.8 11.6-22.9 12.6-.6.5-2.6.9-4.5.9-3.1 0-3.3-.1-1.9-1.7zM159 248.8c0-1.3-5-18-5.6-18.7-.2-.2-1 .2-1.9.9-2.7 2.2-1.9-3.8.9-6.3 8.4-7.7 11.5-9.7 14.9-9.7 2.5 0 2.7.2 1.7 1.5-.6.8-.9 1.9-.5 2.6.4.6.3 2.1-.3 3.2-.5 1.2-2 6.5-3.2 11.7-2.2 9.5-4.4 16-5.4 16-.4 0-.6-.5-.6-1.2zM242.5 245.1c.4-1.4-.4-3-2.7-5.3-1.8-1.9-4.2-4.4-5.3-5.7-1.9-2.2-1.9-2.2.8-1.2 7 2.7 8.7 4.1 8.7 7.2 0 2.4.4 3 1.5 2.5 1.1-.4 1.5.1 1.5 1.9 0 2-.5 2.5-2.6 2.5-2 0-2.4-.4-1.9-1.9z"/><path d="M252.1 238.7c1.3-1 1.5-2.7 1.1-9.4-.3-6.7-.1-8.3 1-8.3.8 0 1.9.5 2.6 1.2.7.7 1.2.9 1.2.6 0-.6 4.4.2 9 1.7 1.8.5.9-.6-3-3.9-3.3-2.8-6.2-4.5-7.2-4.2-1.1.2-1.8-.2-1.8-1 0-.9-1.1-1.4-3-1.4-3.2 0-4-1.4-1.4-2.4 1.8-.7 1.7-5.5-.7-24.1-.5-4.4-1.1-10.3-1.2-13-.2-2.8-.6-5.5-1-6.2-.4-.6-.8-3.6-1-6.6-.2-5.2-.3-5.5-1.9-4-1.7 1.5-1.8 1.5-1.8-.4 0-1.1.9-3.2 2.1-4.7 2-2.6 2-2.6-1-2.6-1.7 0-3.1-.4-3.1-1 0-.5.7-1 1.5-1 2.1 0 1.9-3.3-.5-8.2-1.1-2.3-2-4.9-2-5.8 0-2.9-1.9-3.9-5.1-2.6-2.8 1-3 1.4-2.3 4.6.4 1.9.8 4.6 1 6 .1 1.4.8 3.9 1.5 5.5.7 1.7 1.2 3.3 1.1 3.8-.3 1.1 1.3.8 2.6-.5.9-.9 1.2-.7 1.2 1 0 2.3-1 3.5-7.4 8.3-2.1 1.6-3.5 2.9-3 2.9s2-.9 3.4-2 4-2 5.9-2c3.3 0 3.4.1 1.5 1.4-2.2 1.6-2.5 8.2-1 21.6.4 4.1 1 9.1 1.2 11 .2 1.9.7 6.1 1 9.3.6 5.3.5 5.7-1.3 5.7-1.1 0-2.6-.7-3.3-1.5-.7-.9-1.8-1.4-2.4-1.2-.6.2-2.2-.1-3.6-.8-2.9-1.4-16.6-4-19.3-3.6-2.6.4-8.5-3.9-10-7.2-.6-1.5-1.8-2.5-2.4-2.2-.8.3-1.3-.5-1.3-2 0-1.4.3-2.5.8-2.5 1.2 0 8.8-6.9 7.7-7-.6 0-2.5 1.4-4.3 3-2.2 2-4.4 3-6.4 3-2.6 0-2.9-.2-1.8-1.5 1-1.2.7-2.2-1.6-5.2-1.6-2.1-4.2-5.1-5.7-6.6-2.8-2.7-2.9-3.1-2.2-9.3.6-5.6.5-6.3-.9-5.8-3 1.2-1.9-3.5 1.2-4.9 1.5-.6 2.9-1.4 3.2-1.8.6-.7 5.4-3.2 10.3-5.3 2-.8 3.7-2 3.7-2.6 0-.5.9-1 1.9-1 2.2 0 10.5-4.2 13.1-6.5.9-.8 2.2-1.5 2.8-1.5.7 0 2.9-.9 4.9-2 2.1-1.1 5.2-2 7-2 2.7 0 3.3-.4 3.3-2 0-1.1.8-2.3 1.8-2.7.9-.4 3.6-1.9 5.9-3.5 2.3-1.5 5-2.8 6-2.8 1.1 0 2.3-.4 2.9-.9.5-.5 3.6-2.3 6.9-4 3.3-1.8 6.7-3.6 7.5-4.1.8-.4 3.3-1.6 5.5-2.5 2.2-1 5.4-2.4 7-3.2 12-6.1 14.9-7.3 17.7-7.3 3 0 3.1.1 1.6 1.7-1.6 1.5-1.4 1.8 2 4.9 2 1.9 4.5 3.4 5.5 3.4 3.5 0 1.8 3.8-2.8 6.6-2.5 1.4-4.4 2.9-4.1 3.1.2.3 2.5-.9 5-2.6 4.3-3 10.6-4.2 10.6-2.1 0 .6-1 1-2.2 1-2.1 0-2 .2.8 3.2 1.7 1.8 4.8 6.9 7 11.3 2.1 4.4 4.2 8.1 4.7 8.3.4.2.7.9.7 1.7 0 2.2 4 10.4 6.3 13 1.2 1.3 3.5 4.3 5 6.5 2.3 3.3 3.2 3.9 4.3 2.9 1.1-.9 1.4-.7 1.4 1.4 0 1.4-.8 3.1-1.7 3.6-1.5.9-1.2 1.1 1.7 1.1 2.8 0 3.2.3 1.8 1-1.4.9-1.5 1.6-.7 4 .7 1.9 1.5 2.7 2.5 2.3 2.3-.9 1.7 3.7-.8 5.8-1.3 1-2.7 1.8-3.1 1.9-.4 0-3.2 1.8-6.2 4s-5.7 4-6 4c-1.3 0-15.5 10.1-15.5 11 0 .6-.9 1-2 1-1 0-3.4 1.3-5.2 2.9-1.8 1.5-3.9 3-4.5 3.2-.7.2-3.2 1.9-5.5 3.7-2.4 1.7-8 5.7-12.6 8.8-9.3 6.2-11.3 7.7-15.5 11.7-1.6 1.5-3.4 2.7-4.1 2.7-.6 0-2.6 1.4-4.4 3-2.3 2-4.3 3-6.5 3-2.7-.1-3-.2-1.6-1.3zm-29.4-69.9c1.8-1.3 3.3-2.7 3.3-3.2s-.6-.4-1.2.1c-.7.5-2.6 1.9-4.2 3.1-3.8 2.9-2.2 2.8 2.1 0zm27.9-20.3c.4-.8 1.1-1.5 1.8-1.5 1.5-.1 6.4-3.9 4.9-4-.6 0-1.8.7-2.7 1.5-.8.8-1.9 1.5-2.4 1.5s-1.7.9-2.7 2c-1.1 1.2-1.3 2-.6 2 .6 0 1.4-.7 1.7-1.5zm12.7-8.4c1.5-.8 2.7-1.8 2.7-2.3 0-.5-1.5.1-3.2 1.3-5.3 3.6-5.2 3.8.5 1zm9.7-6.5c0-.9-4.1.8-5.2 2.2-1.1 1.3-.8 1.2 2-.2 1.7-.9 3.2-1.8 3.2-2zm11-7.1c.7-.8.8-1.5.2-1.5-.5 0-1.5.7-2.2 1.5-.7.8-.8 1.5-.2 1.5.5 0 1.5-.7 2.2-1.5zm6.6-4.6c.4-.8.1-.8-1.4 0-1.2.6-2.4 1.6-2.8 2.2-.4.8-.1.8 1.4 0 1.2-.6 2.4-1.6 2.8-2.2z"/><path d="M239.9 230.4c-2.6-2.5-2.6-2.5-6.2-.5-3 1.7-3.7 1.8-3.7.6 0-.9 1-1.5 2.5-1.5 1.4 0 2.5-.6 2.5-1.3 0-.9-1.3-1.2-4.2-.9-3.4.2-3.9.1-2.5-.8 2.3-1.5 2.2-3-.4-3-1.2 0-3.5-1.5-5.2-3.4-6.5-7.1-8.7-9.7-8.7-10.5 0-1.3 18.5 3 23.9 5.5 1.8.9 4.4 1.4 5.7 1.1 2.2-.4 2.4-.1 2.2 3.4-.1 2.3-.7 4-1.6 4.4-1 .3-1.3 1.4-.9 3.3.2 1.5.2 3.5-.2 4.5-.6 1.5-.9 1.5-3.2-.9zM128.3 218c-1-4-1-4 3.5-6 6.9-3.1 6.9-3.1 2.9 4.5-.9 1.7-2.4 3.6-3.4 4.2-1.7 1.2-2 .9-3-2.7z"/><path d="M149.2 220.4c1.4-1.4 1.4-2.1-.3-7.6-2.4-7.5-2.4-7.5.4-8.4 1.9-.7 1.7-.9-1.8-1.5-4-.7-10.2.7-17.2 3.7-1.8.7-3.4 1-3.6.6-.3-.4-.8-3.4-1.1-6.7-1.1-8.9-1.6-10.4-3.2-9.8-2.1.8-1.8-3.1.4-5 1-1 2.5-1.7 3.3-1.7.8 0 1.9-.4 2.5-.9.5-.5 3.6-2.4 6.9-4.2 3.3-1.8 6.2-3.5 6.5-3.9.3-.3 3.4-2 7-3.8 8.8-4.3 21.3-11.1 22.5-12.3 1.2-1.2 7.5-1.2 7.5 0 0 .5-.6 1.1-1.3 1.4-1 .4-1.7 4.5-2.5 13.9-.6 7.3-1.8 16.4-2.6 20.3-1.5 6.8-1.3 9.3.4 6.5 1.3-2.1 2.2-.7 1.5 2.2-.4 1.5-4.5 5.7-10.6 10.7-7.8 6.4-10.5 8.1-13.1 8.1-2.9 0-3.1-.1-1.6-1.6zM66.3 209.2c1-1 1.7-2.5 1.7-3.4 0-.8.3-1.7.6-2.1.4-.3 2.1-5.1 3.9-10.6 1.9-5.4 4.1-11.3 5-13.1 2.2-4.3 1.5-4.6-2.3-.9-3.2 3.2-3.2 3.2-.9-1.9 1.3-2.9 4.7-7.3 7.4-9.9 6.3-6 22-19.5 23.9-20.6.8-.4 1.4-1.5 1.4-2.3 0-.8 1.3-2 2.9-2.5 1.5-.5 3.4-2.1 4.1-3.4.7-1.4 1.7-2.5 2.1-2.5 1.1 0 20.4-15.8 26.5-21.7.7-.7 1.7-1.3 2.2-1.3.6 0 1.2-.7 1.6-1.5.3-.8 1.2-1.5 2-1.5s1.6-.3 1.8-.8c.2-.4 3.9-3.6 8.3-7.1 4.4-3.5 8.5-7 9.1-7.8.6-.7 2.8-1.3 4.8-1.3 3.3 0 3.6-.2 3.6-3 0-1.7.5-3 1.3-3 .6 0 2.3-1.2 3.6-2.6 2.7-2.8 10.9-6.9 16.1-7.9 3.5-.7 3.5-.7.1 1.9-3.9 2.9-3.9 3 .9 1.6 5.7-1.7 23.2-3.8 28-3.4 2.5.2 7.2.6 10.5.9 3.3.4 6.7.7 7.5.7.8 0 2 .5 2.6.9.6.5 2.2.9 3.5.9 3.1-.1 6.2.4 7.4 1.2.6.3 2.4.9 4.1 1.2 1.7.4 7.7 2.9 13.4 5.7 5.7 2.7 10.9 4.8 11.7 4.5.8-.4 1.3.3 1.3 1.8 0 2-1.4 3.1-8.2 6.5-4.6 2.2-9.9 4.9-11.8 5.9-1.9 1.1-4.8 2.6-6.5 3.3-1.6.8-3.2 1.6-3.5 1.9-1.2 1.2-14.3 7.9-23.2 11.9-2.5 1.1-4.9 2.5-5.3 3.1-.3.5-1.3 1-2.2 1-1.2 0-17.7 7.7-23.3 10.9-.8.5-3.7 1.9-6.5 3.2-2.7 1.3-5.4 2.9-5.8 3.6-1.1 1.8-8.7 1.7-8.7-.1 0-.8.6-1.6 1.4-1.9 1.9-.8.8-5.7-1.8-8-2-1.8-2.1-1.8-3.8.3-2.7 3.3-2 11.7.8 10.6.9-.3 1.4.2 1.4 1.3 0 1.7-6.8 7.1-9 7.1-1.2 0-4.9 2-6.8 3.8-.7.6-2.3 1.2-3.4 1.2s-2.2.8-2.5 2c-.4 1.4-1.4 2-3.2 2-1.4 0-4.4 1.1-6.6 2.5-2.2 1.3-7.6 4.2-12 6.5s-8.7 4.8-9.6 5.6c-1.7 1.5-7.9 1.9-7.9.6 0-.5.8-1.6 1.8-2.5 1.5-1.4 1.8-3 1.6-9.7-.2-4.4-.5-8.4-.8-8.9-.3-.5-1.9-1.1-3.6-1.3-3.3-.5-5.8 1.4-6.5 5-.2 1.1-1 3.4-1.9 5-.9 1.7-1.8 4.6-2 6.6-.2 1.9-.7 4-1.1 4.6-.3.5-.8 1.8-1 2.7-.2 1-.6 2.6-1 3.6-.8 1.8.9 2.4 2 .7 1.5-2.4 2.3-.7 1.1 2.2-1.1 2.4-3.3 4.2-9.8 7.7-4.6 2.5-9.7 5.6-11.2 6.9-1.6 1.2-3.5 2.2-4.2 2.2-.8 0-3.8 1.6-6.8 3.5-3.4 2.1-6.8 3.5-8.7 3.5-3 0-3.1-.1-1.6-1.8zM185 100.4c-2.2-2-4.3-4.7-4.6-6-.8-2.9-2.5-3.1-5-.3-1.8 2-1.8 2.1 1.1 4.7 3.4 3.1 6.6 4.7 10.1 5 2.1.2 2-.2-1.6-3.4zM97.1 139.7c1.4-1.2 7.9-10.1 7.9-11 0-.8 8.5-13.1 11-15.9 1.3-1.6 3-2.8 3.7-2.8.7 0 1.3-.6 1.3-1.2.1-2.5 22.3-15.6 32.5-19.2 2.2-.8 4.8-1.7 5.8-2.1 1.3-.6 1.7-.2 1.7 1.8 0 1.9-1.6 3.8-6.7 7.8-3.8 2.9-7.7 6.3-8.9 7.5-1.1 1.2-4 3.4-6.2 4.9-2.3 1.5-4.2 3.1-4.2 3.5 0 .3-1.9 2-4.2 3.7-2.4 1.7-5.9 4.5-7.8 6.3-1.9 1.7-5.5 4.8-7.9 6.8-2.5 2-6.3 5.4-8.6 7.5-3.2 2.8-5.1 3.7-7.6 3.7-2.9-.1-3.2-.3-1.8-1.3z"/></g><g fill="#65ddff"><path d="M290.4 385.3c.3-2.1.6-5.4.6-7.4 0-2.8 1-4.6 5-9 4.9-5.4 4.9-5.4 5 1.4 0 6.8-.1 7-4.7 12.7-2.7 3.3-5.2 5.9-5.7 5.9-.5.1-.6-1.6-.2-3.6zM115.6 383.2c-.3-2-.8-5.9-1.2-8.7-.4-2.7-1-5.4-1.4-6-.4-.5-1-2.1-1.3-3.5-.5-2-.1-2.8 2.3-4.2 1.7-.9 3-2.4 3-3.3 0-.8.7-1.5 1.5-1.5s1.5.6 1.5 1.3c0 .8.7 2.8 1.6 4.6 1.6 3.1 1.5 3.2-2.2 7.8-3.8 4.6-3.1 5 1.4.9 2.7-2.4 3.6-1.5 4.6 4.6.6 3.5.3 4.2-2.6 6.9-5.7 5.3-6.6 5.4-7.2 1.1zM134 370.5c0-7.2 2.6-11.1 11.5-17 4.5-3 8.8-5.5 9.5-5.5.6 0 1.9-.9 2.8-2 2.3-2.7 6.2-3.5 6.2-1.2 0 .9.3 3.4.6 5.5.5 3 .4 3.7-.9 3.7-.9 0-2.8 1.1-4.3 2.5s-2.9 2.5-3 2.5c-.2 0-.3-1.5-.2-3.2.3-2.7-.1-3.3-1.6-3.3-1.3 0-2.9 1.9-5 6-3.6 7-3.5 6.9-10.3 11.8-5.3 3.7-5.3 3.7-5.3.2zM42.5 365.3c.4-7.2.1-6.7 8.8-14C54 349 54 349 54 352c0 3.8.9 3.8 3.9 0 1.3-1.7 2.8-3 3.3-3 .6 0 1.9-1.1 3-2.5s2.6-2.5 3.4-2.5c.8 0 1.4-.7 1.4-1.5s.6-1.5 1.4-1.5c.8 0 1.6-.7 2-1.5.3-.8 1.2-1.5 2-1.5s1.6-.5 1.8-1.1c.2-.6 1.7-.9 3.3-.7 2.9.3 2.9.3-.6 3.5-1.9 1.7-5.4 5-7.8 7.2-2.4 2.3-4.9 4.1-5.7 4.1-.7 0-1.6.9-1.9 2-.3 1.1-1 2-1.4 2-.4 0-2.5 1.7-4.7 3.8-8.5 7.8-13 11.8-14.1 12.5-.9.6-1.1-1.1-.8-6zM246.5 343.4c.5-7.4 1.1-10.1 2.7-11.8 1-1.1 2.2-2.4 2.6-2.9 1.6-1.8 5.6-4.7 6.4-4.7 1 0 1 2.8.1 13.7-.6 8.3-.6 8.3-5.1 11.8-7.1 5.5-7.6 5.1-6.7-6.1zM180.7 343.3c-.4-.3-.7-1.9-.7-3.5 0-2.4-.4-2.8-3-2.8-2.9 0-2.9-.1-1.3-2 1-1.1 2.5-2 3.4-2 .9 0 1.9-.7 2.3-1.5.3-.8 1.4-1.5 2.4-1.5s2.7-.9 3.7-2 2.6-2 3.5-2c.9 0 2.7-1.1 3.9-2.4 2.3-2.4 2.3-2.5.2-1.9-1.2.3-2.4.9-2.7 1.4-.3.5-1.2.9-2.1.9-1.4 0-1.3-.3.3-2.1 2.7-3 5.1-4.1 11.9-5.5 3.3-.7 9-2.1 12.8-3 8.4-2 15.7-1.3 15.7 1.6 0 1.1-.5 1.7-1.2 1.5-.7-.3-2.4.2-3.8.9-1.4.8-4.1 2.3-6 3.3-6.9 3.7-9.6 5.4-12.5 8.1-.7.6-2.1 1.2-2.9 1.2-.9 0-1.6.5-1.6 1 0 .6-.9 1-2 1-1.2 0-3.1 1.1-4.4 2.5-1.3 1.4-3 2.5-3.7 2.5-.8 0-2.5.9-3.9 2s-2.9 2-3.4 2-1.7.7-2.6 1.5c-.9.8-2 1.2-2.3.8zM43.7 333.8c.6-6.7 1-7.8 5.1-12.8 2.4-3 4.8-5.6 5.3-5.8.5-.2.9 2.6.9 6.3 0 5.7-.4 7.2-2.7 10.3-3.2 4.3-7.9 9.2-8.7 9.2-.4 0-.3-3.3.1-7.2zM84.2 332.9c.3-3.1.6-3.4 3.7-3.7 4.1-.4 3.8 1.1-.8 4.7-3.3 2.5-3.3 2.5-2.9-1zM150.7 330.3c-4.9-1.5-4.9-1.5-2.5-4.1 1.2-1.5 2.8-3 3.3-3.5.6-.4.3-1.3-.9-2.2-1.9-1.4-1.7-1.5 2-1.5 5.8 0 13.4 3 13.4 5.3 0 1-.4 1.5-1 1.2-.5-.3-2.4 1-4.1 2.9-3.5 4-3.4 4-10.2 1.9zM348.4 324.3c1.8-13.1 2.2-14.5 5.5-17 1.8-1.4 5-4.5 7.3-6.9 2.3-2.4 4.3-4.2 4.6-4 .2.3-.2 4.4-.9 9.1-1.3 8.7-1.5 9.2-7.8 15-.6.6-2.6 2.7-4.5 4.8-1.8 2-3.7 3.7-4.1 3.7-.4 0-.5-2.1-.1-4.7zM167.7 311.2c-1-1-1.7-3.1-1.7-4.6 0-2.4.2-2.5 2-1.6 2.8 1.5 4.1-1.7 1.5-3.6-1.7-1.3-1.6-1.4 1.8-1.4 4.5 0 6.7 2.8 6.7 8.7 0 4.3 0 4.3-4.3 4.3-3 0-4.9-.6-6-1.8zM111.2 308.7c-3.2-3.4-3-4 3.8-8.7 1.9-1.3 3.7-2.5 3.9-2.7.2-.1-.2-.9-.9-1.8-1.1-1.3-.9-1.5 1.4-1.5 3.5 0 8.5 5.5 8.6 9.4 0 2.4-.2 2.7-1.5 1.6-1.2-1-2.3-.5-6.4 2.4-2.7 2-5.3 3.6-5.8 3.6s-1.9-1-3.1-2.3zM244 300.1c0-4.4.3-8.6.6-9.5.8-2 2.4-2.1 2.4-.1 0 2.1 1.4 1.9 7-.9 4.8-2.4 4.8-2.4 5.2 2.7.2 2.9 0 5.8-.6 6.6-.6.7-3.4 2.5-6.3 3.8-2.9 1.4-5.3 3.2-5.3 3.9 0 .8-.7 1.4-1.5 1.4-1.2 0-1.5-1.5-1.5-7.9zM379.7 291c-4.7-3.8-4.7-3.8-1.7-5.3 2.9-1.5 3.1-1.4 7.2 2 4.2 3.5 4.8 5 2.5 6.5-2 1.3-3 .9-8-3.2zM201.5 289c-.4-.6-.9-3.5-1.2-6.5-.6-5.5-.6-5.5 2.5-5.5 2.3 0 3.6-.7 4.8-2.5 1.3-2 2.5-2.5 5.8-2.5 4.9 0 6.6 1.3 6.6 5.3 0 2.3-.3 2.7-1.9 2.2-2.3-.7-3.3.5-2.1 2.5 1 1.6-.5 5-2.1 5-.6 0-.8-.4-.5-.8.2-.4.1-1.3-.3-2-.9-1.5-7.1 2.2-7.1 4.3 0 1.7-3.5 2.1-4.5.5zM97 274.8c0-6.2 0-6.2 5.1-10.9 3.1-2.9 4.8-5.2 4.4-5.9-.5-.8 0-1.1 1.6-.8 2.7.3 3.6 3.1 3.8 11.5.1 5.5-1.4 7.9-2.7 4.3-.7-1.9-1.1-1.7-5.6 3-2.6 2.7-5.2 5-5.7 5s-.9-2.8-.9-6.2zM355.8 261.1c-.6-20.1-.3-22.6 2.8-24 1.4-.6 2.7-1.1 2.9-1.1.6 0 2.5 7.3 4 16 .8 4.3 2.3 9.9 3.5 12.5 1.2 2.6 2 4.9 1.8 5.1-.7.6-10.2 5.6-12.4 6.4-2.1.8-2.1.7-2.6-14.9zM157 271.1c0-1.3.5-1.9 1.4-1.5.7.3 2.3-.6 3.4-2 2.7-3.5 3.4-3.3 3 1.2-.3 3.5-.5 3.7-4 4-3.3.3-3.8 0-3.8-1.7zM215 268.4c0-.7 8.8-9.4 9.5-9.4 1.3 0 .3 6.2-1.2 8-1.6 1.8-8.3 3-8.3 1.4zM113.7 262.8c-1.3-5-1.9-12.8-1.3-14.5.7-1.6.9-1.6 2 .4 1.1 2.2 1.5 2 11.5-7.7 5.7-5.5 10.5-10 10.6-10 .1 0 .5 2 .9 4.5.3 2.5.9 6.5 1.2 8.8.5 3.5.3 4.5-1 5-1.1.5-1.6.1-1.6-1.3 0-1.1-.4-2-.8-2-1.6 0-4.2 3.6-4.2 5.8 0 1.2-.5 2.2-1.1 2.2-.5 0-.7-.4-.4-1 .3-.5.2-1-.3-1-1.6 0-11.7 10.2-11.4 11.6.5 2.4-3.5 1.6-4.1-.8zM241 257.5c-.7-.8-1.8-1.5-2.5-1.5-2 0-4.5-3.5-4.5-6.5 0-2.3.2-2.5 1.4-1.6 1.8 1.5 3.9.5 8.6-3.9 1.9-1.7 5-4 7.1-5 2-1.1 3.9-2.5 4.2-3.2.8-2.4 1.5-.3 1.9 5.6.2 4.8 0 6-1.6 7-1 .6-3.2 2.3-4.8 3.9-1.7 1.5-3.4 2.7-3.9 2.7s-.9.9-.9 2c0 2.4-3.2 2.7-5 .5zM191.3 256.3c-1.2-3.1-.9-11.6.5-12 .7-.3 1.2.4 1.2 1.6 0 1.7 1.2 1.2 8.9-3.9 4.9-3.3 9.3-6 9.8-6s2.2-1.3 3.8-3c1.5-1.6 3.1-2.7 3.5-2.5.4.2 2.3-.7 4.3-2 2-1.4 3.9-2.5 4.2-2.5.4 0 1.8-.9 3.2-2 2.7-2.1 6.3-2.7 6.3-1 0 .6.7 1 1.5 1 1 0 1.5-1 1.5-2.7 0-2.3 1.1-3.5 5.8-6.5 7.4-4.8 8.6-5.2 11.1-3.8 3.5 1.8 2.4 3.6-5.1 8-4 2.4-9.6 5.8-12.5 7.6-2.8 1.9-5.4 3.4-5.8 3.4-1.8 0-9.5 6.3-9.5 7.8 0 1.4-.2 1.4-.9.3-.7-1.2-1.4-1-3.6.8-1.5 1.1-3.4 2.1-4.2 2.1-.8 0-1.2.4-.9.9.8 1.2-10.3 12.3-11.5 11.6-.5-.4-.9-1.3-.9-2.1 0-2.1-6.1 2.2-6.8 4.8-.6 2.3-3 2.3-3.9.1zM218 249.2c0-1 2.2-3.2 3.1-3.2.4 0 .7.9.6 2-.1 1.9-3.7 3-3.7 1.2zM102.6 242c1.1-5.9 2.2-8 4.3-8 2.3 0 1.9 2.2-.9 5.5-1 1.1-2.3 2.9-2.9 4-1 1.7-1.1 1.5-.5-1.5z"/><path d="M199 238.5c0-2.1 1.7-4.5 3.2-4.5 1.4 0 .9 1.7-1.2 4.1-1.9 2.3-1.9 2.3-2 .4zM45.4 233.5c5.3-6.5 7.6-11 7.6-14.8 0-1.8.9-2.8 3.2-3.8 1.8-.7 4-2.1 5-3.1s2.3-1.8 2.9-1.8c.6 0 2.4-.9 4-2.1 2.9-2 2.9-2 2.9.5 0 1.4-.5 4.8-1.1 7.6-1.2 5.6-3.4 7.8-12.5 12.3-2.7 1.4-5.6 3.3-6.3 4.1-.8.9-2.2 1.6-3.2 1.6s-2.2.6-2.6 1.3c-.4.6-1.7 1.9-2.8 2.7-1 .8.3-1.2 2.9-4.5zM142.1 234.9c-.6-1.8-1.1-5-1.1-7.2 0-3.2.3-3.8 1.6-3.3 1 .4 3.2-.9 6.2-3.5 4.6-4 4.6-4 5.8-.7 2.2 5.8 1.7 7.1-3.6 11.2-4 3.1-4.8 4.1-3.9 5.2.9 1.1.7 1.4-1.4 1.4-1.9 0-2.8-.7-3.6-3.1zM115 222c0-1.1.2-2 .4-2s1.1-.3 1.9-.6c1-.3 1.6.3 1.9 2 .4 2.2.2 2.6-1.8 2.6-1.7 0-2.4-.6-2.4-2zM166.2 212.6c.3-3.8 1-7.1 1.6-7.5 4.6-2.9 13.2-10.9 13.2-12.3 0-.4.5-.8 1-.8.6 0 1 .9 1 2 0 1.3.7 2 2 2 2.1 0 2.7-1.5 1-2.5-.5-.3-1-2.5-1-4.8.1-3.9.2-4.1 1.5-2.3 1.3 1.7 1.8 1.8 3.9.7 1.3-.7 3.5-2.4 4.9-3.7 2.6-2.4 2.6-2.4 5.1.7 3.4 4 3.3 5.2-.8 7.1-1.9 1-4 3-4.7 4.7-.8 1.7-2.1 3.1-2.9 3.1-.8 0-2.6.9-4 2-2.5 2-2.5 2 .4 2 2.4 0 2.7.2 1.6 1.5-.7.8-2.7 1.5-4.5 1.5-2.7 0-3.4.5-3.9 2.6-.4 1.4-1.6 3.5-2.7 4.7-1.9 2.1-1.9 2.1-1.3-1.1.4-2.1.3-3.2-.5-3.2-.6 0-1.1.3-1.1.8 0 .4-2.3 2.7-5.2 5.1-5.1 4.5-5.1 4.5-4.6-2.3zM109.4 211.8c.8-4 .7-3.9 4.4-3.2 4.3.9 4.2 3.6-.1 5.2-4.7 1.7-5 1.6-4.3-2zM97 202.9c0-1.1.8-4.6 1.7-7.8 1.5-5.1 2.2-6 6.6-8.7 2.7-1.6 5.1-2.8 5.5-2.8.4.1 1.8-.7 3.1-1.7 1.3-1.1 3.2-1.9 4.2-1.9 1.1 0 1.9-.4 1.9-.9 0-1.2 5.7-4.1 6.4-3.3.3.3.6 3.2.6 6.4 0 5.8 0 5.8-4.7 8.8-2.7 1.6-5.4 3-6.1 3-1 0-1.3 1.3-1 5 .3 4.3.1 5-1.6 5-1.5 0-1.7-.5-1.2-3.5.6-2.8.4-3.5-.9-3.5-.8 0-1.5.5-1.5 1 0 .6-1 1-2.2 1-1.3 0-3.3 1.1-4.5 2.4-3.1 3.3-6.3 4-6.3 1.5zM61.5 189c.4-2.5 1.2-5 1.7-5.7C65 181 72 165.8 72 164.1c0-1 1.9-3.4 4.2-5.2 2.3-1.9 5.9-5.1 7.9-7.1 2-2.1 3.9-3.8 4.1-3.8.3 0 3.1-2.6 6.4-5.7 5.9-5.8 5.9-5.8 6.2-2.7.3 2.7-3.6 11.6-5.7 13.4-.4.3-2.2 3.6-4.1 7.4-3.5 6.9-5 8.9-13 16.2-2.5 2.2-6.1 5.8-8.1 8-2 2.1-4.8 5-6.4 6.4-2.7 2.5-2.7 2.5-2-2zM342.6 182.9c-1.2-6.2-.8-7.3 3.9-10.3 2.5-1.5 4.7-2.7 4.9-2.5.5.7 2.7 10.1 2.4 10.4-.6.6-9.7 5.5-10.1 5.5-.3 0-.7-1.4-1.1-3.1zM338 167.6c-1.8-3.5-.9-5.6 3.7-8.2 4.2-2.3 4.2-2.3 5.4 1.6.7 2.2 1 4.1.8 4.3-.2.1-2.2 1.2-4.5 2.4-4.1 2.2-4.1 2.2-5.4-.1zM234.6 163.2c-.3-.5-.8-2.6-1.1-4.8-.6-3.7-.5-4 3.4-6.4 2.3-1.4 4.1-2.8 4.1-3.2 0-.5.6-.8 1.4-.8.7 0 2-.7 2.7-1.6 1.2-1.4 1.5-1.2 2.5 1.7 2 5.6 1.7 6.5-4.1 10.3-3 2-5.7 4.1-6 4.6-.8 1.2-2.2 1.3-2.9.2zM174 155.6c0-6.5 0-6.5 5.3-9.1 2.8-1.5 6.2-2.8 7.5-3 2.1-.2 2.2.1 2.2 5.7 0 5.9 0 5.9-6.7 9-3.8 1.7-7.1 3.2-7.5 3.5-.5.2-.8-2.5-.8-6.1zM229.2 128.9c.6-5.7 1.7-6.9 6.6-6.9 2.5 0 3.5.6 4.4 2.5 1 2.1.8 2.8-.8 4-1.9 1.5-9.3 5.5-10.2 5.5-.3 0-.2-2.3 0-5.1zM303.6 112.9c-2.6-2.9-2.7-3.1-.9-4.4 1-.8 2.2-1.5 2.7-1.5.6 0 2-1 3.2-2.1 2.2-2.1 2.5-2.1 4.8-.6 4.8 3.2 3.8 8.6-1.5 8.7-.9 0-1.9.7-2.3 1.5-.9 2.3-3 1.8-6-1.6zM287.5 99.5c-1.6-1.3-3.6-2.4-4.2-2.5-2.9 0-.9-2.2 4.7-5 5.9-3 6.2-3 9.4-1.5 1.9.9 4.1 2.4 5 3.4 1.5 1.6 1.2 2-4.4 4.9-3.2 1.8-6.3 3.2-6.7 3.2-.4 0-2.1-1.1-3.8-2.5zM168.4 94.3c-1.7-4.3-1.7-4.3-7.3-3.6-5.6.6-5.6.6-3.7-1.6 1.1-1.1 2.5-2.1 3.3-2.1.7 0 1.3-.5 1.3-1 0-.6 1.2-1.6 2.8-2.3 1.5-.6 4.2-2.7 6.1-4.4 1.9-1.8 4.1-3.3 5.1-3.3.9 0 2.1-.5 2.7-1.1.6-.6 4-1.3 7.5-1.4 3.5-.1 8.3-1 10.8-1.8 2.5-.9 6.3-1.8 8.5-2.2 4-.6 4-.6 1.5 1.4-7.7 6.3-18 13.1-21.7 14.3-2.4.7-4.3 1.9-4.3 2.6 0 1.6-6.9 8.1-8.7 8.2-.6 0-1.4.6-1.6 1.3-.3.6-1.3-.7-2.3-3zM169.5 62.3c.9-5.3 4.8-14.8 6-14.9 1.3-.1 4.5-1.3 6.8-2.5 1.1-.6 1.7-.6 1.7.1 0 .5-.4 1-1 1-.5 0-1 .6-1 1.4 0 .7-.6 1.9-1.3 2.5-.8.6-2.2 3.7-3.3 7-1.5 4.9-2.4 6.2-5.2 7.6-3.4 1.6-3.4 1.6-2.7-2.2zM226.5 34c-1.1-.5-5-.9-8.7-.9-3.8-.1-6.8-.5-6.8-1.1 0-.5.6-1 1.4-1 .7 0 1.9-.7 2.6-1.5 1.6-1.9 5-1.9 7.5 0 7.3 5.5 7.9 6.2 4 4.5z"/></g><g fill="#ff95ff"><path d="M122.6 379.2c-.3-.9-.8-3.3-1.1-5.2-.6-3.5-.4-3.7 5.2-7.5 3.2-2.2 6-4.2 6.3-4.5.9-.9 10-7 10.5-7 .2 0-1.1 3.2-3 7.2s-3.5 7.8-3.5 8.5c0 1-3.6 4-8.1 6.8-.9.6-2.6 1.6-3.7 2.2-1.8 1.1-2.1 1-2.6-.5zM297.5 374c.5-4.6 1.4-8.3 2.4-9.5 3.2-4 6.7-7.9 13.4-14.9 3.7-3.9 6.7-7.1 6.7-7.2 0-.9 5.7-6.4 6.7-6.4.7 0 1.3-.6 1.3-1.2.1-1.1 13.4-15.5 17.1-18.4.8-.6 3.2-3.1 5.3-5.5 4.3-4.8 5.6-4.2 3.8 2-.5 2-1.6 6.3-2.4 9.6-.9 4.1-1.9 6.3-3.3 7-1.2.5-5.1 4-8.8 7.8-3.7 3.7-7.1 6.7-7.6 6.7s-1.1.5-1.3 1c-.2.6-5.5 6.5-11.9 13.3-6.4 6.7-14 14.7-16.8 17.7-5.2 5.5-5.2 5.5-4.6-2zM118.6 364.9c-3.2-6.5-2.7-7.4 12.7-22.5 19-18.5 16.6-16.9 23.2-14.9 5.6 1.6 5.6 1.6-7.7 14.7-29.2 28.6-26.4 26.4-28.2 22.7zM50.4 358.6c.5-6.2.9-7.2 3.9-10 6.2-5.7 9.2-8.2 14-11.6 2.6-1.8 4.7-3.7 4.7-4.2 0-.4.5-.8 1.1-.8.6 0 2.2-1.3 3.6-3 1.3-1.6 2.9-3 3.4-3s1.7-.8 2.7-1.7c1-1 3.1-2.7 4.6-3.8 1.6-1.1 4.4-3.5 6.3-5.2 1.9-1.8 4.1-3.3 4.9-3.3.7 0 1.8-.9 2.4-2 .6-1.1 1.5-2 2-2 .9 0 3.9-2.2 6.3-4.6.8-.7 2 0 4.1 2.4 2.8 3.2 2.9 3.5 1.3 4.7-1.5 1.1-5.4 4.3-12 9.8-1.2 1.1-3.4 2.5-4.9 3.3-1.5.8-3.2 2.3-3.8 3.4-.6 1.1-1.5 2-2 2s-2.6 1.6-4.7 3.5-4.2 3.5-4.8 3.5c-.5 0-2.9 1.8-5.3 4s-4.4 4-4.6 4c-.7 0-7.8 6.3-13.7 12-11.1 10.7-10.2 10.5-9.5 2.6zM161.1 348.4c-.1-3.2.2-5.3.7-5 .5.3 1.9-.5 3.1-1.8 1.2-1.3 4.1-3.2 6.4-4.2 2.3-1 4.4-2.1 4.7-2.5.8-1 5.8-2 6.3-1.2.3.5.7 2.6.8 4.7.4 3.7.2 4.1-4.1 6.7-2.5 1.5-6.1 3.6-8 4.6-1.9.9-4.1 2.3-4.8 3-.7.7-2.1 1.3-3.1 1.3-1.4 0-1.8-1-2-5.6zM254.9 345.2c-.2-3.4-.2-3.3.6-12.5.5-6 1.1-8 2.3-8.4 1-.4 3.3-2.3 5.2-4.4 1.9-2 5.4-4.9 7.8-6.4 2.3-1.5 4.2-3.1 4.2-3.5 0-.4 3.3-3.1 7.3-6.1 3.9-2.9 9.4-7.2 12.2-9.6 2.7-2.4 5.4-4.3 6-4.3.6 0 1.6-.9 2.3-2 .7-1.1 1.9-2 2.7-2 .8 0 1.5-.5 1.5-1 0-.6 1.1-1.5 2.5-2s2.5-1.4 2.5-2c0-.5.7-1 1.5-1 .9 0 1.8-.7 2.1-1.5.3-.8 1.5-1.7 2.6-2.1 1.1-.3 2.7-1.3 3.6-2.1 4.6-4 9.7-7.3 11.3-7.3 1.1 0 1.9-.7 1.9-1.5s1.3-2.1 2.9-3c1.7-.8 3.2-1.9 3.5-2.4 1.1-1.8-4 .2-18.2 7-7.9 3.8-14.7 6.9-15.2 6.9-.7 0-8.9 3.8-13 6-7.5 4.1-19.4 10-20.2 10-.6 0-2.4 1-4.1 2.3-1.8 1.2-5 3-7.2 4s-4.7 2.5-5.6 3.3c-1.4 1.3-1.6.8-1.8-4.8-.1-5.1.2-6.5 1.6-7.4 3.2-2 12.6-7 23.7-12.8 5.9-3.1 11.8-6.4 13-7.2 1.3-.8 2.6-1.1 2.9-.7.4.3 1.7-.3 3-1.4 2.7-2.5 12.1-7.3 14.2-7.3.8 0 1.5-.3 1.5-.8 0-.4 2.1-1.6 4.6-2.7 2.6-1.1 7.6-3.5 11.2-5.2 3.5-1.8 7.2-3.3 8.2-3.3 1 0 2.3-.7 3-1.5.7-.8 1.8-1.4 2.4-1.3.6.1 2.2-.5 3.6-1.4 1.4-.9 4.2-2.4 6.2-3.2 3.7-1.6 3.7-1.6 3.8 11.2.1 7 .2 15.5.3 19 .2 6.3.2 6.3-4.8 9.1-2.7 1.6-6.7 3.8-8.7 5-2.1 1.1-5.5 3-7.5 4.2-2.1 1.2-4.4 2.6-5.1 3.1-1.4 1.2-6.7 4.3-10.2 6-1.4.7-3.1 2.1-3.8 3-.7 1-2.2 1.8-3.3 1.8-1 0-1.9.3-1.9.8 0 1-10.6 9.2-11.9 9.2-.6 0-1.1.3-1.1.8 0 1.2-10.7 9.2-12.4 9.2-.9 0-1.6.6-1.6 1.4 0 .7-1 2-2.2 2.9-1.3.8-3.6 2.6-5.3 4.1-1.6 1.4-3.3 2.6-3.6 2.6-.4 0-2.3 1.5-4.2 3.3-4.8 4.4-6 5.4-8.5 6.1-1.1.4-2.3 1.5-2.6 2.4-.3.9-1.7 2.2-3.1 2.9-2.3 1-2.5.9-2.6-1.5zM51.5 325.1c.5-8.3.5-8.3 6.8-15.3 6.1-7 20.2-21.9 34.7-36.7 7.6-7.7 7.6-7.7 7.3-.9-.2 7.6.2 7-13.3 20.7-3.6 3.6-7.6 8-9 9.6-1.3 1.7-5.1 5.9-8.5 9.5-8.1 8.9-13.7 15.2-16.4 18.5-2.1 2.8-2.1 2.8-1.6-5.4zM254.5 245.3c-.7-4.1-.8-5.1-.6-7.1.1-1.6 6.1-7.2 7.7-7.2.7 0 2.5-1.2 4.1-2.7 4.2-4 6.2-5.5 15.5-11.7 4.6-3.1 10.2-7.1 12.6-8.8 2.3-1.8 4.8-3.5 5.5-3.7.6-.2 2.7-1.7 4.5-3.2 1.8-1.6 4.2-2.9 5.2-2.9 1.1 0 2-.4 2-1 0-.9 14.2-11 15.5-11 .3 0 3-1.8 6-4s5.7-4 6-4c.4 0 1.9-.9 3.3-2.1 2.6-2 2.6-2 3.8 3.3.7 2.9.9 5.4.4 5.6-.5.2-2.9 1.9-5.4 3.8-2.5 1.9-4.7 3.4-5.1 3.4-.8 0-12.4 8-13.1 9.1-.3.5-1.4.9-2.5.9-1 0-1.9.6-1.9 1.3-.1.6-3.7 3.5-8 6.2-4.4 2.8-8 5.3-8 5.8 0 .4-.7.7-1.5.7s-1.5.4-1.5.8c0 .5-1 1.3-2.3 1.9-1.2.6-5.2 3.3-8.7 6-3.6 2.7-10.3 7.5-15 10.7-4.7 3.3-8.6 6.3-8.8 6.7-.2.5-1 .9-1.7.9-.8 0-1.8.6-2.2 1.3-.4.6-1.8 2-3 3-2.2 1.9-2.2 1.9-2.8-2zM152.2 225.1c-.7-2.1-1.2-4.3-1.2-4.9 0-.6 3.7-4.2 8.3-7.9 12.5-10.3 11.6-9.8 11.2-7.1-1.2 10.3-1.8 11.9-4.9 14.1-4.1 2.9-7.6 5.8-9.5 8-2.2 2.4-2.6 2.2-3.9-2.2zM235.8 227.3c-1-.3-1.8-.8-1.8-1.3s-1-1-2.2-1.2c-2-.3-1.5-.8 2.8-3.4 2.7-1.7 5.9-3.4 7-3.8 1.8-.5 2.1-.2 1.9 2.3-.3 4.6-4 8.2-7.7 7.4zM64.7 221.8c.3-1.3.9-3.6 1.3-5.3.5-1.6 1.1-4.2 1.4-5.7.4-1.9 2.3-3.8 6.1-6.3 3.1-1.9 6.2-3.5 6.9-3.5.8 0 2.7-1.1 4.3-2.3 1.5-1.3 6.7-4.5 11.6-7.1 8.7-4.7 10.4-4.6 7.8.2-.6.9-1.7 4-2.5 6.7-.9 2.8-2.5 5.6-3.7 6.4-5.1 3.1-9.1 5.1-10.3 5.1-.8 0-1.6.6-1.9 1.3-.2.6-3.1 2.5-6.3 4.2-3.3 1.6-6.1 3.2-6.4 3.5-.6.7-8 5-8.5 5-.2 0-.1-1 .2-2.2zM254 214c-2.5-2-2.5-2 .5-4.4 1.7-1.4 3.4-2.5 3.8-2.6.4 0 2-.8 3.5-1.8 5.4-3.8 19.5-11.7 20.2-11.5.5.1 1.4-.4 2-1.2.7-.8 1.8-1.5 2.5-1.5.8 0 1.5-.4 1.7-.8.4-1.1 6.4-5.2 7.6-5.2.6 0 3.2-1.5 5.8-3.2 2.7-1.8 8.3-5 12.4-7.2 4.1-2.1 8.9-4.7 10.5-5.7 4.4-2.7 14.7-8.1 14.9-7.7 0 .2.7 1.3 1.4 2.5.6 1.3 1.2 2.9 1.2 3.6 0 .7-4.8 3.7-10.7 6.7-6 3-11 5.7-11.3 6-.3.3-3.6 2.4-7.5 4.5-3.8 2.1-8.3 4.6-10 5.5-1.6.9-6 3.3-9.7 5.3-8.2 4.4-10.9 6-12.2 7-1.9 1.4-8 4.7-10.8 5.8-1.6.6-2.8 1.5-2.8 2s-.5.9-1 .9c-.6 0-2.8 1.1-5 2.5s-4.1 2.5-4.2 2.5c-.2 0-1.4-.9-2.8-2zM197.6 187.4c-2.8-3.5-2.8-3.5 1-7 2.2-1.9 4.2-3.4 4.7-3.4h1.2c.2-.1 2-1.5 3.9-3.3 5.3-4.9 8.7-7.7 13.1-10.6 2.2-1.4 5.1-3.6 6.5-4.9 1.4-1.3 3.7-3 5.2-3.8 2.6-1.3 2.7-1.3 3.3 1.9.4 1.7 1.1 3.7 1.7 4.4.6.7-.2 1.8-2.4 3.4-1.8 1.3-3.4 2.7-3.6 3.1-.2.4-1 .8-1.8.8s-1.4.3-1.4.8c0 .4-1.7 1.8-3.8 3.2-2 1.4-4.2 2.9-4.8 3.5-.7.5-2.4 1.9-4 3-1.5 1.1-5 3.9-7.8 6.3-7.6 6.5-7.8 6.6-11 2.6zM123.8 186.9c-.1-1.9-.2-4.4-.2-5.6-.1-1.1-.4-2.4-.8-2.8-1-1.1 2.6-3.7 11.7-8.5 4.4-2.2 10-5.3 12.5-6.9 2.5-1.5 5.4-2.5 6.6-2.3 1.5.3 2.3-.2 2.7-1.7.3-1.3 1.3-2.1 2.5-2.1 1.1 0 2.7-.6 3.4-1.2.7-.7 2.7-1.9 4.3-2.7 4.2-1.9 6.6-3.2 9.3-4.9 2.3-1.5 2.3-1.5 1.6 5.4-.4 4.4-1.2 7.3-2.2 7.9-3.3 2.2-17 9.7-23.2 12.7-3.6 1.8-6.7 3.5-7 3.8-.3.4-3.2 2.1-6.5 3.9-3.3 1.8-6.4 3.7-6.9 4.2-.6.5-1.7.9-2.5.9s-2.3.7-3.3 1.7c-1.7 1.5-1.8 1.4-2-1.8zM80.2 172.3c.6-1.5 1.7-3.5 2.3-4.3.6-.8 2.8-5.1 5-9.5s4.3-8.2 4.6-8.5c.4-.3 1.9-2.9 3.5-5.8 2.8-5.2 6.7-9.3 16.5-17.4 2.4-2 6-5.1 7.9-6.8 1.9-1.8 5.4-4.6 7.8-6.3 2.3-1.7 4.2-3.4 4.2-3.7 0-.4 1.9-2 4.2-3.5 2.2-1.5 5.1-3.7 6.2-4.9 5.2-5.4 17.2-13.9 20.5-14.7 6-1.4 6.5-1.2 8.3 3.7 1.9 5.5 2.5 4.7-9.7 14.4-4.4 3.6-8.1 6.8-8.3 7.2-.2.5-1 .8-1.8.8s-1.7.7-2 1.5c-.4.8-1 1.5-1.6 1.5-.5 0-1.5.6-2.2 1.3-6.1 5.9-25.4 21.7-26.5 21.7-.4 0-1.4 1.1-2.1 2.5-.8 1.4-2.4 2.8-3.8 3.2-1.3.3-2.7 1.3-3 2.3-.7 1.7-11.9 11.8-19.8 17.8-2.4 1.9-4.4 3.7-4.4 4.2 0 .4-1.6 2-3.5 3.4-3.5 2.7-3.5 2.7-2.3-.1zM185.5 150c0-3.8.4-6.6.9-6.3.5.4 1.4 0 2-.8.6-.8 3.4-2.5 6.1-3.8 2.8-1.3 5.7-2.7 6.5-3.2 4.7-2.7 22-10.9 23-10.9.6 0 2.7-1.2 4.6-2.6 1.9-1.5 3.4-2.3 3.4-1.8 0 .4.5.3 1.2-.4s2-1.2 2.9-1.2c.9 0 2.2-.7 2.9-1.5.7-.8 1.5-1.3 1.9-1.1.3.2 2-.5 3.6-1.5 1.7-1 4.6-2.6 6.5-3.6 1.9-.9 3.7-1.9 4-2.2.3-.4 1.9-1.2 3.5-2 1.7-.7 3.9-1.8 5-2.4 9.7-5.3 20.9-10.7 22.1-10.7 1.5 0 9.3 5.1 9.4 6.1 0 .4-2.1 1.6-4.7 2.8-2.7 1.1-5.9 2.7-7.3 3.6-1.4.8-4.7 2.4-7.5 3.6-2.7 1.1-5.7 2.5-6.5 2.9-.8.5-4.2 2.3-7.5 4.1-3.3 1.7-6.4 3.5-6.9 4-.6.5-1.8.9-2.9.9-1 0-3.7 1.3-6 2.8-6 4.1-7.5 4.5-8.7 2.2-1.5-2.7-3.8-1.4-4.6 2.5-.5 2.6-1.5 3.9-4.5 5.5-2.2 1.1-4.5 2-5.1 2-.6 0-1.9.7-2.8 1.5-2.6 2.3-10.9 6.5-13.1 6.5-1 0-1.9.5-1.9 1 0 .6-1.7 1.8-3.7 2.6-4.9 2.1-9.7 4.6-10.3 5.3-.3.4-1.6 1.1-3 1.7-2.5 1.1-2.5 1.1-2.5-5.6zM244.9 152c-1.1-3.7-1-4.2 1.1-6.5 1.3-1.4 2.9-2.5 3.6-2.5.7 0 1.4-.3 1.6-.7.4-1 14.7-10.6 17.3-11.6 1.1-.5 2.3-1.5 2.8-2.3.4-.8 1.6-1.4 2.6-1.4s2.8-1.1 4.1-2.5c1.3-1.4 2.7-2.5 3.2-2.5.4 0 3.1-1.6 5.8-3.5 2.7-1.9 5.2-3.5 5.4-3.5.2 0 2.8-1.6 5.7-3.5 3-1.9 5.8-3.5 6.4-3.4.5 0 2.1 1.4 3.4 3.1 2.4 3 2.4 3 0 4.9-1.3 1-3.6 2.4-5.1 3.1-1.6.7-2.8 1.6-2.8 2 0 .5-.5.8-1.1.8-.5 0-3.9 2-7.5 4.5-3.5 2.5-6.6 4.5-6.9 4.5-.6 0-12.8 8-15 9.8-.5.4-2.5 1.7-4.4 2.8-1.9 1-4.5 2.9-5.9 4.2-1.4 1.2-3.1 2.2-3.7 2.2-.7 0-1.5.7-1.9 1.5-.3.8-1.2 1.5-1.9 1.5-.8 0-2 .7-2.7 1.5-1.9 2.3-2.8 1.8-4.1-2.5zM177.4 87.8c-1.1-4.6-1.1-4.6 3-5.2 2.3-.3 5.6-.8 7.4-1.2 3.7-.6 4.4 1.2.9 2.5-1.3.5-3.4 2.1-4.7 3.5-1.4 1.4-3 2.6-3.7 2.6-.6 0-1.3.5-1.5 1.1-.2.7-.9-.8-1.4-3.3z"/></g><g fill="#fff"><path d="M166 325.9c-10.4-2.7-22.2-8-31-13.9-7.6-5.2-21.1-19.9-23.6-25.8-.6-1.5-1.4-6.5-1.8-11.1-.7-7.3-3.2-19.3-5.2-24.5-.6-1.4-.2-1.6 2.1-1 2.4.6 3.2.2 5-2 2.2-2.8 2.2-2.8 3.5 3.6 2.4 12.1 3.2 14.1 6.6 17.5 3.6 3.5 9.2 4.5 11.1 2.1 3.7-4.7 4.7-20.1 1.9-29.1-1.8-6.1-.7-9.9 4.2-14.5 3.8-3.7 5.3-3.3 5.7 1.5.2 1.5.9 4.2 1.6 5.8.7 1.7 1.1 3.4 1 3.9-.1.5 1.1 5.4 2.8 11 1.6 5.6 3.2 11.8 3.6 13.9.6 3.9 4.3 7.4 6.8 6.4 1.1-.4 5.6-12 12.2-31.2 1.4-4.2 6.5-32.3 7-38.6.1-2 .7-5.1 1.3-7 .6-1.9 1.3-5.6 1.7-8.3.7-4.9.7-4.9 3.6.5 1.6 3 3.7 6.9 4.6 8.7.9 1.7 2 3.2 2.5 3.2.4 0 .8.5.8 1 0 .6-1.9 1-4.2 1-5.1 0-8.1 1.5-5.9 2.9.7.5 3.7 1.2 6.5 1.5 5.3.7 12.6 4.7 12.6 6.9 0 .6 1.4 2.6 3 4.4 1.7 1.8 3 3.4 3 3.7 0 .2-3.5.5-7.7.5-10.4.1-17.9.7-19.2 1.6-.6.3-1.1 1.6-1.1 2.7 0 1.9.4 2 5 1.5 4.1-.5 5.1-.3 5.9 1.2.6 1 .6 2.3.1 3.1-.5.8-.7 1.7-.4 2.1.2.4.5 3.2.5 6.1.1 7.1 2.7 19.9 4.5 21.9.8.8 1.4 2.1 1.4 2.8 0 .6.8 1.5 1.8 1.8.9.4 2.6 1.5 3.6 2.5 3.5 3.3 12.6 2 16.7-2.2 4.3-4.5 5.6-8.1 6.6-18.2.3-2.7.7-4.8.9-4.8.2 0 3.2 2.7 6.6 6 3.5 3.3 6.8 6 7.4 6 .6 0 1.8.8 2.6 1.8 1.3 1.3 1.7 5.4 2.2 18.7.4 9.4.7 17.7.8 18.5.1.8 0 5.4 0 10.1-.2 8.6-.2 8.6-8 11.6-6.5 2.6-8.5 3-12.1 2.3-3.8-.7-6.5-.4-13.6 1.6-1.1.3-4.9 1.2-8.5 2-3.6.8-7.6 1.7-9 2-1.3.3-2.9.9-3.5 1.4-.5.4-2.1.8-3.5.8-1.4-.1-3.8.2-5.5.5-5.1 1.1-13.8 2.7-13.9 2.6 0 0-1.7-.5-3.6-1zm9-17.3c0-.8-1.2-2.8-2.6-4.5-1.9-2.3-3.4-3.1-5.7-3.1-3.7 0-7.8 1.9-8.5 3.9-.5 1.4 1 1.3 6.5-.4 1.6-.5 2.8.1 4.9 2.4 2.9 3.3 5.4 4.1 5.4 1.7zm38.1-20.9c.1-1.2.1-2.8 0-3.6-.2-.7 0-2 .4-2.9.4-1.1 1.3-.6 3.9 2.4 5.1 6 7.9 5.3 10.1-2.4.7-2.2.8-2.3 2.6-.6 1.1.9 2.2 1.4 2.6 1 .9-.9-.8-3.6-3.1-5-1.7-1.1-3.3.1-6.1 4.9-.9 1.5-1.5 1.3-5.2-2.4-2.2-2.3-4.5-4.1-5.1-4.1-1.3 0-4.2 4.5-4.2 6.6 0 1.5-.2 1.5-2.5 0-3.3-2.2-3.6-2-2.9 1.1.9 3.6 3 7.4 4.5 8.4 1.9 1.1 4.9-.9 5-3.4zm-94.1-2.8c.5-3.4.5-3.4 2.4-.6 2.2 3.2 4.6 3.6 4.6.7 0-2.5-4.6-7-7.1-7-1 0-2 .9-2.4 1.9-.4 1.2-1.2 1.8-2.1 1.4-1.9-.7-1.8 2.6.2 5.5 2.1 3 3.8 2.3 4.4-1.9zm21.9-3.2c3-3.3 1-5-4.9-4.1-4.7.8-6.3 3-3.5 5 2.8 2.1 5.9 1.7 8.4-.9z"/><path d="M127.6 263.1c-.8-1.2.3-4.1 1.5-4.1s1.2 3.7 0 4.5c-.5.3-1.2.1-1.5-.4zM203.1 254.3c-2-4.9.4-7.9 9.4-11.3 2.2-.8 2.1-.4-1.8 4.9-2.3 3.2-4.7 6.6-5.3 7.6-.9 1.7-1.1 1.5-2.3-1.2zM217.2 252.3c-.9-.3-.6-1.3.9-3.4 1.2-1.7 2.4-2.8 2.7-2.4 1.1 1.1 1.1 3.9 0 5.2-1.1 1.4-1.5 1.4-3.6.6zM102 244.9c0-.2.6-2.7 1.4-5.6.8-2.8 1.1-5.4.9-5.7-.8-.8 1.8-6.9 3.7-8.6 1.5-1.4 9.4-6 10.3-6 .2 0 .4.6.5 1.3.7 5.6.6 6.1-1.6 7.3-3.7 1.8-7.2 5.5-11.3 11.8-2.2 3.3-3.9 5.8-3.9 5.5zM199.5 238.5c.2-1.1.4-2.3.4-2.7.1-1 4.1-3 4.1-2.1 0 .4-1.1 2.2-2.4 3.8-2 2.4-2.4 2.6-2.1 1zM222.5 237.4c-1.2-1.7-3.8-2.1-8-1-3 .7-3 .7.4-2.8 3.1-3.2 3.5-3.3 5.1-1.8 1.9 1.9 4.4 6.2 3.8 6.7-.2.2-.8-.3-1.3-1.1zM109.5 211.7c.6-2.9 1.5-5.9 1.8-6.7.4-.8 1.1-3.5 1.6-6 .8-4.4.8-4.4 1.5-1.5.4 1.7 1.2 4.9 1.8 7.1 1.4 5.8.9 7.1-3.8 9.9-4 2.4-4 2.4-2.9-2.8z"/></g></svg>
