<svg data-name="logo" xmlns="http://www.w3.org/2000/svg" width="119.697" height="35.854" viewBox="0 0 868 260"><path d="M262.864 131.456a3.87 3.87 0 002.85-1.5 117.014 117.014 0 0014.85-22.725 55.2 55.2 0 006-24.825q0-14.1-7.575-24.225a54.275 54.275 0 00-20.325-16.275 90.893 90.893 0 00-28.5-8.1l10.35-19.65a2.933 2.933 0 00.6-2.1 4.644 4.644 0 00-.6-2.175 4.026 4.026 0 00-1.8-1.725 6.046 6.046 0 00-2.4-.45 3.969 3.969 0 00-3.75 2.25l-12 22.95q-8.55 0-14.625.225t-11.025.675q-4.95.45-10.2 1.35a4.916 4.916 0 00-2.925 1.725 4.676 4.676 0 00-.975 2.925 5.809 5.809 0 001.2 3q1.2 1.8 3.75 1.2a142.844 142.844 0 0115.3-2.4 109.352 109.352 0 0115.15-.45l-8.85 16.95a4.456 4.456 0 00-.6 2.25 3.605 3.605 0 002.55 3.75 8.884 8.884 0 011.35.375 3.385 3.385 0 001.2.225 3.576 3.576 0 003.45-2.55l10.65-20.4a98.59 98.59 0 0119.05 3.975 63.99 63.99 0 0116.65 7.875 39.356 39.356 0 0111.7 12 30.512 30.512 0 014.35 16.35 47.179 47.179 0 01-5.325 21.075 124.088 124.088 0 01-12.825 20.475 4.385 4.385 0 00-1.05 3 4.865 4.865 0 001.35 3.6 4.155 4.155 0 003 1.35h0zm49.8-84.15a4.432 4.432 0 003.6-1.95 8.017 8.017 0 00.75-2.85 3.584 3.584 0 00-2.1-3.45l-29.7-19.2a4.743 4.743 0 00-2.55-.75 3.893 3.893 0 00-3.6 2.1 3.963 3.963 0 00-.6 2.25 5.285 5.285 0 00.45 2.1 4.264 4.264 0 001.5 1.8l29.55 19.2a7.881 7.881 0 002.7.75h0zm93.675 82.575a40.1 40.1 0 0013.95-17.1 59.737 59.737 0 004.875-24.675q0-4.95-.525-10.275t-1.425-10.875a35.89 35.89 0 0110.95 5.25 4.839 4.839 0 002.7.9 3.824 3.824 0 003.45-1.95 4.176 4.176 0 00.9-2.55 4.438 4.438 0 00-1.95-3.6 42.722 42.722 0 00-8.175-4.875 64.818 64.818 0 00-9.825-3.075q-.753-3.3-1.575-6.375t-2.025-6.675h11.55a4.2 4.2 0 003.225-1.2 4.417 4.417 0 001.125-3.15 5.353 5.353 0 00-.975-3.075 3.8 3.8 0 00-3.375-1.425h-14.4q-.6-1.649-1.65-4.2t-1.95-4.95q-.9-2.4-1.35-3.3h24.6a3.963 3.963 0 003.225-1.35 4.771 4.771 0 001.125-3.15 5.137 5.137 0 00-.975-2.925 3.8 3.8 0 00-3.375-1.425h-28.65q-1.952-4.349-3-6.225t-1.35-2.475a4.152 4.152 0 00-3.75-2.4 7.4 7.4 0 00-2.25.45 3.881 3.881 0 00-2.4 3.9 4.184 4.184 0 00.6 2.1q.749 1.652.9 1.875t1.5 2.775h-36.45a4.076 4.076 0 00-3.225 1.275 4.489 4.489 0 00-1.125 3.075 5.321 5.321 0 00.975 3.075 3.788 3.788 0 003.375 1.425h40.5q.45.9 1.575 3.675t2.25 5.4a24.133 24.133 0 011.275 3.375h-36.3a3.959 3.959 0 00-3.225 1.35 4.771 4.771 0 00-1.125 3.15 5.1 5.1 0 00.975 2.925 3.788 3.788 0 003.375 1.425h39.45a41.791 41.791 0 011.8 5.4q1.047 3.751 1.65 6.15a40.337 40.337 0 00-5.7-.825q-3-.225-6.3-.225a82.823 82.823 0 00-21 2.625 58.953 58.953 0 00-17.85 7.8 39.052 39.052 0 00-12.3 12.825 34.557 34.557 0 00-4.5 17.85 38.687 38.687 0 003.075 15.225 42.218 42.218 0 0021.45 21.975 37.883 37.883 0 0015.825 3.3q12.747 0 21.825-6.225zm-37.65-6.825a32.537 32.537 0 01-11.325-11.55 30.41 30.41 0 01-4.2-15.6q0-11.1 6.375-18.3a37.681 37.681 0 0116.875-10.65 73.673 73.673 0 0123.1-3.45q3.747 0 7.425.3t6.975.9a104.309 104.309 0 012.55 22.5 55.132 55.132 0 01-3.6 20.475 32.66 32.66 0 01-10.65 14.4q-7.053 5.322-17.7 5.325a29.777 29.777 0 01-15.825-4.35zm178.725-1.05a41.421 41.421 0 0014.25-12.375 28.164 28.164 0 005.4-16.725 33.636 33.636 0 00-5.4-18.975 41.808 41.808 0 00-14.775-13.425 62.186 62.186 0 00-21.225-7.05q-3.6-.45-7.425-.75t-7.725-.3a98.327 98.327 0 00-14.325 1.05 73.78 73.78 0 00-13.575 3.3 7.993 7.993 0 00-2.1 1.5 3.246 3.246 0 00-.9 2.4 4.771 4.771 0 001.125 3.15 3.959 3.959 0 003.225 1.35 7.093 7.093 0 001.65-.15 55.57 55.57 0 0111.7-2.7 108.057 108.057 0 0113.05-.75q2.4 0 4.875.075t4.875.225a53.771 53.771 0 0118.375 4.05 36.357 36.357 0 0114.025 9.975 23 23 0 015.4 15.375 24.252 24.252 0 01-4.35 14.1 30.749 30.749 0 01-11.25 9.9 31.336 31.336 0 01-14.7 3.6q-4.05.9-4.05 4.2a5.07 5.07 0 001.2 3.375 4.088 4.088 0 003.6 1.275 48.492 48.492 0 0019.05-5.7zm155.25 7.95a4.587 4.587 0 001.05-2.85 4.98 4.98 0 00-1.125-3 3.947 3.947 0 00-3.375-1.5q-9 0-16.05-.525a43.758 43.758 0 01-13.05-2.925 42.8 42.8 0 01-12.15-7.8 36.258 36.258 0 01-8.925-12.375 35.624 35.624 0 01-2.925-14.175q0-11.1 6.45-23.1a48.766 48.766 0 0112.15-14.7 79.777 79.777 0 0117.4-10.8 115.424 115.424 0 0120.625-7.2 149.544 149.544 0 0121.975-3.75 4.25 4.25 0 003.225-1.35 4.634 4.634 0 001.275-3.3 4.666 4.666 0 00-1.425-2.925 4.772 4.772 0 00-3.525-1.275h-102.45q-4.353 0-4.35 4.5a4.872 4.872 0 001.05 2.925 3.82 3.82 0 003.3 1.425h62.1a94.278 94.278 0 00-21.975 12 60.422 60.422 0 00-16.125 17.55 53.129 53.129 0 00-9 29.55 45.85 45.85 0 001.725 12.45 42.667 42.667 0 005.175 11.55 43.262 43.262 0 0012.225 12.975 55.544 55.544 0 0016.575 7.8 68.251 68.251 0 0018.9 2.625 78.836 78.836 0 008.4-.45 3.42 3.42 0 002.85-1.35z" stroke-width="2" stroke-linejoin="round" fill-rule="evenodd" stroke="#000"/><path data-name="しんどろ〜む" d="M262.96 256.372h1.87a46.063 46.063 0 0015.07-2.42 39.44 39.44 0 0012.43-6.875 31.884 31.884 0 008.415-10.615 30.78 30.78 0 003.025-13.75q0-.879-.055-1.76t-.165-1.76q-.33-2.97-3.52-2.97a3.752 3.752 0 00-2.035.88 2.689 2.689 0 00-.935 2.2 33.232 33.232 0 01-3.85 16.39 26.685 26.685 0 01-10.67 10.67 31.962 31.962 0 01-15.62 3.74 23.508 23.508 0 01-2.805-.165q-1.377-.165-2.915-.275-14.412-1.871-21.835-11.77t-7.425-25.74a85.664 85.664 0 012.475-20.075 129.316 129.316 0 016.215-19.305 2.929 2.929 0 00.33-1.32 3.288 3.288 0 00-3.3-3.19 3.293 3.293 0 00-2.97 1.98 117.5 117.5 0 00-6.6 20.185 94.726 94.726 0 00-2.64 21.835 53.974 53.974 0 004.07 21.615 35.964 35.964 0 0012.045 15.18q7.974 5.775 19.525 7.205a15.15 15.15 0 001.87.11zm143.5-6a26.489 26.489 0 0010.12-10.835 34.565 34.565 0 003.575-16.06 12.506 12.506 0 00-.55-4.015q-.552-1.593-2.75-1.595-2.862 0-3.025 1.815t-.165 4.455a27.241 27.241 0 01-2.64 12.045 21.145 21.145 0 01-7.645 8.69 21.461 21.461 0 01-11.935 3.245 24.376 24.376 0 01-13.475-3.575 23.223 23.223 0 01-8.47-9.57 29.9 29.9 0 01-2.915-13.255 42.544 42.544 0 012.86-14.85 4.707 4.707 0 00.33-1.65q0-2.748-3.96-2.75a26.053 26.053 0 00-11.88 5.61 46.227 46.227 0 00-9.46 10.23l11.22-44.55a3.235 3.235 0 00-3.19-4.07 3.754 3.754 0 00-1.87.5 2.773 2.773 0 00-1.21 1.925l-19.14 75.9a4.859 4.859 0 00-.165.6 2.444 2.444 0 00-.055.5 2.714 2.714 0 001.045 2.255 3.872 3.872 0 002.475.825 3.062 3.062 0 001.98-.715 2.6 2.6 0 00.99-1.815 89.864 89.864 0 015.555-14.96 74.471 74.471 0 018.47-13.915 36.367 36.367 0 0110.725-9.625q-.552 2.751-.88 5.39a41.674 41.674 0 00-.33 5.17 35.383 35.383 0 003.905 16.83 29.109 29.109 0 0010.83 11.548 30.477 30.477 0 0016.06 4.18 29.83 29.83 0 0015.565-3.903zm91.63 4.895a93.12 93.12 0 0012.155-3.52 2.561 2.561 0 001.87-2.42 3.183 3.183 0 00-1.155-2.53 3.875 3.875 0 00-2.585-.99 6.032 6.032 0 00-1.21.22 77.777 77.777 0 01-10.285 2.8 52.346 52.346 0 01-10.285 1.045 37.3 37.3 0 01-17.215-3.905 30.477 30.477 0 01-12.1-10.89 29.514 29.514 0 01-4.455-16.225 31.3 31.3 0 013.355-14.19 35.428 35.428 0 019.4-11.66l3.74 5.06a3.622 3.622 0 002.64 1.54 2.8 2.8 0 001.87-.77 3.462 3.462 0 001.43-2.64 2.94 2.94 0 00-.77-1.98l-3.63-4.95a57.838 57.838 0 0118.15-6.93 92.681 92.681 0 0120.35-1.76 3.427 3.427 0 002.53-.99 3.568 3.568 0 00.99-2.64 2.66 2.66 0 00-2.97-2.75 108.59 108.59 0 00-22.55 1.925 57.481 57.481 0 00-20.35 7.975l-11.22-15.07a3.036 3.036 0 00-2.53-1.32 3.548 3.548 0 00-1.98.66 2.654 2.654 0 00-1.43 2.53 2.923 2.923 0 00.77 1.98l11.11 14.96a44.573 44.573 0 00-11.385 14.19 37.024 37.024 0 00-4.125 16.94 37.448 37.448 0 002.97 15.015 35.829 35.829 0 008.305 11.935 37.954 37.954 0 0012.595 7.865 43.588 43.588 0 0015.84 2.8 57.384 57.384 0 0012.155-1.305zm31.95-64.567a3.542 3.542 0 002.42-.99 2.986 2.986 0 00.88-2.2 3.051 3.051 0 00-.99-2.2l-10.56-9.9a3.531 3.531 0 00-2.2-.88 3.047 3.047 0 00-2.2.99 3.726 3.726 0 00-.99 2.31 2.828 2.828 0 001.1 2.09l10.56 9.9a2.728 2.728 0 001.98.88h0zm-10.12 9.68a2.625 2.625 0 002.2-.99 2.986 2.986 0 00.88-2.2 3.051 3.051 0 00-.99-2.2l-10.45-9.9a3.531 3.531 0 00-2.2-.88 3.4 3.4 0 00-3.19 3.19 2.917 2.917 0 001.1 2.2l10.45 9.9a2.979 2.979 0 002.2.88h0zm84.26 53.46a47.752 47.752 0 0014.85-7.37 35.9 35.9 0 0010.23-11.715 32.048 32.048 0 003.74-15.563 25.683 25.683 0 00-5.115-15.84 37.867 37.867 0 00-14.025-11.165 60.711 60.711 0 00-20.35-5.555l27.39-12.98a3.521 3.521 0 002.31-3.3 2.682 2.682 0 00-.88-2.035 3.918 3.918 0 00-2.75-.825h-57.2a3.2 3.2 0 00-3.3 3.3 3.431 3.431 0 00.825 2.145 2.957 2.957 0 002.475 1.045h42.68l-30.03 12.65a8.041 8.041 0 00-1.65 1.1 2.082 2.082 0 00-.77 1.65 3.73 3.73 0 001.1 2.53 2.988 2.988 0 003.08.77q3.849-.33 7.59-.33A73.618 73.618 0 01600.165 194a47.443 47.443 0 0113.42 5 27.026 27.026 0 019.295 8.47 21.215 21.215 0 013.41 12.045 24.8 24.8 0 01-3.355 12.98 29.34 29.34 0 01-9.185 9.46 43.86 43.86 0 01-13.2 5.775 60.274 60.274 0 01-15.29 1.925 66.024 66.024 0 01-9.35-.66 3.188 3.188 0 00-2.475.55 3.128 3.128 0 00-1.265 2.09 4.442 4.442 0 00.605 2.53 3.3 3.3 0 002.145 1.21 69.513 69.513 0 0011.66.99 60.427 60.427 0 0017.6-2.523zm127.325-28.105a24.048 24.048 0 007.26-8.69 27.165 27.165 0 002.915-11.385q.33-2.97-2.97-3.52a4.067 4.067 0 00-2.31.66 3.209 3.209 0 00-1.21 2.42 26.306 26.306 0 01-1.76 8.415 14.538 14.538 0 01-4.565 6.27 12.215 12.215 0 01-7.755 2.365 9.93 9.93 0 01-7.15-2.86 31.071 31.071 0 01-5.61-7.81 24.728 24.728 0 00-7.81-9.02 19.585 19.585 0 00-10.89-2.86 17.14 17.14 0 00-10.01 3.135 25.939 25.939 0 00-7.535 8.25 37.439 37.439 0 00-4.345 11.165 3 3 0 00.66 2.75 3.248 3.248 0 002.53 1.1 3.443 3.443 0 002.365-.66 3.365 3.365 0 00.935-1.98 29.943 29.943 0 012.915-8.58 17.416 17.416 0 015.39-6.215 13.3 13.3 0 017.865-2.365 10.43 10.43 0 017.48 3.08 30.517 30.517 0 015.61 7.59 32.267 32.267 0 007.425 9.02A15.756 15.756 0 00721 229.092a17.265 17.265 0 0010.505-3.355zm79.86 24.145a33.361 33.361 0 0011.825-11.77q1.869 7.92 7.15 11.935a20.815 20.815 0 0012.98 4.015 24.607 24.607 0 0011.22-2.915 23.505 23.505 0 009.13-8.085 2.921 2.921 0 00.66-1.76 3.158 3.158 0 00-1.65-2.64 4.522 4.522 0 00-1.98-.55 2.932 2.932 0 00-2.53 1.54 15.309 15.309 0 01-6.875 6.16 22.68 22.68 0 01-9.515 1.98q-5.61 0-8.195-2.97t-3.74-8.91q-1.155-5.94-2.475-14.74a80.338 80.338 0 00-1.43-16.83q-1.65-8.91-4.07-18.26h8.91a3.268 3.268 0 002.42-.88 3.124 3.124 0 00.88-2.31 3.507 3.507 0 00-.77-2.2 3.013 3.013 0 00-2.53-.99H820q-.66-2.2-1.705-5.28t-2.695-7.48a2.828 2.828 0 00-1.21-1.65 3.309 3.309 0 00-1.76-.55 3.214 3.214 0 00-2.145.935 3.157 3.157 0 00-1.045 2.475v.55a1.214 1.214 0 00.11.55q1.758 4.62 2.53 6.655a34.934 34.934 0 011.21 3.795h-27.28a2.989 2.989 0 00-2.365.935 3.292 3.292 0 00-.825 2.255 3.743 3.743 0 00.715 2.145 2.777 2.777 0 002.475 1.045h29.26q1.209 4.842 1.87 7.26t.935 3.52q.273 1.1.44 1.98t.5 2.75a28.962 28.962 0 00-10.01-6.93 30.342 30.342 0 00-11.66-2.31 32.413 32.413 0 00-13.86 3.08 29.612 29.612 0 00-13.145 11.66 31.838 31.838 0 00-4.785 16.94q0 1.761.165 3.52a26.629 26.629 0 00.605 3.63 28.978 28.978 0 005.775 11.825 30.671 30.671 0 0010.34 8.25 28.962 28.962 0 0013.035 3.025 30.663 30.663 0 0015.89-4.398zm-26.29-4.455a24.874 24.874 0 01-7.975-6.655 22.439 22.439 0 01-4.4-9.13 26.815 26.815 0 01-.66-5.83 24.9 24.9 0 013.74-13.255 26.21 26.21 0 0115.84-11.11 25.117 25.117 0 015.39-.6 22.332 22.332 0 0110.67 2.64 24.935 24.935 0 018.47 7.48 26.673 26.673 0 014.62 11.55 37.414 37.414 0 01-3.74 14.63 23.255 23.255 0 01-8.745 9.625 24.023 24.023 0 01-13.365 3.13 20.747 20.747 0 01-9.845-2.473zM853 210.282a3.433 3.433 0 002.255-.88 2.994 2.994 0 001.045-2.42 3.039 3.039 0 00-1.98-2.97l-10.89-4.29a4.7 4.7 0 00-1.1-.11 3.347 3.347 0 00-2.475.935 3.206 3.206 0 00-.935 2.365 3.118 3.118 0 002.2 2.86l10.78 4.29a3.575 3.575 0 001.1.22h0z" stroke-width="3" stroke-linejoin="round" fill-rule="evenodd" stroke="#000"/><path data-name="★" d="M145.032 243.417q.237-1.2 1.56-6.36t3.24-12.12q1.918-6.963 3.6-13.8t3-11.52a49.9 49.9 0 001.32-5.16l41.52-28.8a36.629 36.629 0 007.68-6.96 11.793 11.793 0 002.88-7.44q0-5.275-9.12-11.76l-43.92-29.28-15.84-50.4a33.9 33.9 0 00-3.24-7.68 13.168 13.168 0 00-5.88-5.76 9.048 9.048 0 00-3.6-.72 17.356 17.356 0 00-7.56 1.92 33.577 33.577 0 00-6.6 4.08q-1.682 1.44-6.24 4.92T97.512 64.5q-5.76 4.444-11.28 8.64t-9.24 7.08q-3.724 2.88-4.2 3.12l-50.64-2.16q-12.24-.478-16.56 5.76a13.174 13.174 0 00-2.16 7.68 22.66 22.66 0 00.6 5.04 43.023 43.023 0 001.56 5.279l17.52 46.56-18 48.24a25.4 25.4 0 00-1.92 8.88 12.063 12.063 0 003.6 8.88 15.034 15.034 0 008.4 4.2 52.614 52.614 0 0010.8.6l49.92-3.6 42.24 33.36a30.719 30.719 0 006 3.36 15.931 15.931 0 006.24 1.44 8.015 8.015 0 003.6-.72q7.92-1.44 11.04-12.72h0z" fill="#00c69c" stroke="#00c69c" stroke-width="3" stroke-linejoin="round" fill-rule="evenodd"/></svg>
